<svg xmlns="http://www.w3.org/2000/svg" viewBox="0 0 600 600"><path d="M569.6,124.5c17.7,65.1,9.8,134.7-3.4,203.3s-31.6,135.7-75.4,174S377.6,549.3,310,567s-133.9,44.2-175.5,18.9S76.1,483.8,58.3,426.1s-37-96.8-40.5-136.8,8.6-81.3,25-123.7,36.8-86.1,70.5-92.4S194,98.1,255.1,81.8,390.8,2.2,449.9.6,552,59.3,569.6,124.5Z" fill="#e2e8f0"/><polygon points="372.4 527.4 234.2 525.6 234.6 522.1 241.3 463.6 362.6 463.6 371.6 522.1 372.3 526.5 372.4 527.4" fill="#edf2f7"/><polygon points="372.3 526.5 303.3 526.5 234.2 525.6 234.6 522.1 371.6 522.1 372.3 526.5" fill="#cbd5e0" opacity="0.4"/><rect x="211.1" y="522.9" width="183.4" height="4.43" fill="#edf2f7"/><path d="M569.8,112.4a11.4,11.4,0,0,0-11.4-11.6H46.2a11.5,11.5,0,0,0-11.5,11.6h0V422.8H569.8Z" fill="#050505"/><path d="M34.4,419.7v36.4a11.5,11.5,0,0,0,11.4,11.5H558a11.4,11.4,0,0,0,11.5-11.5h0V419.7Z" fill="#edf2f7"/><rect x="56.5" y="120.2" width="493.5" height="279.09" fill="#edf2f7" style="isolation:isolate"/><path d="M304.6,453.8a11.8,11.8,0,0,0,9.4-4.6h0a7.1,7.1,0,0,0,1-1.4l-6.6-1h7.1a12.1,12.1,0,0,0,.2-9.5l-9.5,5,8.8-6.5a12,12,0,0,0-20.9,11.7,16.3,16.3,0,0,0,1.1,1.7h0A11.9,11.9,0,0,0,304.6,453.8Z" fill="#050505"/><polygon points="316.6 467.6 371.7 522.9 363.3 467.6 316.6 467.6" fill="#cbd5e0" opacity="0.4"/><rect x="436.7" y="329.6" width="100.5" height="53.36" fill="#fff"/><rect x="442.3" y="343.5" width="28" height="1.45" fill="#edf2f7"/><rect x="444.8" y="335.9" width="2.7" height="7.68" fill="#edf2f7"/><rect x="448.8" y="335.9" width="2.7" height="7.68" fill="#edf2f7"/><rect x="452.7" y="335.9" width="2.7" height="7.68" fill="#edf2f7"/><rect x="456.7" y="335.9" width="2.7" height="7.68" fill="#edf2f7"/><rect x="460.6" y="335.9" width="2.7" height="7.68" fill="#edf2f7"/><rect x="464.6" y="335.9" width="2.7" height="7.68" fill="#edf2f7"/><rect x="444.8" y="337.3" width="2.7" height="0.83" fill="#e2e8f0"/><rect x="448.8" y="337.3" width="2.7" height="0.83" fill="#e2e8f0"/><rect x="452.7" y="337.3" width="2.7" height="0.83" fill="#e2e8f0"/><rect x="456.7" y="337.3" width="2.7" height="0.83" fill="#e2e8f0"/><rect x="460.6" y="337.3" width="2.7" height="0.83" fill="#e2e8f0"/><rect x="464.6" y="337.3" width="2.7" height="0.83" fill="#e2e8f0"/><rect x="444.8" y="341" width="2.7" height="0.83" fill="#e2e8f0"/><rect x="448.8" y="341" width="2.7" height="0.83" fill="#e2e8f0"/><rect x="452.7" y="341" width="2.7" height="0.83" fill="#e2e8f0"/><rect x="456.7" y="341" width="2.7" height="0.83" fill="#e2e8f0"/><rect x="460.6" y="341" width="2.7" height="0.83" fill="#e2e8f0"/><rect x="464.6" y="341" width="2.7" height="0.83" fill="#e2e8f0"/><rect x="503.8" y="347.3" width="28" height="1.45" fill="#edf2f7"/><rect x="506.3" y="339.6" width="2.7" height="7.68" fill="#edf2f7"/><rect x="510.2" y="339.6" width="2.7" height="7.68" fill="#edf2f7"/><rect x="514.2" y="339.6" width="2.7" height="7.68" fill="#edf2f7"/><rect x="518.1" y="339.6" width="2.7" height="7.68" fill="#edf2f7"/><rect x="522.1" y="339.6" width="2.7" height="7.68" fill="#edf2f7"/><rect x="526" y="339.6" width="2.7" height="7.68" fill="#edf2f7"/><rect x="506.3" y="341" width="2.7" height="0.83" fill="#e2e8f0"/><rect x="510.2" y="341" width="2.7" height="0.83" fill="#e2e8f0"/><rect x="514.2" y="341" width="2.7" height="0.83" fill="#e2e8f0"/><rect x="518.1" y="341" width="2.7" height="0.83" fill="#e2e8f0"/><rect x="522.1" y="341" width="2.7" height="0.83" fill="#e2e8f0"/><rect x="526" y="341" width="2.7" height="0.83" fill="#e2e8f0"/><rect x="506.3" y="344.8" width="2.7" height="0.83" fill="#e2e8f0"/><rect x="510.2" y="344.8" width="2.7" height="0.83" fill="#e2e8f0"/><rect x="514.2" y="344.8" width="2.7" height="0.83" fill="#e2e8f0"/><rect x="518.1" y="344.8" width="2.7" height="0.83" fill="#e2e8f0"/><rect x="522.1" y="344.8" width="2.7" height="0.83" fill="#e2e8f0"/><rect x="526" y="344.8" width="2.7" height="0.83" fill="#e2e8f0"/><rect x="503.8" y="357.9" width="28" height="1.45" fill="#edf2f7"/><rect x="506.3" y="350.2" width="2.7" height="7.68" fill="#edf2f7"/><rect x="510.2" y="350.2" width="2.7" height="7.68" fill="#edf2f7"/><rect x="514.2" y="350.2" width="2.7" height="7.68" fill="#edf2f7"/><rect x="518.1" y="350.2" width="2.7" height="7.68" fill="#edf2f7"/><rect x="522.1" y="350.2" width="2.7" height="7.68" fill="#edf2f7"/><rect x="526" y="350.2" width="2.7" height="7.68" fill="#edf2f7"/><rect x="506.3" y="351.6" width="2.7" height="0.83" fill="#e2e8f0"/><rect x="510.2" y="351.6" width="2.7" height="0.83" fill="#e2e8f0"/><rect x="514.2" y="351.6" width="2.7" height="0.83" fill="#e2e8f0"/><rect x="518.1" y="351.6" width="2.7" height="0.83" fill="#e2e8f0"/><rect x="522.1" y="351.6" width="2.7" height="0.83" fill="#e2e8f0"/><rect x="526" y="351.6" width="2.7" height="0.83" fill="#e2e8f0"/><rect x="506.3" y="355.4" width="2.7" height="0.83" fill="#e2e8f0"/><rect x="510.2" y="355.4" width="2.7" height="0.83" fill="#e2e8f0"/><rect x="514.2" y="355.4" width="2.7" height="0.83" fill="#e2e8f0"/><rect x="518.1" y="355.4" width="2.7" height="0.83" fill="#e2e8f0"/><rect x="522.1" y="355.4" width="2.7" height="0.83" fill="#e2e8f0"/><rect x="526" y="355.4" width="2.7" height="0.83" fill="#e2e8f0"/><path d="M459.5,360a4.1,4.1,0,0,1-.5-.9l4-.6h-4.4a7.3,7.3,0,0,1-.1-5.8l5.8,3-5.4-4a7.4,7.4,0,0,1,12.8,7.4l-.6.9a5.7,5.7,0,0,1,.8,1.3l-5.2,2.7,5.6-1.8a7.5,7.5,0,0,1-1.2,6.9,7.3,7.3,0,0,1-1.2,10.3,7.4,7.4,0,0,1-10.4-1.2,7.4,7.4,0,0,1,0-9.1,7.4,7.4,0,0,1,0-9.1Z" fill="#edf2f7"/><path d="M472.7,364.5a7.6,7.6,0,0,1-1.6,4.6,7.3,7.3,0,0,1-1.2,10.3,7.4,7.4,0,0,1-10.4-1.2,7.4,7.4,0,0,1,0-9.1C458.5,367.8,472.7,363.7,472.7,364.5Z" fill="#e2e8f0"/><path d="M466.5,382.9h-2.4a2.5,2.5,0,0,1-.4-1.2,2.9,2.9,0,0,1,.2-.9h.5a5.4,5.4,0,0,0,1.8,0h.5a2.8,2.8,0,0,1,.1.9A2.4,2.4,0,0,1,466.5,382.9Z" fill="#e2e8f0"/><path d="M457.5,383H443.6a.4.4,0,0,0-.1-.3,7.9,7.9,0,0,1,.2-4.8,7.4,7.4,0,0,1-2.7-8.7c-.3-.1-.5-.4-.8-.6l3.7-1.8-4.2,1.3a7.4,7.4,0,0,1-1.8-5.5l6.5,1.1-6.4-2.2a7.4,7.4,0,0,1,14.4,3.3l-.3,1,1.2,1.1-4.2,4.1,4.8-3.4a7.7,7.7,0,0,1,.9,6.9A7.4,7.4,0,0,1,457.5,383Z" fill="#edf2f7"/><path d="M457.5,383H443.6a.4.4,0,0,0-.1-.3,7.9,7.9,0,0,1,.2-4.8c-1.3-.9,11-9,11.2-8.2a7.2,7.2,0,0,1-.1,4.8A7.4,7.4,0,0,1,457.5,383Z" fill="#e2e8f0"/><path d="M520.4,373a7.1,7.1,0,0,1-3.7,3.1,8.6,8.6,0,0,1,.1,1.6l-5.9-.3,5.7,1.2a7.2,7.2,0,0,1-2.8,4.4h-8v.2h-8.2V383a7.2,7.2,0,0,1,4.4-5,7.3,7.3,0,0,1,4.7-7.8v-1l3.8,1.5-3.8-2.2a7.2,7.2,0,0,1,2.9-5.1l3.4,5.6-2.6-6.2a7.4,7.4,0,0,1,10,2.9,7.1,7.1,0,0,1-.1,7.3Z" fill="#edf2f7"/><path d="M515.8,380.8a7,7,0,0,1-2,2.2h-8v.2h-8.2V383a7.2,7.2,0,0,1,4.4-5c0-.5,1.6-.5,3.7-.1C509.9,378.6,516,380.4,515.8,380.8Z" fill="#e2e8f0"/><path d="M481,361.2s1,5.5-1.2,7.2,1.8,12.5,8.7,11.2,9.7-10.2,9.7-10.2-6.9-1.4-4.3-8.6Z" fill="#efb7b9"/><path d="M481,361.2s1,5.5-1.2,7.2,1.8,12.5,8.7,11.2,9.7-10.2,9.7-10.2-6.9-1.4-4.3-8.6Z" opacity="0.1" style="isolation:isolate"/><circle cx="487.1" cy="353.8" r="11.4" fill="#efb7b9"/><path d="M505.8,375.5v7.7H468.2v-7.4a4.8,4.8,0,0,1,2.9-4.4l1.1-.4c2.7-1.2,6-2.6,7.1-3.2l.3-.3c.6-.5.5.2.5.2v.4c-.1,1.8.2,8.6,8.2,8s8.2-5.8,8.1-7.4a.8.8,0,0,0-.1-.4l1.6.5a24.2,24.2,0,0,1,4.7,2.1l.7.4a4.6,4.6,0,0,1,2.5,4.2Z" fill="#050505"/><path d="M497.9,368.8c-.6,3.1-2.7,8.9-10.2,9s-8.5-7.8-8.4-10l.3-.2c.6-.6.5.1.5.1s-1,9.1,8.2,8.4,8-7.8,8-7.8Z" opacity="0.1" style="isolation:isolate"/><path d="M473.6,354.4a2.1,2.1,0,0,1,2.1.7,4.6,4.6,0,0,1,.5,2c.5.1.8-.5.8-.9a21.7,21.7,0,0,1,.8-5.1,5.9,5.9,0,0,1,3.8-3.9,3.4,3.4,0,0,1,2-.2l1.2.2c1.4.3,3-.4,4.3.1a4,4,0,0,1,1.8,1.6,3.3,3.3,0,0,0,.6,1,4.5,4.5,0,0,0,2.3.8c.8.2,1.7.4,2,1.1a2.8,2.8,0,0,1,0,1.8,4.4,4.4,0,0,0,.5,2.8.7.7,0,0,0,.8.5.5.5,0,0,0,.4-.3c.9-1.3.9-3,2-4.1l1.3-1.1a2.8,2.8,0,0,0,.7-2.3,8.7,8.7,0,0,0-1.5-2.4,10.9,10.9,0,0,1-1.7-3.4v-.4l.5-.4a1.5,1.5,0,0,0,.5-1.9,3.2,3.2,0,0,0-1.9-1.5,10.2,10.2,0,0,0-2.5-.6c-.6.1-1.3-.2-1.4-.7s-.1-.4-.2-.6a1.5,1.5,0,0,0-1.1-.8,3.2,3.2,0,0,0-1.4.1,2,2,0,0,1-1.7.1l-.6-.5c-.6-.2-1.1.3-1.5.6a3.1,3.1,0,0,1-1.4.9,1.8,1.8,0,0,1-1.6-.1c-.4-.2-.6-.6-.9-.9a3,3,0,0,0-2-.8,5.8,5.8,0,0,0-2.3.2,16.2,16.2,0,0,0-4.1,1.7,4.3,4.3,0,0,0-1.5,1.5,3.2,3.2,0,0,0-.3,1.4,5.4,5.4,0,0,0,1.8,4.5c-.8.3-1.1,1.2-1.3,2a11.4,11.4,0,0,0-.5,3.7,12.8,12.8,0,0,1,.1,1.9c0,.4-.1.7-.1,1A1,1,0,0,0,473.6,354.4Z" fill="#4c3b30"/><g opacity="0.1"><path d="M501.3,348.6a1.8,1.8,0,0,1-.5.7l-1.3,1.1c-1.1,1.2-1.1,2.9-2,4.2a.5.5,0,0,1-.4.3.7.7,0,0,1-.8-.5,3.6,3.6,0,0,1-.4-1.1c0,.1-.1.2-.1.3a4.4,4.4,0,0,0,.5,2.8.7.7,0,0,0,.8.5.5.5,0,0,0,.4-.3c.9-1.3.9-3,2-4.1l1.3-1.1a2.8,2.8,0,0,0,.7-2.3C501.4,349,501.4,348.8,501.3,348.6Z"/><path d="M498.8,340.6c-.2,0-.3.1-.4.3a.3.3,0,0,0,0,.4,5,5,0,0,0,.4,1.3h0a1.6,1.6,0,0,0,.5-2l-.2-.4Z"/><path d="M474.7,343.1a5.4,5.4,0,0,1-1.8-3.2v.8a5,5,0,0,0,.9,3.3A1.6,1.6,0,0,1,474.7,343.1Z"/><path d="M495.8,351.6a2.8,2.8,0,0,0,0-1.8c-.3-.7-1.2-.9-2-1.1a4.5,4.5,0,0,1-2.3-.8,3.3,3.3,0,0,1-.6-1,3.5,3.5,0,0,0-1.8-1.6c-1.3-.5-2.9.2-4.3-.1l-1.2-.2a3.4,3.4,0,0,0-2,.2,5.9,5.9,0,0,0-3.8,3.9,21.7,21.7,0,0,0-.8,5.1c0,.4-.3,1-.8.9a4.6,4.6,0,0,0-.5-2,1.9,1.9,0,0,0-2.1-.7l-.6-.4a.9.9,0,0,1,0,.7c0,.4-.1.7-.1,1a1,1,0,0,0,.7.7,2.1,2.1,0,0,1,2.1.7,4.6,4.6,0,0,1,.5,2c.5.1.8-.5.8-.9a21.7,21.7,0,0,1,.8-5.1,5.9,5.9,0,0,1,3.8-3.9,3.4,3.4,0,0,1,2-.2l1.2.2c1.4.3,3-.4,4.3.1a4,4,0,0,1,1.8,1.6,3.3,3.3,0,0,0,.6,1,4.5,4.5,0,0,0,2.3.8,3.2,3.2,0,0,1,2,1Z"/><path d="M473,350.7a3.8,3.8,0,0,0-.1-1.5,8.5,8.5,0,0,0,0,1.6v.4A.7.7,0,0,0,473,350.7Z"/></g><rect x="79.2" y="140.8" width="348.8" height="242.02" fill="#fff"/><path d="M396.9,323a43.2,43.2,0,0,1-21.7,18.3,48.2,48.2,0,0,1,.2,9.3l-34.9-2.1,33.9,7.5a43.6,43.6,0,0,1-16.7,25.8H310.5V383H262.4a1.8,1.8,0,0,1,.3-1.2,40.9,40.9,0,0,1,4.7-11.2,43.2,43.2,0,0,1,21.7-18.3,43.4,43.4,0,0,1,27.6-46,40.3,40.3,0,0,1-.4-6l22.5,8.9-22.3-13.1a43.1,43.1,0,0,1,17-29.9l20.4,33.1-15.3-36.5A43.4,43.4,0,0,1,396.7,323Z" fill="#edf2f7"/><path d="M369.4,369.2a43,43,0,0,1-11.7,12.7H310.5v1.2H262.4a1.8,1.8,0,0,1,.3-1.2,42.3,42.3,0,0,1,4.7-11.2,43.2,43.2,0,0,1,21.7-18.3c-.4-3.1,9-2.7,21.4-.6C334.8,355.9,371,366.4,369.4,369.2Z" fill="#e2e8f0"/><path d="M92.5,323a43.2,43.2,0,0,0,21.7,18.3,48.2,48.2,0,0,0-.2,9.3l34.9-2.1L115,356a43.6,43.6,0,0,0,16.7,25.8H179V383h48.2a5.3,5.3,0,0,0-.3-1.2,46.2,46.2,0,0,0-4.8-11.2,43.2,43.2,0,0,0-21.7-18.3,43.3,43.3,0,0,0-27.5-46q.3-3,.3-6l-22.4,8.9L173,296.1a43.1,43.1,0,0,0-17-29.9l-20.4,33.1,15.3-36.5A43.4,43.4,0,0,0,92.8,323Z" fill="#edf2f7"/><path d="M120,369.2a43,43,0,0,0,11.7,12.7H179v1.2h48.1a5.3,5.3,0,0,0-.3-1.2,42.3,42.3,0,0,0-4.7-11.2,43.2,43.2,0,0,0-21.7-18.3c.4-3.1-9-2.7-21.4-.6C154.6,355.9,118.2,366.4,120,369.2Z" fill="#e2e8f0"/><rect x="210.1" y="193.7" width="77.9" height="86.81" fill="#464353"/><rect x="210.1" y="193.7" width="77.9" height="86.81" opacity="0.1" style="isolation:isolate"/><polygon points="176.9 360 175.3 382.6 197.6 382.6 199 352.8 176.9 360" fill="#a1616a"/><polygon points="294.1 360 290.7 382.6 311.1 382.6 312.4 352.8 294.1 360" fill="#a1616a"/><path d="M229.6,237.2s-.8,11.3-3.5,14.2,24.2,29,45.4,3.3c0,0-9.1-7.8-7-16.5S229.6,237.2,229.6,237.2Z" fill="#a1616a"/><path d="M229.6,237.2s-.8,11.3-3.5,14.2,24.2,29,45.4,3.3c0,0-9.1-7.8-7-16.5S229.6,237.2,229.6,237.2Z" opacity="0.1" style="isolation:isolate"/><circle cx="249.1" cy="208.3" r="39" fill="#a1616a"/><path d="M247.1,261.4s-16.4-.3-18.8-15.2a95.1,95.1,0,0,1-10.3,7.7c-1.6.6-17.2,9.4-20.1,10a16.3,16.3,0,0,0-7.8,3.8A34,34,0,0,0,177.2,293c-.5,17.5-2.6,51.6-2.6,51.6l.8,12.4v8s14.5,3.9,23.2-3.8c0,0,0-3,1.6-3.9s1.9-4.9,1.6-6.5-.1-4.8,0-7.2a5.5,5.5,0,0,0,2.2,3.2,17,17,0,0,1,.6,6.7c-.9,1.6-1.7,5.4-.9,6.2a3.8,3.8,0,0,1-.5,4.6,23.8,23.8,0,0,0-3.5,6.7s-.8,4.8-1.6,5.4a21.3,21.3,0,0,0-1.9,6.2h96.9a101.5,101.5,0,0,1-3.9-15.1c.3-2.4-2.4-12.4-.5-15.1a20.8,20.8,0,0,0,4.3-12.3l1.1,10.4-3,23.3s18,5.7,19.9,2.1a132.2,132.2,0,0,0,4.6-18.8s4.3-19.3,5.4-22,3.5-56.4-11.1-64.2-41.9-21.2-42.6-20.6A18.1,18.1,0,0,1,247.1,261.4Z" fill="#050505"/><path d="M200.4,313.9a19.4,19.4,0,0,0-3.4,13.6,38,38,0,0,0,4.6,13.5" fill="none" stroke="#000" stroke-miterlimit="10" opacity="0.1" style="isolation:isolate"/><path d="M294.5,317.6a42.1,42.1,0,0,1,1.6,6.1,18.4,18.4,0,0,1-2.5,15.1" fill="none" stroke="#000" stroke-miterlimit="10" opacity="0.1" style="isolation:isolate"/><path d="M231.6,181.6a13,13,0,0,1,9.1.9,46.6,46.6,0,0,0,8.7,3.5c2,.4,3.9.4,6.2.7a19,19,0,0,1,15.2,15c1.8,9.5-3.9,18.9-3.9,28.6a24.1,24.1,0,0,0,5.6,15.2,42.9,42.9,0,0,1,7.7,9.3c1.2,2.5,1.4,5.3,2.5,7.7a19.6,19.6,0,0,0,11,9.4,70.6,70.6,0,0,1,13.4,6.1c7.8,5.1,12.4,15,21.3,17.1a3.7,3.7,0,0,0,2.9,0,3.4,3.4,0,0,0,1.3-2.7A12.9,12.9,0,0,0,329,282c-2.2-2.2-5.4-3.9-6.1-6.9s1.1-5.5,2.1-8.2c3.3-8.8-2.1-18.4-8.2-25.5s-13.3-14.2-14.8-23.3a56.2,56.2,0,0,1-.4-9.2,62.1,62.1,0,0,0-3.2-18.6,27.7,27.7,0,0,0-4.7-9c-1.9-2.3-4.4-4.1-6.4-6.3a87.4,87.4,0,0,1-7.2-11.7,35,35,0,0,0-28.5-16c-10.9,0-21.2,4.8-30.4,10.6a25.2,25.2,0,0,0-8.6,7.6c-3.9,6.1-2.7,14.3-5,21.2s-7.5,12.2-9.4,19a12.6,12.6,0,0,0-.3,6.1,26.7,26.7,0,0,0,2.8,6.2,47,47,0,0,1,3.4,15.7c.6,6.6.9,13.6-2.5,19.1a31.7,31.7,0,0,1-9.7,8.2,18.8,18.8,0,0,0,13.5,4.2c7.4.3,15.9,0,20.5-5.8a20.9,20.9,0,0,0,3.1-14.2,60.9,60.9,0,0,0-3.3-15.8c-2.5-7.2-6.4-13.9-7.5-21.5a20.1,20.1,0,0,1,3.9-15.5c1.4-1.7,3.8-2.6,5-4.5S228.2,182.9,231.6,181.6Z" fill="#464353"/><g opacity="0.1"><path d="M200.7,217.5a47,47,0,0,1,3.4,15.7c0,1.7.3,3.5.3,5.2a54.3,54.3,0,0,0,0-11.4,46.4,46.4,0,0,0-3.4-15.5,42.2,42.2,0,0,1-2.8-6.1,14,14,0,0,0-.2,6.1A32.4,32.4,0,0,0,200.7,217.5Z"/><path d="M226.2,253.3c-4.6,5.7-13.1,6.1-20.4,5.8a28.1,28.1,0,0,1-9.2-1.4c-1.5,1.2-3.1,2.4-4.6,3.4a18.8,18.8,0,0,0,13.5,4.2c7.3.3,15.9,0,20.4-5.8a18.9,18.9,0,0,0,3.2-13.2A14.4,14.4,0,0,1,226.2,253.3Z"/><path d="M323.1,268.8a11.2,11.2,0,0,0,.5,1.3c.5-1.1,1-2.3,1.4-3.4a15.5,15.5,0,0,0,.8-8,10.5,10.5,0,0,1-.5,1.9C324.3,263.3,322.5,266,323.1,268.8Z"/><path d="M271.1,203.5a26.8,26.8,0,0,0,0-8,19.2,19.2,0,0,0-15.3-14.9c-2.1-.4-4.1-.4-6.1-.8a46.2,46.2,0,0,1-8.7-3.4,13.1,13.1,0,0,0-9.1-1c-3.5,1.3-3.1,3.9-4.6,6.5s-3.7,2.7-5.1,4.4a20.9,20.9,0,0,0-3.9,14.3,18.1,18.1,0,0,1,3.7-8.1c1.3-1.7,3.8-2.6,5-4.4s1.1-5.2,4.6-6.5a13,13,0,0,1,9.1.9,46.6,46.6,0,0,0,8.7,3.5c2,.4,3.9.4,6.1.7a19.1,19.1,0,0,1,15.3,15Z"/><path d="M331.4,288.8a3.4,3.4,0,0,1-2.8,0c-9-2.1-13.7-12-21.4-17.2a77.1,77.1,0,0,0-13.4-6,20.2,20.2,0,0,1-11-9.3c-1.1-2.6-1.3-5.4-2.4-7.8a49.4,49.4,0,0,0-7.8-9.3,24.2,24.2,0,0,1-5.6-13.6,35.5,35.5,0,0,0-.3,4.6,23.3,23.3,0,0,0,5.8,15.3,42.9,42.9,0,0,1,7.7,9.3c1.2,2.5,1.4,5.3,2.5,7.7a19.6,19.6,0,0,0,11,9.4,70.6,70.6,0,0,1,13.4,6.1c7.8,5.1,12.4,15,21.3,17.1a3.7,3.7,0,0,0,2.9,0,3.4,3.4,0,0,0,1.3-2.7,13.2,13.2,0,0,0-.2-4.4A2.5,2.5,0,0,1,331.4,288.8Z"/></g><rect x="114.8" y="158.2" width="49.8" height="71.19" fill="#edf2f7"/><rect x="121.9" y="168.4" width="35.6" height="50.84" fill="#e2e8f0"/><rect x="328.3" y="168.9" width="81.8" height="42.71" fill="#edf2f7"/><rect x="339" y="174.5" width="60.5" height="31.58" fill="#e2e8f0"/></svg>