<svg xmlns="http://www.w3.org/2000/svg" viewBox="0 0 600 600"><path d="M569.6 124.5c17.7 65.1 9.8 134.7-3.4 203.3s-31.6 135.7-75.4 174S377.6 549.3 310 567s-133.9 44.2-175.5 18.9-58.4-102.1-76.2-159.8-37-96.8-40.5-136.8 8.6-81.3 25-123.7 36.8-86.1 70.5-92.4 80.7 24.9 141.8 8.6S390.8 2.2 449.9.6 552 59.3 569.6 124.5z" fill="#e2e8f0"/><path fill="#edf2f7" d="M372.4 527.4l-138.2-1.8.4-3.5 6.7-58.5h121.3l9 58.5.7 4.4.1.9z"/><path fill="#cbd5e0" opacity=".4" d="M372.3 526.5h-69l-69.1-.9.4-3.5h137l.7 4.4z"/><path fill="#edf2f7" d="M211.1 522.9h183.4v4.43H211.1z"/><path d="M569.8 112.4a11.4 11.4 0 00-11.4-11.6H46.2a11.5 11.5 0 00-11.5 11.6v310.4h535.1z" fill="#050505"/><path d="M34.4 419.7v36.4a11.5 11.5 0 0011.4 11.5H558a11.4 11.4 0 0011.5-11.5v-36.4z" fill="#edf2f7"/><path fill="#edf2f7" style="isolation:isolate" d="M56.5 120.2H550v279.09H56.5z"/><path d="M304.6 453.8a11.8 11.8 0 009.4-4.6 7.1 7.1 0 001-1.4l-6.6-1h7.1a12.1 12.1 0 00.2-9.5l-9.5 5 8.8-6.5a12 12 0 00-20.9 11.7 16.3 16.3 0 001.1 1.7 11.9 11.9 0 009.4 4.6z" fill="#050505"/><path fill="#cbd5e0" opacity=".4" d="M316.6 467.6l55.1 55.3-8.4-55.3h-46.7z"/><path fill="#fff" d="M436.7 329.6h100.5v53.36H436.7z"/><path fill="#edf2f7" d="M442.3 343.5h28v1.45h-28z"/><path fill="#edf2f7" d="M444.8 335.9h2.7v7.68h-2.7zM448.8 335.9h2.7v7.68h-2.7zM452.7 335.9h2.7v7.68h-2.7zM456.7 335.9h2.7v7.68h-2.7zM460.6 335.9h2.7v7.68h-2.7zM464.6 335.9h2.7v7.68h-2.7z"/><path fill="#e2e8f0" d="M444.8 337.3h2.7v.83h-2.7zM448.8 337.3h2.7v.83h-2.7zM452.7 337.3h2.7v.83h-2.7zM456.7 337.3h2.7v.83h-2.7zM460.6 337.3h2.7v.83h-2.7zM464.6 337.3h2.7v.83h-2.7zM444.8 341h2.7v.83h-2.7zM448.8 341h2.7v.83h-2.7zM452.7 341h2.7v.83h-2.7zM456.7 341h2.7v.83h-2.7zM460.6 341h2.7v.83h-2.7zM464.6 341h2.7v.83h-2.7z"/><path fill="#edf2f7" d="M503.8 347.3h28v1.45h-28zM506.3 339.6h2.7v7.68h-2.7zM510.2 339.6h2.7v7.68h-2.7zM514.2 339.6h2.7v7.68h-2.7zM518.1 339.6h2.7v7.68h-2.7zM522.1 339.6h2.7v7.68h-2.7zM526 339.6h2.7v7.68H526z"/><path fill="#e2e8f0" d="M506.3 341h2.7v.83h-2.7zM510.2 341h2.7v.83h-2.7zM514.2 341h2.7v.83h-2.7zM518.1 341h2.7v.83h-2.7zM522.1 341h2.7v.83h-2.7zM526 341h2.7v.83H526zM506.3 344.8h2.7v.83h-2.7zM510.2 344.8h2.7v.83h-2.7zM514.2 344.8h2.7v.83h-2.7zM518.1 344.8h2.7v.83h-2.7zM522.1 344.8h2.7v.83h-2.7zM526 344.8h2.7v.83H526z"/><path fill="#edf2f7" d="M503.8 357.9h28v1.45h-28zM506.3 350.2h2.7v7.68h-2.7zM510.2 350.2h2.7v7.68h-2.7zM514.2 350.2h2.7v7.68h-2.7zM518.1 350.2h2.7v7.68h-2.7zM522.1 350.2h2.7v7.68h-2.7zM526 350.2h2.7v7.68H526z"/><path fill="#e2e8f0" d="M506.3 351.6h2.7v.83h-2.7zM510.2 351.6h2.7v.83h-2.7zM514.2 351.6h2.7v.83h-2.7zM518.1 351.6h2.7v.83h-2.7zM522.1 351.6h2.7v.83h-2.7zM526 351.6h2.7v.83H526zM506.3 355.4h2.7v.83h-2.7zM510.2 355.4h2.7v.83h-2.7zM514.2 355.4h2.7v.83h-2.7zM518.1 355.4h2.7v.83h-2.7zM522.1 355.4h2.7v.83h-2.7zM526 355.4h2.7v.83H526z"/><path d="M459.5 360a4.1 4.1 0 01-.5-.9l4-.6h-4.4a7.3 7.3 0 01-.1-5.8l5.8 3-5.4-4a7.4 7.4 0 0112.8 7.4l-.6.9a5.7 5.7 0 01.8 1.3l-5.2 2.7 5.6-1.8a7.5 7.5 0 01-1.2 6.9 7.3 7.3 0 01-1.2 10.3 7.4 7.4 0 01-10.4-1.2 7.4 7.4 0 010-9.1 7.4 7.4 0 010-9.1z" fill="#edf2f7"/><path d="M472.7 364.5a7.6 7.6 0 01-1.6 4.6 7.3 7.3 0 01-1.2 10.3 7.4 7.4 0 01-10.4-1.2 7.4 7.4 0 010-9.1c-1-1.3 13.2-5.4 13.2-4.6z" fill="#e2e8f0"/><path d="M466.5 382.9h-2.4a2.5 2.5 0 01-.4-1.2 2.9 2.9 0 01.2-.9h.5a5.4 5.4 0 001.8 0h.5a2.8 2.8 0 01.1.9 2.4 2.4 0 01-.3 1.2z" fill="#e2e8f0"/><path d="M457.5 383h-13.9a.4.4 0 00-.1-.3 7.9 7.9 0 01.2-4.8 7.4 7.4 0 01-2.7-8.7c-.3-.1-.5-.4-.8-.6l3.7-1.8-4.2 1.3a7.4 7.4 0 01-1.8-5.5l6.5 1.1-6.4-2.2a7.4 7.4 0 0114.4 3.3l-.3 1 1.2 1.1-4.2 4.1 4.8-3.4a7.7 7.7 0 01.9 6.9 7.4 7.4 0 012.7 8.5z" fill="#edf2f7"/><path d="M457.5 383h-13.9a.4.4 0 00-.1-.3 7.9 7.9 0 01.2-4.8c-1.3-.9 11-9 11.2-8.2a7.2 7.2 0 01-.1 4.8 7.4 7.4 0 012.7 8.5z" fill="#e2e8f0"/><path d="M520.4 373a7.1 7.1 0 01-3.7 3.1 8.6 8.6 0 01.1 1.6l-5.9-.3 5.7 1.2a7.2 7.2 0 01-2.8 4.4h-8v.2h-8.2v-.2a7.2 7.2 0 014.4-5 7.3 7.3 0 014.7-7.8v-1l3.8 1.5-3.8-2.2a7.2 7.2 0 012.9-5.1l3.4 5.6-2.6-6.2a7.4 7.4 0 0110 2.9 7.1 7.1 0 01-.1 7.3z" fill="#edf2f7"/><path d="M515.8 380.8a7 7 0 01-2 2.2h-8v.2h-8.2v-.2a7.2 7.2 0 014.4-5c0-.5 1.6-.5 3.7-.1 4.2.7 10.3 2.5 10.1 2.9z" fill="#e2e8f0"/><path d="M481 361.2s1 5.5-1.2 7.2 1.8 12.5 8.7 11.2 9.7-10.2 9.7-10.2-6.9-1.4-4.3-8.6z" fill="#efb7b9"/><path d="M481 361.2s1 5.5-1.2 7.2 1.8 12.5 8.7 11.2 9.7-10.2 9.7-10.2-6.9-1.4-4.3-8.6z" opacity=".1" style="isolation:isolate"/><circle cx="487.1" cy="353.8" r="11.4" fill="#efb7b9"/><path d="M505.8 375.5v7.7h-37.6v-7.4a4.8 4.8 0 012.9-4.4l1.1-.4c2.7-1.2 6-2.6 7.1-3.2l.3-.3c.6-.5.5.2.5.2v.4c-.1 1.8.2 8.6 8.2 8s8.2-5.8 8.1-7.4a.8.8 0 00-.1-.4l1.6.5a24.2 24.2 0 014.7 2.1l.7.4a4.6 4.6 0 012.5 4.2z" fill="#050505"/><path d="M497.9 368.8c-.6 3.1-2.7 8.9-10.2 9s-8.5-7.8-8.4-10l.3-.2c.6-.6.5.1.5.1s-1 9.1 8.2 8.4 8-7.8 8-7.8z" opacity=".1" style="isolation:isolate"/><path d="M473.6 354.4a2.1 2.1 0 012.1.7 4.6 4.6 0 01.5 2c.5.1.8-.5.8-.9a21.7 21.7 0 01.8-5.1 5.9 5.9 0 013.8-3.9 3.4 3.4 0 012-.2l1.2.2c1.4.3 3-.4 4.3.1a4 4 0 011.8 1.6 3.3 3.3 0 00.6 1 4.5 4.5 0 002.3.8c.8.2 1.7.4 2 1.1a2.8 2.8 0 010 1.8 4.4 4.4 0 00.5 2.8.7.7 0 00.8.5.5.5 0 00.4-.3c.9-1.3.9-3 2-4.1l1.3-1.1a2.8 2.8 0 00.7-2.3 8.7 8.7 0 00-1.5-2.4 10.9 10.9 0 01-1.7-3.4v-.4l.5-.4a1.5 1.5 0 00.5-1.9 3.2 3.2 0 00-1.9-1.5 10.2 10.2 0 00-2.5-.6c-.6.1-1.3-.2-1.4-.7s-.1-.4-.2-.6a1.5 1.5 0 00-1.1-.8 3.2 3.2 0 00-1.4.1 2 2 0 01-1.7.1l-.6-.5c-.6-.2-1.1.3-1.5.6a3.1 3.1 0 01-1.4.9 1.8 1.8 0 01-1.6-.1c-.4-.2-.6-.6-.9-.9a3 3 0 00-2-.8 5.8 5.8 0 00-2.3.2 16.2 16.2 0 00-4.1 1.7 4.3 4.3 0 00-1.5 1.5 3.2 3.2 0 00-.3 1.4 5.4 5.4 0 001.8 4.5c-.8.3-1.1 1.2-1.3 2a11.4 11.4 0 00-.5 3.7 12.8 12.8 0 01.1 1.9c0 .4-.1.7-.1 1a1 1 0 00.7.7z" fill="#4c3b30"/><g opacity=".1"><path d="M501.3 348.6a1.8 1.8 0 01-.5.7l-1.3 1.1c-1.1 1.2-1.1 2.9-2 4.2a.5.5 0 01-.4.3.7.7 0 01-.8-.5 3.6 3.6 0 01-.4-1.1c0 .1-.1.2-.1.3a4.4 4.4 0 00.5 2.8.7.7 0 00.8.5.5.5 0 00.4-.3c.9-1.3.9-3 2-4.1l1.3-1.1a2.8 2.8 0 00.7-2.3c-.1-.1-.1-.3-.2-.5zM498.8 340.6c-.2 0-.3.1-.4.3a.3.3 0 000 .4 5 5 0 00.4 1.3 1.6 1.6 0 00.5-2l-.2-.4zM474.7 343.1a5.4 5.4 0 01-1.8-3.2v.8a5 5 0 00.9 3.3 1.6 1.6 0 01.9-.9zM495.8 351.6a2.8 2.8 0 000-1.8c-.3-.7-1.2-.9-2-1.1a4.5 4.5 0 01-2.3-.8 3.3 3.3 0 01-.6-1 3.5 3.5 0 00-1.8-1.6c-1.3-.5-2.9.2-4.3-.1l-1.2-.2a3.4 3.4 0 00-2 .2 5.9 5.9 0 00-3.8 3.9 21.7 21.7 0 00-.8 5.1c0 .4-.3 1-.8.9a4.6 4.6 0 00-.5-2 1.9 1.9 0 00-2.1-.7l-.6-.4a.9.9 0 010 .7c0 .4-.1.7-.1 1a1 1 0 00.7.7 2.1 2.1 0 012.1.7 4.6 4.6 0 01.5 2c.5.1.8-.5.8-.9a21.7 21.7 0 01.8-5.1 5.9 5.9 0 013.8-3.9 3.4 3.4 0 012-.2l1.2.2c1.4.3 3-.4 4.3.1a4 4 0 011.8 1.6 3.3 3.3 0 00.6 1 4.5 4.5 0 002.3.8 3.2 3.2 0 012 1zM473 350.7a3.8 3.8 0 00-.1-1.5 8.5 8.5 0 000 1.6v.4a.7.7 0 00.1-.5z"/></g><path fill="#fff" d="M79.2 140.8H428v242.02H79.2z"/><path d="M396.9 323a43.2 43.2 0 01-21.7 18.3 48.2 48.2 0 01.2 9.3l-34.9-2.1 33.9 7.5a43.6 43.6 0 01-16.7 25.8h-47.2v1.2h-48.1a1.8 1.8 0 01.3-1.2 40.9 40.9 0 014.7-11.2 43.2 43.2 0 0121.7-18.3 43.4 43.4 0 0127.6-46 40.3 40.3 0 01-.4-6l22.5 8.9-22.3-13.1a43.1 43.1 0 0117-29.9l20.4 33.1-15.3-36.5a43.4 43.4 0 0158.1 60.2z" fill="#edf2f7"/><path d="M369.4 369.2a43 43 0 01-11.7 12.7h-47.2v1.2h-48.1a1.8 1.8 0 01.3-1.2 42.3 42.3 0 014.7-11.2 43.2 43.2 0 0121.7-18.3c-.4-3.1 9-2.7 21.4-.6 24.3 4.1 60.5 14.6 58.9 17.4z" fill="#e2e8f0"/><path d="M92.5 323a43.2 43.2 0 0021.7 18.3 48.2 48.2 0 00-.2 9.3l34.9-2.1L115 356a43.6 43.6 0 0016.7 25.8H179v1.2h48.2a5.3 5.3 0 00-.3-1.2 46.2 46.2 0 00-4.8-11.2 43.2 43.2 0 00-21.7-18.3 43.3 43.3 0 00-27.5-46q.3-3 .3-6l-22.4 8.9 22.2-13.1a43.1 43.1 0 00-17-29.9l-20.4 33.1 15.3-36.5A43.4 43.4 0 0092.8 323z" fill="#edf2f7"/><path d="M120 369.2a43 43 0 0011.7 12.7H179v1.2h48.1a5.3 5.3 0 00-.3-1.2 42.3 42.3 0 00-4.7-11.2 43.2 43.2 0 00-21.7-18.3c.4-3.1-9-2.7-21.4-.6-24.4 4.1-60.8 14.6-59 17.4z" fill="#e2e8f0"/><path fill="#464353" d="M210.1 193.7H288v86.81h-77.9z"/><path opacity=".1" style="isolation:isolate" d="M210.1 193.7H288v86.81h-77.9z"/><path fill="#a1616a" d="M176.9 360l-1.6 22.6h22.3l1.4-29.8-22.1 7.2zM294.1 360l-3.4 22.6h20.4l1.3-29.8-18.3 7.2zM229.6 237.2s-.8 11.3-3.5 14.2 24.2 29 45.4 3.3c0 0-9.1-7.8-7-16.5s-34.9-1-34.9-1z"/><path d="M229.6 237.2s-.8 11.3-3.5 14.2 24.2 29 45.4 3.3c0 0-9.1-7.8-7-16.5s-34.9-1-34.9-1z" opacity=".1" style="isolation:isolate"/><circle cx="249.1" cy="208.3" r="39" fill="#a1616a"/><path d="M247.1 261.4s-16.4-.3-18.8-15.2a95.1 95.1 0 01-10.3 7.7c-1.6.6-17.2 9.4-20.1 10a16.3 16.3 0 00-7.8 3.8 34 34 0 00-12.9 25.3c-.5 17.5-2.6 51.6-2.6 51.6l.8 12.4v8s14.5 3.9 23.2-3.8c0 0 0-3 1.6-3.9s1.9-4.9 1.6-6.5-.1-4.8 0-7.2a5.5 5.5 0 002.2 3.2 17 17 0 01.6 6.7c-.9 1.6-1.7 5.4-.9 6.2a3.8 3.8 0 01-.5 4.6 23.8 23.8 0 00-3.5 6.7s-.8 4.8-1.6 5.4a21.3 21.3 0 00-1.9 6.2h96.9a101.5 101.5 0 01-3.9-15.1c.3-2.4-2.4-12.4-.5-15.1a20.8 20.8 0 004.3-12.3l1.1 10.4-3 23.3s18 5.7 19.9 2.1a132.2 132.2 0 004.6-18.8s4.3-19.3 5.4-22 3.5-56.4-11.1-64.2-41.9-21.2-42.6-20.6a18.1 18.1 0 01-20.2 11.1z" fill="#050505"/><path d="M200.4 313.9a19.4 19.4 0 00-3.4 13.6 38 38 0 004.6 13.5M294.5 317.6a42.1 42.1 0 011.6 6.1 18.4 18.4 0 01-2.5 15.1" fill="none" stroke="#000" stroke-miterlimit="10" opacity=".1" style="isolation:isolate"/><path d="M231.6 181.6a13 13 0 019.1.9 46.6 46.6 0 008.7 3.5c2 .4 3.9.4 6.2.7a19 19 0 0115.2 15c1.8 9.5-3.9 18.9-3.9 28.6a24.1 24.1 0 005.6 15.2 42.9 42.9 0 017.7 9.3c1.2 2.5 1.4 5.3 2.5 7.7a19.6 19.6 0 0011 9.4 70.6 70.6 0 0113.4 6.1c7.8 5.1 12.4 15 21.3 17.1a3.7 3.7 0 002.9 0 3.4 3.4 0 001.3-2.7A12.9 12.9 0 00329 282c-2.2-2.2-5.4-3.9-6.1-6.9s1.1-5.5 2.1-8.2c3.3-8.8-2.1-18.4-8.2-25.5s-13.3-14.2-14.8-23.3a56.2 56.2 0 01-.4-9.2 62.1 62.1 0 00-3.2-18.6 27.7 27.7 0 00-4.7-9c-1.9-2.3-4.4-4.1-6.4-6.3a87.4 87.4 0 01-7.2-11.7 35 35 0 00-28.5-16c-10.9 0-21.2 4.8-30.4 10.6a25.2 25.2 0 00-8.6 7.6c-3.9 6.1-2.7 14.3-5 21.2s-7.5 12.2-9.4 19a12.6 12.6 0 00-.3 6.1 26.7 26.7 0 002.8 6.2 47 47 0 013.4 15.7c.6 6.6.9 13.6-2.5 19.1a31.7 31.7 0 01-9.7 8.2 18.8 18.8 0 0013.5 4.2c7.4.3 15.9 0 20.5-5.8a20.9 20.9 0 003.1-14.2 60.9 60.9 0 00-3.3-15.8c-2.5-7.2-6.4-13.9-7.5-21.5a20.1 20.1 0 013.9-15.5c1.4-1.7 3.8-2.6 5-4.5s1.1-5 4.5-6.3z" fill="#464353"/><g opacity=".1"><path d="M200.7 217.5a47 47 0 013.4 15.7c0 1.7.3 3.5.3 5.2a54.3 54.3 0 000-11.4 46.4 46.4 0 00-3.4-15.5 42.2 42.2 0 01-2.8-6.1 14 14 0 00-.2 6.1 32.4 32.4 0 002.7 6zM226.2 253.3c-4.6 5.7-13.1 6.1-20.4 5.8a28.1 28.1 0 01-9.2-1.4c-1.5 1.2-3.1 2.4-4.6 3.4a18.8 18.8 0 0013.5 4.2c7.3.3 15.9 0 20.4-5.8a18.9 18.9 0 003.2-13.2 14.4 14.4 0 01-2.9 7zM323.1 268.8a11.2 11.2 0 00.5 1.3c.5-1.1 1-2.3 1.4-3.4a15.5 15.5 0 00.8-8 10.5 10.5 0 01-.5 1.9c-1 2.7-2.8 5.4-2.2 8.2zM271.1 203.5a26.8 26.8 0 000-8 19.2 19.2 0 00-15.3-14.9c-2.1-.4-4.1-.4-6.1-.8a46.2 46.2 0 01-8.7-3.4 13.1 13.1 0 00-9.1-1c-3.5 1.3-3.1 3.9-4.6 6.5s-3.7 2.7-5.1 4.4a20.9 20.9 0 00-3.9 14.3 18.1 18.1 0 013.7-8.1c1.3-1.7 3.8-2.6 5-4.4s1.1-5.2 4.6-6.5a13 13 0 019.1.9 46.6 46.6 0 008.7 3.5c2 .4 3.9.4 6.1.7a19.1 19.1 0 0115.3 15zM331.4 288.8a3.4 3.4 0 01-2.8 0c-9-2.1-13.7-12-21.4-17.2a77.1 77.1 0 00-13.4-6 20.2 20.2 0 01-11-9.3c-1.1-2.6-1.3-5.4-2.4-7.8a49.4 49.4 0 00-7.8-9.3 24.2 24.2 0 01-5.6-13.6 35.5 35.5 0 00-.3 4.6 23.3 23.3 0 005.8 15.3 42.9 42.9 0 017.7 9.3c1.2 2.5 1.4 5.3 2.5 7.7a19.6 19.6 0 0011 9.4 70.6 70.6 0 0113.4 6.1c7.8 5.1 12.4 15 21.3 17.1a3.7 3.7 0 002.9 0 3.4 3.4 0 001.3-2.7 13.2 13.2 0 00-.2-4.4 2.5 2.5 0 01-1 .8z"/></g><path fill="#edf2f7" d="M114.8 158.2h49.8v71.19h-49.8z"/><path fill="#e2e8f0" d="M121.9 168.4h35.6v50.84h-35.6z"/><path fill="#edf2f7" d="M328.3 168.9h81.8v42.71h-81.8z"/><path fill="#e2e8f0" d="M339 174.5h60.5v31.58H339z"/></svg>