<svg id="Layer_1" data-name="Layer 1" xmlns="http://www.w3.org/2000/svg" viewBox="0 0 600 600"><title>collaborate</title><path d="M445.7,65.2c42.2,36.6,73,81.8,82.1,129s-3.1,96-2.6,152.5,14,120.2-5.8,170.3-73.1,86.5-125.7,82.7S289.1,552,231.5,532.4,110.8,518,81.6,490.3,57,402.2,65.8,351.5,87.8,260,101,214.2s26.3-96.7,58.8-137.8,84.1-72.3,137-74S403.4,28.6,445.7,65.2Z" fill="#cbd5e0"/><path d="M16.1,93.3H583.9c2.5,0,4.5,2.5,4.5,5.6V477.7c0,3.1-2,5.6-4.5,5.6H16.1c-2.5,0-4.5-2.5-4.5-5.6V98.9C11.6,95.8,13.6,93.3,16.1,93.3Z" fill="#edf2f7"/><path d="M588.4,98.9v18.7H11.6V98.9c0-3.1,2-5.6,4.5-5.6H583.9c2.5,0,4.5,2.5,4.5,5.6Z" fill="#050505"/><ellipse cx="546.2" cy="105.7" rx="3.6" ry="4.5" fill="#cbd5e0" opacity="0.8" style="isolation:isolate"/><ellipse cx="556.6" cy="105.5" rx="3.8" ry="4.7" fill="#cbd5e0" opacity="0.8" style="isolation:isolate"/><ellipse cx="565.9" cy="105.7" rx="3.6" ry="4.5" fill="#cbd5e0" opacity="0.8" style="isolation:isolate"/><path d="M41.7,142.8H313.4c2.4,0,4.4,2.5,4.4,5.5V298.8c0,3-2,5.5-4.4,5.5H41.7c-2.5,0-4.5-2.5-4.5-5.5V148.3C37.2,145.3,39.2,142.8,41.7,142.8Z" fill="#fff"/><path d="M38.3,353.5H316.7c.6,0,1.1.7,1.1,1.4v8.4a1.2,1.2,0,0,1-1.1,1.3H38.3a1.2,1.2,0,0,1-1.1-1.3v-8.4C37.2,354.2,37.7,353.5,38.3,353.5Z" fill="#fff"/><path d="M38.3,376.9H316.7c.6,0,1.1.7,1.1,1.4v8.4a1.2,1.2,0,0,1-1.1,1.3H38.3a1.2,1.2,0,0,1-1.1-1.3v-8.4C37.2,377.6,37.7,376.9,38.3,376.9Z" fill="#fff"/><path d="M38.3,400.3H316.7a1.3,1.3,0,0,1,1.1,1.4V410a1.3,1.3,0,0,1-1.1,1.4H38.3a1.3,1.3,0,0,1-1.1-1.4v-8.3A1.3,1.3,0,0,1,38.3,400.3Z" fill="#fff"/><path d="M38.3,423.7H316.7a1.3,1.3,0,0,1,1.1,1.4v8.3a1.3,1.3,0,0,1-1.1,1.4H38.3a1.3,1.3,0,0,1-1.1-1.4v-8.3A1.3,1.3,0,0,1,38.3,423.7Z" fill="#fff"/><path d="M38.3,447.1H316.7a1.3,1.3,0,0,1,1.1,1.4v8.3a1.3,1.3,0,0,1-1.1,1.4H38.3a1.3,1.3,0,0,1-1.1-1.4v-8.3A1.3,1.3,0,0,1,38.3,447.1Z" fill="#fff"/><path d="M354.9,142.8H551.6c2.4,0,4.4,2.5,4.4,5.5V452.7c0,3-2,5.5-4.4,5.5H354.9c-2.5,0-4.5-2.5-4.5-5.5V148.3C350.4,145.3,352.4,142.8,354.9,142.8Z" fill="#fff"/><path d="M363,179.1h34.8c.7,0,1.1.6,1.1,1.4v8.3c0,.8-.4,1.4-1.1,1.4H363a1.3,1.3,0,0,1-1.1-1.4v-8.3A1.3,1.3,0,0,1,363,179.1Z" fill="#e2e8f0" opacity="0.2" style="isolation:isolate"/><path d="M363,200.1H545.2a1.2,1.2,0,0,1,1.1,1.3v8.4a1.2,1.2,0,0,1-1.1,1.3H363a1.2,1.2,0,0,1-1.1-1.3v-8.4A1.2,1.2,0,0,1,363,200.1Z" fill="#edf2f7"/><path d="M363,221H545.2a1.3,1.3,0,0,1,1.1,1.4v8.3a1.3,1.3,0,0,1-1.1,1.4H363a1.3,1.3,0,0,1-1.1-1.4v-8.3A1.3,1.3,0,0,1,363,221Z" fill="#edf2f7"/><path d="M363,262.8h34.8a1.3,1.3,0,0,1,1.1,1.4v8.4a1.2,1.2,0,0,1-1.1,1.3H363a1.2,1.2,0,0,1-1.1-1.3v-8.4C361.9,263.5,362.4,262.8,363,262.8Z" fill="#e2e8f0" opacity="0.2" style="isolation:isolate"/><path d="M363,283.8H545.2a1.3,1.3,0,0,1,1.1,1.4v8.3a1.3,1.3,0,0,1-1.1,1.4H363a1.3,1.3,0,0,1-1.1-1.4v-8.3A1.3,1.3,0,0,1,363,283.8Z" fill="#edf2f7"/><path d="M363,304.7H545.2a1.3,1.3,0,0,1,1.1,1.4v8.3a1.3,1.3,0,0,1-1.1,1.4H363a1.3,1.3,0,0,1-1.1-1.4v-8.3A1.3,1.3,0,0,1,363,304.7Z" fill="#edf2f7"/><path d="M363,346.6h34.8a1.2,1.2,0,0,1,1.1,1.3v8.4a1.3,1.3,0,0,1-1.1,1.4H363c-.6,0-1.1-.7-1.1-1.4v-8.4A1.2,1.2,0,0,1,363,346.6Z" fill="#e2e8f0" opacity="0.2" style="isolation:isolate"/><path d="M363,367.5H545.2a1.3,1.3,0,0,1,1.1,1.4v8.3a1.3,1.3,0,0,1-1.1,1.4H363a1.3,1.3,0,0,1-1.1-1.4v-8.3A1.3,1.3,0,0,1,363,367.5Z" fill="#edf2f7"/><path d="M363,388.4H545.2a1.3,1.3,0,0,1,1.1,1.4v8.3a1.3,1.3,0,0,1-1.1,1.4H363a1.3,1.3,0,0,1-1.1-1.4v-8.3A1.3,1.3,0,0,1,363,388.4Z" fill="#edf2f7"/><path d="M507.7,430.3h34.8a1.3,1.3,0,0,1,1.1,1.4V440a1.3,1.3,0,0,1-1.1,1.4H507.7c-.7,0-1.1-.6-1.1-1.4v-8.3C506.6,430.9,507,430.3,507.7,430.3Z" fill="#050505"/><path d="M281.9,315.8h34.8a1.3,1.3,0,0,1,1.1,1.4v8.3a1.3,1.3,0,0,1-1.1,1.4H281.9c-.7,0-1.1-.6-1.1-1.4v-8.3C280.8,316.4,281.2,315.8,281.9,315.8Z" fill="#050505"/><path d="M90.6,335.8h0Z" opacity="0.1" style="isolation:isolate"/></svg>