<svg xmlns="http://www.w3.org/2000/svg" viewBox="0 0 600 600"><path d="M445.7 65.2c42.2 36.6 73 81.8 82.1 129s-3.1 96-2.6 152.5 14 120.2-5.8 170.3-73.1 86.5-125.7 82.7-104.6-47.7-162.2-67.3S110.8 518 81.6 490.3 57 402.2 65.8 351.5s22-91.5 35.2-137.3 26.3-96.7 58.8-137.8 84.1-72.3 137-74 106.6 26.2 148.9 62.8z" fill="#cbd5e0"/><path d="M16.1 93.3h567.8c2.5 0 4.5 2.5 4.5 5.6v378.8c0 3.1-2 5.6-4.5 5.6H16.1c-2.5 0-4.5-2.5-4.5-5.6V98.9c0-3.1 2-5.6 4.5-5.6z" fill="#edf2f7"/><path d="M588.4 98.9v18.7H11.6V98.9c0-3.1 2-5.6 4.5-5.6h567.8c2.5 0 4.5 2.5 4.5 5.6z" fill="#050505"/><ellipse cx="546.2" cy="105.7" rx="3.6" ry="4.5" fill="#cbd5e0" opacity=".8" style="isolation:isolate"/><ellipse cx="556.6" cy="105.5" rx="3.8" ry="4.7" fill="#cbd5e0" opacity=".8" style="isolation:isolate"/><ellipse cx="565.9" cy="105.7" rx="3.6" ry="4.5" fill="#cbd5e0" opacity=".8" style="isolation:isolate"/><path d="M41.7 142.8h271.7c2.4 0 4.4 2.5 4.4 5.5v150.5c0 3-2 5.5-4.4 5.5H41.7c-2.5 0-4.5-2.5-4.5-5.5V148.3c0-3 2-5.5 4.5-5.5zM38.3 353.5h278.4c.6 0 1.1.7 1.1 1.4v8.4a1.2 1.2 0 01-1.1 1.3H38.3a1.2 1.2 0 01-1.1-1.3v-8.4c0-.7.5-1.4 1.1-1.4zM38.3 376.9h278.4c.6 0 1.1.7 1.1 1.4v8.4a1.2 1.2 0 01-1.1 1.3H38.3a1.2 1.2 0 01-1.1-1.3v-8.4c0-.7.5-1.4 1.1-1.4zM38.3 400.3h278.4a1.3 1.3 0 011.1 1.4v8.3a1.3 1.3 0 01-1.1 1.4H38.3a1.3 1.3 0 01-1.1-1.4v-8.3a1.3 1.3 0 011.1-1.4zM38.3 423.7h278.4a1.3 1.3 0 011.1 1.4v8.3a1.3 1.3 0 01-1.1 1.4H38.3a1.3 1.3 0 01-1.1-1.4v-8.3a1.3 1.3 0 011.1-1.4zM38.3 447.1h278.4a1.3 1.3 0 011.1 1.4v8.3a1.3 1.3 0 01-1.1 1.4H38.3a1.3 1.3 0 01-1.1-1.4v-8.3a1.3 1.3 0 011.1-1.4zM354.9 142.8h196.7c2.4 0 4.4 2.5 4.4 5.5v304.4c0 3-2 5.5-4.4 5.5H354.9c-2.5 0-4.5-2.5-4.5-5.5V148.3c0-3 2-5.5 4.5-5.5z" fill="#fff"/><path d="M363 179.1h34.8c.7 0 1.1.6 1.1 1.4v8.3c0 .8-.4 1.4-1.1 1.4H363a1.3 1.3 0 01-1.1-1.4v-8.3a1.3 1.3 0 011.1-1.4z" fill="#e2e8f0" opacity=".2" style="isolation:isolate"/><path d="M363 200.1h182.2a1.2 1.2 0 011.1 1.3v8.4a1.2 1.2 0 01-1.1 1.3H363a1.2 1.2 0 01-1.1-1.3v-8.4a1.2 1.2 0 011.1-1.3zM363 221h182.2a1.3 1.3 0 011.1 1.4v8.3a1.3 1.3 0 01-1.1 1.4H363a1.3 1.3 0 01-1.1-1.4v-8.3a1.3 1.3 0 011.1-1.4z" fill="#edf2f7"/><path d="M363 262.8h34.8a1.3 1.3 0 011.1 1.4v8.4a1.2 1.2 0 01-1.1 1.3H363a1.2 1.2 0 01-1.1-1.3v-8.4c0-.7.5-1.4 1.1-1.4z" fill="#e2e8f0" opacity=".2" style="isolation:isolate"/><path d="M363 283.8h182.2a1.3 1.3 0 011.1 1.4v8.3a1.3 1.3 0 01-1.1 1.4H363a1.3 1.3 0 01-1.1-1.4v-8.3a1.3 1.3 0 011.1-1.4zM363 304.7h182.2a1.3 1.3 0 011.1 1.4v8.3a1.3 1.3 0 01-1.1 1.4H363a1.3 1.3 0 01-1.1-1.4v-8.3a1.3 1.3 0 011.1-1.4z" fill="#edf2f7"/><path d="M363 346.6h34.8a1.2 1.2 0 011.1 1.3v8.4a1.3 1.3 0 01-1.1 1.4H363c-.6 0-1.1-.7-1.1-1.4v-8.4a1.2 1.2 0 011.1-1.3z" fill="#e2e8f0" opacity=".2" style="isolation:isolate"/><path d="M363 367.5h182.2a1.3 1.3 0 011.1 1.4v8.3a1.3 1.3 0 01-1.1 1.4H363a1.3 1.3 0 01-1.1-1.4v-8.3a1.3 1.3 0 011.1-1.4zM363 388.4h182.2a1.3 1.3 0 011.1 1.4v8.3a1.3 1.3 0 01-1.1 1.4H363a1.3 1.3 0 01-1.1-1.4v-8.3a1.3 1.3 0 011.1-1.4z" fill="#edf2f7"/><path d="M507.7 430.3h34.8a1.3 1.3 0 011.1 1.4v8.3a1.3 1.3 0 01-1.1 1.4h-34.8c-.7 0-1.1-.6-1.1-1.4v-8.3c0-.8.4-1.4 1.1-1.4zM281.9 315.8h34.8a1.3 1.3 0 011.1 1.4v8.3a1.3 1.3 0 01-1.1 1.4h-34.8c-.7 0-1.1-.6-1.1-1.4v-8.3c0-.8.4-1.4 1.1-1.4z" fill="#050505"/><path d="M90.6 335.8z" opacity=".1" style="isolation:isolate"/></svg>