<svg xmlns="http://www.w3.org/2000/svg" viewBox="0 0 804.6 615.5"><path d="M622.3,580.4c-22-4.3-47.8-10.2-49.8-18.2s19.5-18.1,48.2-21.9,64.5-1.6,98.1,1.7,65.1,7.7,73.1,14.9-7.2,17.1-29.6,23.2-51.7,8.1-75.6,7.8S644.4,584.7,622.3,580.4Z" fill="#cbd5e0"/><polyline points="651.1 538.7 652.4 507 629.7 507.1 625.6 528.1" fill="#ffd9d9"/><path d="M69,263c-11,3.9-21.3,13.2-24.1,26.2-3.1,15,4.1,30,5.2,45.4,3.4,50.2-58,85.7-49.2,135.1,3.4,19.6,17.5,34,31.3,46,22.2,19,46.8,35.8,74,40.6,41.4,7.2,84.6-14,124.8-.6,32.4,10.8,57.2,42.5,89.4,54.2,24.5,8.9,50.9,5.4,76.4,1.8,13.7-1.9,28.1-4.2,39.2-13.8,20.6-17.8,21.9-53.1,35.6-78.4,21.3-39,68-46.7,107.2-39.1s77.2,26.2,116.8,24.7c8.5-.3,17.2-1.6,24.6-6.5,9-5.9,15.1-16.3,20.4-26.5,33.6-64.5,52-138.1,53.5-213.4.2-13-.2-26.5-5.4-37.9-6.6-14.5-19.8-23.1-33-28.9-31.5-14-66.4-16.3-97.4-32.1s-54-42-79.9-64.9c-51.8-45.5-111.8-76.6-175.5-91C388,.5,372.5-1.9,357.7,2c-17.1,4.5-31.9,16.9-45.1,30.2-35.2,35.6-63.4,79.4-95.9,118.4a586.2,586.2,0,0,1-72.9,73.2c-12,10.1-24.8,22.1-38.1,29.5S81.9,258.4,69,263Z" fill="#edf2f7"/><path d="M632.2,145.5l-8.4,35.6s-12.1,9.8-20.7-.2-13.9-36.8-14.5-42.6-8.1-35.3-11-35.3-31.5,1.9-34.9-10c-2.6-9.6,29.4-5,42.2-2.9a9.8,9.8,0,0,1,7.2,5.7l19.6,47S622.1,130.7,632.2,145.5Z" fill="#ffd9d9"/><path d="M696.7,63.3s-12.4,34.9,3.4,47.3-56.5,15.8-56.5,15.8l9.8-9.3s7-27.5,2.2-50.5Z" fill="#ffd9d9"/><polygon points="697.2 514.3 705.6 544.4 728.2 537.4 722.2 507.7 697.2 514.3" fill="#ffd9d9"/><path d="M729.7,153.2s-15.3,9.5-40.2,0c0,0-27.2-10-35.8-29.7s43.5,3.4,43.5,3.4,11,0,14.3-2.4S738.3,142.6,729.7,153.2Z" opacity="0.1" style="isolation:isolate"/><path d="M612.6,332.3l9.5,61.8V423a47.4,47.4,0,0,0,1.8,13c3.1,10.9.5,48.9-.9,67-.4,4.1-.6,6.1-.7,8.8a1.4,1.4,0,0,0,1.4,1.4h.3c7.1-1.3,24.6,1.2,29.4,1.9a1.4,1.4,0,0,0,1.6-1l2.3-4.1,2-6.3c.1-.1.2-.3.4-.4,5.3-5.7.7-74.3-.3-90.3-.6-11.1,4.8-47,8.2-68.5l2.3-13.9h0a1.6,1.6,0,0,1,1.7-1.3,1.3,1.3,0,0,1,1,.6,2.5,2.5,0,0,0,.4.7,31.7,31.7,0,0,1,2.1,4.1c9.6,22.2,14,85.7,14,91.4v59.7a60.1,60.1,0,0,0,2.6,17.4,76.1,76.1,0,0,1,2.6,12.6c.4,2.2.6,4.3.8,5.8a1.6,1.6,0,0,0,1.7,1.3l.5-.2c5.8-3.7,23.1-10.7,27.3-12.4a1.3,1.3,0,0,0,.8-1.3V410.3s1.5-39.3,5.8-78.2a128.5,128.5,0,0,0-5.5-52.6c-1.2-3.7-2.4-6.9-3.4-9.4s-2.1-4.8-2.6-5.8a1.6,1.6,0,0,0-1.3-.8H621.6c-1.6.3-2.2,3.3-3.4,7.9-.8,3-2.3,6.8-2.9,11-1.8,12.1-2.9,27.3-3.4,36A72,72,0,0,0,612.6,332.3Z" fill="#050505"/><path d="M655.1,68.1l41.1-3.4a99.9,99.9,0,0,0-4.3,19.5c-9.9,10.3-26.3,8.8-36.8-.9A35.4,35.4,0,0,0,655.1,68.1Z" opacity="0.1" style="isolation:isolate"/><path d="M680.4,109.7s12.7-3.1,12.7-6.5l8.2,4.7a12.5,12.5,0,0,0,6.5,1.8h19.7a13.3,13.3,0,0,1,10.6,5.3c4.5,6.4,8.6,19-2.2,40.6-17.2,34.4-11.6,118.3-11.6,118.3s-59.2-10.3-109.9,6.4c0,0,10.4-38.1,7.6-59.6s2-51.2,2-51.2l4.3-18.2s-.2-17-17.9-8.4c0,0-2.6-23.9,14.8-27.3a3.3,3.3,0,0,1,1.4-.1c3.7.4,21,1.6,26.6-7.8C653.2,107.7,667,115.9,680.4,109.7Z" fill="#cbd5e0"/><circle cx="673.5" cy="64.5" r="26.3" fill="#ffd9d9"/><path d="M729.7,151.3s-15.3,9.5-40.2,0c0,0-27.2-10-35.8-29.7S625,80.5,625,80.5s-34.9-13.4-33-26.8,40.2,14.8,40.2,14.8l15.3,14.4,49.7,42s11,0,14.3-2.4S738.3,140.7,729.7,151.3Z" fill="#ffd9d9"/><path d="M729.5,154.4s-12.9-33.5-23-34.5,19.1,0,19.1,0l9.6,17.3Z" opacity="0.1" style="isolation:isolate"/><path d="M730.4,154.4s-12.9-33.5-22.9-34.5,19.1,0,19.1,0l9.6,17.3Z" fill="#cbd5e0"/><path d="M664,215.9s-10.5-3.4-13.4,0-27.4,11.2-27.4,11.2" opacity="0.1" style="isolation:isolate"/><rect x="542.5" y="84.6" width="51.2" height="1.08" fill="#8ed16f"/><rect x="542.5" y="85.6" width="51.2" height="1.08" fill="#8ed16f"/><rect x="542.5" y="85.6" width="51.2" height="1.08" opacity="0.1" style="isolation:isolate"/><rect x="542.5" y="86.7" width="51.2" height="1.08" fill="#8ed16f"/><rect x="542.5" y="87.8" width="51.2" height="1.08" fill="#8ed16f"/><rect x="542.5" y="87.8" width="51.2" height="1.08" opacity="0.1" style="isolation:isolate"/><rect x="542.5" y="88.9" width="51.2" height="1.08" fill="#8ed16f"/><rect x="542.5" y="89.9" width="51.2" height="1.08" fill="#8ed16f"/><rect x="542.5" y="89.9" width="51.2" height="1.08" opacity="0.1" style="isolation:isolate"/><rect x="542.5" y="91" width="51.2" height="1.08" fill="#8ed16f"/><rect x="542.5" y="92.1" width="51.2" height="1.08" fill="#8ed16f"/><rect x="542.5" y="92.1" width="51.2" height="1.08" opacity="0.1" style="isolation:isolate"/><rect x="542.5" y="76" width="51.2" height="1.08" fill="#8ed16f"/><rect x="598.6" y="42.1" width="1.1" height="51.15" transform="translate(163.6 484.7) rotate(-50.2)" fill="#8ed16f"/><rect x="562.7" y="25" width="1.1" height="51.15" transform="translate(163.8 450.9) rotate(-50.2)" fill="#8ed16f"/><rect x="542.5" y="77" width="51.2" height="1.08" fill="#8ed16f"/><rect x="542.5" y="77" width="51.2" height="1.08" opacity="0.1" style="isolation:isolate"/><rect x="542.5" y="78.1" width="51.2" height="1.08" fill="#8ed16f"/><rect x="542.5" y="79.2" width="51.2" height="1.08" fill="#8ed16f"/><rect x="542.5" y="79.2" width="51.2" height="1.08" opacity="0.1" style="isolation:isolate"/><rect x="542.5" y="80.3" width="51.2" height="1.08" fill="#8ed16f"/><rect x="542.5" y="81.3" width="51.2" height="1.08" fill="#8ed16f"/><rect x="542.5" y="81.3" width="51.2" height="1.08" opacity="0.1" style="isolation:isolate"/><rect x="542.5" y="82.4" width="51.2" height="1.08" fill="#8ed16f"/><rect x="542.5" y="83.5" width="51.2" height="1.08" fill="#8ed16f"/><rect x="542.5" y="83.5" width="51.2" height="1.08" opacity="0.1" style="isolation:isolate"/><rect x="530.2" y="100.9" width="36.3" height="18.64" transform="translate(340 629.3) rotate(-79.5)" fill="#8ed16f"/><ellipse cx="548.7" cy="110.4" rx="7.7" ry="3.8" transform="translate(340.1 629.8) rotate(-79.5)" fill="#8ed16f"/><ellipse cx="548.7" cy="110.4" rx="7.7" ry="3.8" transform="translate(340.1 629.8) rotate(-79.5)" opacity="0.1" style="isolation:isolate"/><rect x="533.3" y="176.3" width="36.3" height="18.64" transform="translate(268.4 694) rotate(-79.5)" fill="#8ed16f"/><ellipse cx="551.7" cy="185.8" rx="7.7" ry="3.8" transform="translate(268.4 694.4) rotate(-79.5)" fill="#8ed16f"/><ellipse cx="551.7" cy="185.8" rx="7.7" ry="3.8" transform="translate(268.4 694.4) rotate(-79.5)" opacity="0.1" style="isolation:isolate"/><rect x="464.8" y="196.3" width="36.3" height="18.64" transform="translate(-41.7 190.4) rotate(-21.4)" fill="#8ed16f"/><ellipse cx="483" cy="205.9" rx="7.7" ry="3.8" transform="translate(-41.8 190.4) rotate(-21.4)" opacity="0.1" style="isolation:isolate"/><rect x="475" y="15.2" width="18.6" height="36.33" transform="translate(224.6 443.6) rotate(-61.6)" fill="#8ed16f"/><ellipse cx="487.4" cy="34" rx="3.8" ry="7.7" transform="translate(224.2 445.7) rotate(-61.4)" fill="#8ed16f"/><ellipse cx="487.4" cy="34" rx="3.8" ry="7.7" transform="translate(224.2 445.7) rotate(-61.4)" opacity="0.1" style="isolation:isolate"/><rect x="405" y="338.6" width="18.6" height="36.33" transform="translate(-96.6 551.5) rotate(-61.6)" fill="#8ed16f"/><ellipse cx="414.1" cy="357" rx="3.8" ry="7.7" transform="translate(-96.9 551.5) rotate(-61.6)" fill="#8ed16f"/><ellipse cx="414.1" cy="357" rx="3.8" ry="7.7" transform="translate(-96.9 551.5) rotate(-61.6)" opacity="0.1" style="isolation:isolate"/><rect x="362" y="71.7" width="18.6" height="36.33" transform="translate(115.6 373.7) rotate(-61.6)" fill="#8ed16f"/><ellipse cx="371.2" cy="90.1" rx="3.8" ry="7.6" transform="translate(115.4 373.8) rotate(-61.6)" fill="#8ed16f"/><ellipse cx="371.2" cy="90.1" rx="3.8" ry="7.6" transform="translate(115.4 373.8) rotate(-61.6)" opacity="0.1" style="isolation:isolate"/><rect x="415.8" y="15.1" width="18.6" height="36.33" transform="translate(193.6 391.4) rotate(-61.6)" fill="#8ed16f"/><ellipse cx="424.9" cy="33.5" rx="3.8" ry="7.6" transform="translate(193.3 391.4) rotate(-61.6)" fill="#8ed16f"/><ellipse cx="424.9" cy="33.5" rx="3.8" ry="7.6" transform="translate(193.3 391.4) rotate(-61.6)" opacity="0.1" style="isolation:isolate"/><rect x="450.7" y="84.5" width="18.6" height="36.33" transform="translate(-8.4 50.3) rotate(-6.2)" fill="#8ed16f"/><ellipse cx="459.8" cy="102.7" rx="3.8" ry="7.6" transform="matrix(0.99, -0.11, 0.11, 0.99, -8.41, 50.26)" fill="#8ed16f"/><ellipse cx="459.8" cy="102.7" rx="3.8" ry="7.6" transform="matrix(0.99, -0.11, 0.11, 0.99, -8.41, 50.26)" opacity="0.1" style="isolation:isolate"/><rect x="577.7" y="282.4" width="18.6" height="36.33" transform="translate(-29 65.2) rotate(-6.2)" fill="#8ed16f"/><ellipse cx="586.8" cy="300.7" rx="3.8" ry="7.6" transform="translate(-29 65.1) rotate(-6.2)" fill="#8ed16f"/><ellipse cx="586.8" cy="300.7" rx="3.8" ry="7.6" transform="translate(-29 65.1) rotate(-6.2)" opacity="0.1" style="isolation:isolate"/><rect x="396.9" y="158.6" width="18.6" height="36.33" transform="translate(57.6 450) rotate(-61.6)" fill="#8ed16f"/><ellipse cx="406.2" cy="177" rx="3.8" ry="7.6" transform="translate(57.3 450.1) rotate(-61.6)" fill="#8ed16f"/><ellipse cx="406.2" cy="177" rx="3.8" ry="7.6" transform="translate(57.3 450.1) rotate(-61.6)" opacity="0.1" style="isolation:isolate"/><rect x="316.4" y="135.6" width="18.6" height="36.33" transform="translate(35.5 367.1) rotate(-61.6)" fill="#8ed16f"/><ellipse cx="328.2" cy="155.1" rx="3.8" ry="7.7" transform="translate(34.9 369) rotate(-61.4)" fill="#8ed16f"/><ellipse cx="328.2" cy="155.1" rx="3.8" ry="7.7" transform="translate(34.9 369) rotate(-61.4)" opacity="0.1" style="isolation:isolate"/><polygon points="284.8 158.8 130.4 304.1 130.4 518.2 439.2 518.2 439.2 304.1 284.8 158.8" fill="#050505"/><polygon points="437.6 513.5 131.9 513.5 131.9 303.8 284.8 161.4 437.6 303.8 437.6 513.5" fill="#cbd5e0"/><rect x="178.3" y="190.6" width="212.8" height="250.39" fill="#050505"/><rect x="181" y="192.7" width="207.5" height="248.3" fill="#fff"/><polygon points="131.9 303.8 284.8 408.7 131.9 513.5 131.9 303.8" fill="#e2e8f0"/><polygon points="437.6 303.8 284.8 408.7 437.6 513.5 437.6 303.8" fill="#e2e8f0"/><path d="M131.9,513.5,278.8,399.3a9.5,9.5,0,0,1,11.9,0L437.6,513.5Z" fill="#050505"/><path d="M131.9,513.5,278.8,404.2a10.1,10.1,0,0,1,11.9,0L437.6,513.5Z" fill="#e2e8f0"/><rect x="212.5" y="240.7" width="43.3" height="7.3" fill="#050505"/><rect x="212.5" y="260" width="144.5" height="7.3" fill="#cbd5e0"/><rect x="212.5" y="272.5" width="144.5" height="7.3" fill="#cbd5e0"/><rect x="212.5" y="285" width="144.5" height="7.3" fill="#cbd5e0"/><rect x="212.5" y="297.5" width="144.5" height="7.3" fill="#cbd5e0"/><rect x="212.5" y="310.1" width="65.7" height="7.3" fill="#cbd5e0"/><rect x="291.3" y="310.1" width="65.7" height="7.3" fill="#cbd5e0"/><path d="M62,42.1a11,11,0,0,0-14.2,1.4A11.1,11.1,0,0,0,48.2,59L61.8,72.5a2.2,2.2,0,0,0,3.2,0h0L78.6,58.9a11.1,11.1,0,0,0,.3-15.5,11,11,0,0,0-14.2-1.3A2.2,2.2,0,0,1,62,42.1Z" fill="#050505"/><path d="M146.7,163.8a5.3,5.3,0,0,0-6.7.7,5.1,5.1,0,0,0,.1,7.2h.1l6.4,6.4a1.1,1.1,0,0,0,1.5,0h0l6.4-6.5a5.3,5.3,0,0,0,.2-7.3,5.2,5.2,0,0,0-6.7-.6A1.1,1.1,0,0,1,146.7,163.8Z" fill="#e2e8f0"/><rect x="613.2" y="2.4" width="3" height="17" fill="#cbd5e0"/><rect x="606.2" y="9.4" width="17" height="3" fill="#cbd5e0"/><rect x="271.5" y="25.6" width="3" height="17" fill="#e2e8f0"/><rect x="264.5" y="32.6" width="17" height="3" fill="#e2e8f0"/><path d="M186.6,63.4a3.5,3.5,0,0,1-2-4.4c0-.2.1-.3.1-.4h0a1.9,1.9,0,0,0-1.8-2h0a1.7,1.7,0,0,0-1.5.7h0a.8.8,0,0,0-.2.4,3.7,3.7,0,0,1-4.5,2h-.4a1.9,1.9,0,0,0-2,1.7,2.1,2.1,0,0,0,.8,1.6h0l.3.2a3.6,3.6,0,0,1,2.1,4.4.6.6,0,0,0-.1.4h0a1.9,1.9,0,0,0,1.7,2,2.1,2.1,0,0,0,1.6-.8h0l.2-.3a3.7,3.7,0,0,1,4.5-2h.4a1.9,1.9,0,0,0,1.9-1.8,1.7,1.7,0,0,0-.7-1.6h-.4Z" fill="#e2e8f0"/><path d="M57.2,245.3a3.6,3.6,0,0,1-2.1-4.4.9.9,0,0,0,.1-.5h0a1.8,1.8,0,0,0-1.7-1.9h0a2,2,0,0,0-1.6.7h0l-.2.4a3.7,3.7,0,0,1-4.5,2h-.4a1.8,1.8,0,0,0-2,1.6,1.8,1.8,0,0,0,.8,1.7h0l.4.2a3.5,3.5,0,0,1,2,4.4v.4h0a2,2,0,0,0,1.8,2,2.1,2.1,0,0,0,1.6-.8h0l.2-.3a3.5,3.5,0,0,1,4.4-2h.4a1.9,1.9,0,0,0,1.9-1.8,1.7,1.7,0,0,0-.7-1.6h-.4Z" fill="#e2e8f0"/><path d="M765.5,29.3a3.9,3.9,0,0,1-2.1-4.5.6.6,0,0,0,.1-.4h0a1.8,1.8,0,0,0-1.6-2,1.8,1.8,0,0,0-1.7.8h0l-.2.4a3.5,3.5,0,0,1-4.4,2h-.4a1.9,1.9,0,0,0-2,1.7,1.7,1.7,0,0,0,.7,1.6h0l.4.2a3.7,3.7,0,0,1,2,4.5V34h0a1.8,1.8,0,0,0,1.6,2,1.8,1.8,0,0,0,1.7-.8h0c.1-.1.1-.2.2-.4a3.5,3.5,0,0,1,4.4-2h.4a1.9,1.9,0,0,0,2-1.7,2.1,2.1,0,0,0-.8-1.6h0Z" fill="#e2e8f0"/><path d="M707.3,529.4s-5.7-10-6.6-4.4-8.6,31.4-2.6,33,75.2,9.6,74.1,1.5-17.5-16.4-17.5-16.4-28.8-27.4-31.9-23a14.2,14.2,0,0,1-4.8,5.8Z" fill="#050505"/><path d="M634.6,517.9s-7.4,0-8,4l-9.3,27.2s-12,27.2,6,29.2,24.5-11.3,24.5-15.9a77.8,77.8,0,0,1,2-17.3c.7-1.3,4-9.3,2-10.6a37.2,37.2,0,0,1-6-10.6S641.9,515.9,634.6,517.9Z" fill="#050505"/><path d="M652.2,48.5a5.8,5.8,0,0,1-4.5.2c-1.3-.4-2.9-1.9-2.4-3.2l1.8-.3-1.8-3.3,2.5-.5-.6-3.5,2.5-.4-1.9-3.9a60.4,60.4,0,0,1,28.1-8.3,25,25,0,0,1,24.6,12.1,29.5,29.5,0,0,1,1.8,14.7,66.7,66.7,0,0,1-7.5,27.8c-.7-4.1-3.9-7.8-4.6-11.9a31,31,0,0,0-1.5-5.2,24.6,24.6,0,0,0-7.7-7.7,33.1,33.1,0,0,1-3.8-7.2c-1.2-3.4-1.8-2.7-5.5-2.1Z" fill="#4c3b30"/></svg>