<svg  xmlns="http://www.w3.org/2000/svg" viewBox="0 0 24 24"><path d="M12,24A12,12,0,1,1,24,12,12,12,0,0,1,12,24ZM22.1,13.6a15.8,15.8,0,0,0-6.4-.4,39.2,39.2,0,0,1,2,7.3,9.9,9.9,0,0,0,4.4-6.9ZM16,21.5a34.4,34.4,0,0,0-2.2-7.8h-.1a14.1,14.1,0,0,0-8,6.4A9.8,9.8,0,0,0,12,22.3a10.6,10.6,0,0,0,4-.8ZM4.4,18.9a15.8,15.8,0,0,1,8.3-6.8h.4a14.2,14.2,0,0,0-.8-1.8A36.2,36.2,0,0,1,1.8,11.7V12a10.7,10.7,0,0,0,2.6,6.9ZM2,9.9a41.4,41.4,0,0,0,9.4-1.2,57.7,57.7,0,0,0-3.8-6A10.3,10.3,0,0,0,2,9.9ZM9.6,2.1a47.6,47.6,0,0,1,3.8,6,12.3,12.3,0,0,0,5.4-3.7A9.8,9.8,0,0,0,12,1.8L9.6,2ZM19.9,5.5a13.5,13.5,0,0,1-5.7,4.1,10.1,10.1,0,0,1,.7,1.5c.1.1.1.3.2.5a29.9,29.9,0,0,1,7.2.3,10.5,10.5,0,0,0-2.4-6.4Z" fill="#bec0c2"/></svg>