<svg xmlns="http://www.w3.org/2000/svg" viewBox="0 0 248.8 231.8"><g id="blob-shape"><path id="Path_18" data-name="Path 18" d="M108.9,223c41.1-8.9,67.8-19.7,106.3-40s31.9-50.4,27.7-88.3c-3.9-36,24.8-51.1-17.6-75.2s-79.1-26-112-5S75.1,58.3,51.1,106.3-8.4,200,1.8,219.3,67.7,231.8,108.9,223Z" fill="#edf2f7"/></g><g id="blob-shape_3_2" data-name="blob-shape 3 2"><path id="Path_18-2" data-name="Path 18-2" d="M73.1,206.4A46.5,46.5,0,0,1,59.3,204c-5.1-1.5-11.8-3.7-13.2-7.3s2.4-8.2,7.7-11.5,12-5,16.4-3.3,6.2,6.7,9.6,11.3,8.2,8.8,7,11S78.4,206.7,73.1,206.4Z" fill="#cbd5e0"/></g><rect id="Rectangle_18" data-name="Rectangle 18" x="79.5" y="115.9" width="84.7" height="55.84" fill="#cbd5e0"/><rect id="Rectangle_19" data-name="Rectangle 19" x="82" y="122.9" width="79.8" height="45.54" fill="#fff"/><rect id="Rectangle_20" data-name="Rectangle 20" x="79.5" y="115.8" width="84.7" height="3.7" fill="#050505"/><circle id="Ellipse_7" data-name="Ellipse 7" cx="156.1" cy="117.7" r="0.7" fill="#cbd5e0"/><circle id="Ellipse_8" data-name="Ellipse 8" cx="158.6" cy="117.7" r="0.7" fill="#cbd5e0"/><circle id="Ellipse_9" data-name="Ellipse 9" cx="161.1" cy="117.7" r="0.7" fill="#cbd5e0"/><rect id="Rectangle_21" data-name="Rectangle 21" x="89.2" y="127.6" width="20.5" height="36.09" fill="#cbd5e0"/><path id="Path_70" data-name="Path 70" d="M113.3,127.6h17.1v9.9H113.3Z" fill="#050505"/><rect id="Rectangle_23" data-name="Rectangle 23" x="113.3" y="140.3" width="17.1" height="10.69" fill="#cbd5e0"/><rect id="Rectangle_24" data-name="Rectangle 24" x="113.3" y="153.8" width="17.1" height="9.93" fill="#cbd5e0"/><rect id="Rectangle_25" data-name="Rectangle 25" x="134" y="127.6" width="20.5" height="15.73" fill="#cbd5e0"/><rect id="Rectangle_26" data-name="Rectangle 26" x="134" y="148" width="20.5" height="15.73" fill="#050505"/><path id="Path_30" data-name="Path 30" d="M122,132.1h-.3l5.9-22.6h33.8v.3H127.8Z" fill="#050505"/><path id="Path_31" data-name="Path 31" d="M164.2,112.5a2.9,2.9,0,0,1-2.9-2.9h0a2.9,2.9,0,0,1,5.8,0h0a2.9,2.9,0,0,1-2.8,3h-.1Zm0-5.7a2.7,2.7,0,1,0,2.7,2.7h0A2.7,2.7,0,0,0,164.2,106.8Z" fill="#3f3d56"/><path id="Path_34" data-name="Path 34" d="M164.2,108.4a1.1,1.1,0,0,1,1.1,1.1h0a1.1,1.1,0,1,1-2.2,0h0A1.1,1.1,0,0,1,164.2,108.4Z" fill="#050505"/><path id="Path_32" data-name="Path 32" d="M138.8,178.4H105v-.3h33.6l5.8-22.4h.3Z" fill="#050505"/><path id="Path_33" data-name="Path 33" d="M102.2,181.3a3.1,3.1,0,0,1-2.9-3,2.9,2.9,0,1,1,5.8,0h0A3.1,3.1,0,0,1,102.2,181.3Zm0-5.7a2.7,2.7,0,1,0,2.7,2.7h0A2.7,2.7,0,0,0,102.2,175.6Z" fill="#3f3d56"/><circle id="Ellipse_11" data-name="Ellipse 11" cx="102.2" cy="178.3" r="1.1" fill="#050505"/><path id="Polygon_1" data-name="Polygon 1" d="M49.8,95.4a.7.7,0,0,1,.2-.7h.4l9,2.8a.4.4,0,0,1,.3.6h0v.3l-7,6.5a.5.5,0,0,1-.7,0c-.1-.1-.1-.1-.1-.2Z" fill="#050505"/><path id="Polygon_2" data-name="Polygon 2" d="M105.6,196.5c0-.2,0-.3.2-.4h.5l.2.2,2.6,4.9a.6.6,0,0,1-.2.7h-.3l-5.5-.2a.6.6,0,0,1-.5-.6c0-.1,0-.2.1-.2Z" fill="#cbd5e0"/><path id="Polygon_3" data-name="Polygon 3" d="M179.1,75.8c.2-.1.5.1.7.3v.3l-2.3,14.8c-.1.3-.3.5-.6.4h-.3l-11.2-9.4a.6.6,0,0,1-.1-.7l.3-.2Z" fill="#cbd5e0"/><path d="M68.8,140.8l.3,3.3s-.1,8-.3,8.4a4.9,4.9,0,0,0-.4,1.1l-1.7-4.7v-7.8Z" fill="#ffd9d9"/><polygon points="54.1 186 54.4 189.3 57 189 56.4 185.7 54.1 186" fill="#ffd9d9"/><path d="M55.3,187.6s-1.1,0-1.2.6l-1.4,4.1s-1.8,4.1.9,4.4,3.7-1.7,3.7-2.4a11.5,11.5,0,0,1,.3-2.6c.1-.2.6-1.4.3-1.6a5.1,5.1,0,0,1-.9-1.6S56.4,187.3,55.3,187.6Z" fill="#050505"/><polygon points="69.9 187.8 70.7 192.4 73.8 190.3 72.6 187.4 69.9 187.8" fill="#ffd9d9"/><path d="M71.3,191.4s-1.3-1.3-1.2-.4,0,5.2,1,5.2,12-1.7,11.5-2.9-3.4-1.8-3.4-1.8-5.6-3-5.9-2.2a2.2,2.2,0,0,1-.5,1.1Z" fill="#050505"/><ellipse cx="63.8" cy="121.1" rx="4.1" ry="4.2" fill="#ffd9d9"/><path d="M61.7,123.9s.3,2.6-2.9,3.6,7.7,4.4,8.5,2.6a4.7,4.7,0,0,1-1.1-3.4,14.1,14.1,0,0,0,0-4.1Z" fill="#ffd9d9"/><path d="M68.8,131.6s1.9.1,2,1.1a22.9,22.9,0,0,1,0,3.7s1.2,3.8,0,4.7-4.4,1.1-4.4,1.1Z" fill="#cbd5e0"/><path d="M53.3,152.8l-1.6,2.9a5.7,5.7,0,0,1,.3,1.8,2.2,2.2,0,0,0,0,1.6c.1.3.7,7,.6,7.8s-.3,1.1-.2,1.4a1.9,1.9,0,0,1,.2.7v1.7l.4,15s-1.2.6.3,1.1,3.5.6,3.8-.9-.3-12.9,0-13.2.6.2.5-.6a5.9,5.9,0,0,1-.2-1.3l.2-.6L60,161l5.6,12.8L69,188.2s5.6,0,4.7-2S70,169.6,70,169.6a2.1,2.1,0,0,0,0-1.1c-.1-.5-.4-.5-.4-.8s-.2-.5-.2-.8-.1-1.2-.1-1.2l-1.1-9.9Z" fill="#050505"/><path d="M59.7,126.7s1.2,3.5,6.9,2.1c0,0,3.7,2.6,3.9,3.2s-2.9,8.6-2.9,8.6l-.3,6.1s2,4.6,1.7,7.6,1.8,3.1-.9,3.2-12-3-14.4-4.4c-.4-.2-1.2.7-1.1.5s0-1.1.4-1.4,1.2-11.3,1.2-11.3-.9-11.8.2-12.2Z" fill="#cbd5e0"/><polygon points="50.9 138.1 50.1 142.8 51.4 154.1 52.1 155.3 53.6 153.2 53.5 144.5 55.2 139.7 50.9 138.1" fill="#ffd9d9"/><path d="M54.8,128.9a2.1,2.1,0,0,0-2.2,1.4c-.5,1.6-4.3,7.5-3.5,8.1s6.5,2.9,6.7,2.7S54.8,128.9,54.8,128.9Z" fill="#cbd5e0"/><path d="M65.1,114.8a5.7,5.7,0,0,0-2.9-.1l-1.2.8c-.9.8-1.9,1.9-1.8,3.2h.3a1.8,1.8,0,0,1-.4.9c.1-.1.2.1.1.3l-.6,1.1a1.2,1.2,0,0,1,1.3,1.1h0c.3-1.4.8-3,2.2-3.6a3.7,3.7,0,0,1,2.1-.3,4.2,4.2,0,0,1,2,.4,1.4,1.4,0,0,1,.7,1.7.7.7,0,0,1,.7.6,1.4,1.4,0,0,1,0,.9c.3.3.7-.1.9-.4a4.8,4.8,0,0,0,.9-2.6,1.9,1.9,0,0,0-1.4-2c.2-.1.2-.3.3-.4l-.8-.2.6-.2C67.7,116.4,65.6,114.9,65.1,114.8Z" fill="#4c3b30"/></svg>