<svg version="1.1" xmlns="http://www.w3.org/2000/svg" x="0" y="0" viewBox="0 0 248.8 231.8" xml:space="preserve"><style>.st1{fill:#cbd5e0}.st3{fill:#050505}.st4{fill:#3f3d56}.st5{fill:#ffd9d9}</style><g id="blob-shape"><path id="Path_18" d="M108.9 223c41.1-8.9 67.8-19.7 106.3-40s31.9-50.4 27.7-88.3c-3.9-36 24.8-51.1-17.6-75.2s-79.1-26-112-5-38.2 43.8-62.2 91.8-59.5 93.7-49.3 113 65.9 12.5 107.1 3.7z" fill="#edf2f7"/></g><g id="blob-shape_3_2"><path id="Path_18-2" class="st1" d="M73.1 206.4c-4.7-.1-9.3-.9-13.8-2.4-5.1-1.5-11.8-3.7-13.2-7.3s2.4-8.2 7.7-11.5 12-5 16.4-3.3 6.2 6.7 9.6 11.3 8.2 8.8 7 11-8.4 2.5-13.7 2.2z"/></g><path id="Rectangle_18" class="st1" d="M79.5 115.9h84.7v55.8H79.5z"/><path id="Rectangle_19" fill="#fff" d="M82 122.9h79.8v45.5H82z"/><path id="Rectangle_20" class="st3" d="M79.5 115.8h84.7v3.7H79.5z"/><circle id="Ellipse_7" class="st1" cx="156.1" cy="117.7" r=".7"/><circle id="Ellipse_8" class="st1" cx="158.6" cy="117.7" r=".7"/><circle id="Ellipse_9" class="st1" cx="161.1" cy="117.7" r=".7"/><path id="Rectangle_21" class="st1" d="M89.2 127.6h20.5v36.1H89.2z"/><path id="Path_70" class="st3" d="M113.3 127.6h17.1v9.9h-17.1v-9.9z"/><path id="Rectangle_23" class="st1" d="M113.3 140.3h17.1V151h-17.1z"/><path id="Rectangle_24" class="st1" d="M113.3 153.8h17.1v9.9h-17.1z"/><path id="Rectangle_25" class="st1" d="M134 127.6h20.5v15.7H134z"/><path id="Rectangle_26" class="st3" d="M134 148h20.5v15.7H134z"/><path id="Path_30" class="st3" d="M122 132.1h-.3l5.9-22.6h33.8v.3h-33.6l-5.8 22.3z"/><path id="Path_31" class="st4" d="M164.2 112.5c-1.6 0-2.9-1.3-2.9-2.9 0-1.6 1.3-2.9 2.9-2.9 1.6 0 2.9 1.3 2.9 2.9.1 1.6-1.2 2.9-2.8 3l-.1-.1zm0-5.7c-1.5 0-2.7 1.2-2.7 2.7 0 1.5 1.2 2.7 2.7 2.7 1.5 0 2.7-1.2 2.7-2.7 0-1.5-1.2-2.7-2.7-2.7z"/><path id="Path_34" class="st3" d="M164.2 108.4c.6 0 1.1.5 1.1 1.1 0 .6-.5 1.1-1.1 1.1-.6 0-1.1-.5-1.1-1.1 0-.6.5-1.1 1.1-1.1z"/><path id="Path_32" class="st3" d="M138.8 178.4H105v-.3h33.6l5.8-22.4h.3l-5.9 22.7z"/><path id="Path_33" class="st4" d="M102.2 181.3c-1.6-.1-2.9-1.4-2.9-3s1.3-2.9 2.9-2.9 2.9 1.3 2.9 2.9c0 1.6-1.3 2.9-2.9 3zm0-5.7c-1.5 0-2.7 1.2-2.7 2.7s1.2 2.7 2.7 2.7c1.5 0 2.7-1.2 2.7-2.7 0-1.5-1.2-2.7-2.7-2.7z"/><circle id="Ellipse_11" class="st3" cx="102.2" cy="178.3" r="1.1"/><path id="Polygon_1" class="st3" d="M49.8 95.4c-.1-.2 0-.5.2-.7h.4l9 2.8c.3.1.4.4.3.6v.4l-7 6.5c-.2.2-.5.2-.7 0-.1-.1-.1-.1-.1-.2l-2.1-9.4z"/><path id="Polygon_2" class="st1" d="M105.6 196.5c0-.2 0-.3.2-.4.1 0 .2 0 .3.1h.2l.2.2 2.6 4.9c.1.3 0 .5-.2.7h-.3l-5.5-.2c-.3 0-.5-.3-.5-.6 0-.1 0-.2.1-.2l2.9-4.5z"/><path id="Polygon_3" class="st1" d="M179.1 75.8c.2-.1.5.1.7.3v.3l-2.3 14.8c-.1.3-.3.5-.6.4h-.3l-11.2-9.4c-.2-.2-.2-.5-.1-.7l.3-.2 13.5-5.5z"/><path class="st5" d="M68.8 140.8l.3 3.3s-.1 8-.3 8.4c-.2.4-.3.7-.4 1.1l-1.7-4.7v-7.8l2.1-.3zM54.1 186l.3 3.3 2.6-.3-.6-3.3z"/><path class="st3" d="M55.3 187.6s-1.1 0-1.2.6l-1.4 4.1s-1.8 4.1.9 4.4 3.7-1.7 3.7-2.4c0-.9.1-1.7.3-2.6.1-.2.6-1.4.3-1.6-.4-.5-.7-1-.9-1.6 0 0-.6-1.2-1.7-.9z"/><path class="st5" d="M69.9 187.8l.8 4.6 3.1-2.1-1.2-2.9z"/><path class="st3" d="M71.3 191.4s-1.3-1.3-1.2-.4 0 5.2 1 5.2 12-1.7 11.5-2.9-3.4-1.8-3.4-1.8-5.6-3-5.9-2.2c-.1.4-.2.8-.5 1.1l-1.5 1z"/><ellipse class="st5" cx="63.8" cy="121.1" rx="4.1" ry="4.2"/><path class="st5" d="M61.7 123.9s.3 2.6-2.9 3.6 7.7 4.4 8.5 2.6c-.8-.9-1.2-2.2-1.1-3.4.2-1.4.2-2.7 0-4.1l-4.5 1.3z"/><path class="st1" d="M68.8 131.6s1.9.1 2 1.1c.1 1.2.1 2.5 0 3.7 0 0 1.2 3.8 0 4.7s-4.4 1.1-4.4 1.1l2.4-10.6z"/><path class="st3" d="M53.3 152.8l-1.6 2.9c.2.6.3 1.2.3 1.8-.2.5-.2 1.1 0 1.6.1.3.7 7 .6 7.8s-.3 1.1-.2 1.4c.1.2.2.5.2.7v1.7l.4 15s-1.2.6.3 1.1 3.5.6 3.8-.9-.3-12.9 0-13.2.6.2.5-.6c-.1-.4-.2-.9-.2-1.3l.2-.6L60 161l5.6 12.8 3.4 14.4s5.6 0 4.7-2-3.7-16.6-3.7-16.6c.1-.4.1-.7 0-1.1-.1-.5-.4-.5-.4-.8s-.2-.5-.2-.8-.1-1.2-.1-1.2l-1.1-9.9-14.9-3z"/><path class="st1" d="M59.7 126.7s1.2 3.5 6.9 2.1c0 0 3.7 2.6 3.9 3.2s-2.9 8.6-2.9 8.6l-.3 6.1s2 4.6 1.7 7.6 1.8 3.1-.9 3.2-12-3-14.4-4.4c-.4-.2-1.2.7-1.1.5s0-1.1.4-1.4 1.2-11.3 1.2-11.3-.9-11.8.2-12.2l5.3-2z"/><path class="st5" d="M50.9 138.1l-.8 4.7 1.3 11.3.7 1.2 1.5-2.1-.1-8.7 1.7-4.8z"/><path class="st1" d="M54.8 128.9c-1-.1-1.9.5-2.2 1.4-.5 1.6-4.3 7.5-3.5 8.1s6.5 2.9 6.7 2.7-1-12.2-1-12.2z"/><path d="M65.1 114.8c-1-.2-2-.5-2.9-.1-.4.2-.8.4-1.2.8-1 .8-1.9 2-1.9 3.3l.4-.1c-.1.3-.2.6-.4.9.1-.1.2.1.1.3l-.6 1.1c.7-.1 1.2.4 1.3 1.1v.1c.3-1.4.8-3 2.2-3.7.7-.3 1.4-.3 2.2-.3.7 0 1.4.1 2 .4.6.3 1 1.1.7 1.7.3 0 .6.2.7.5.1.3.1.6 0 .9.3.3.7-.1.9-.4.5-.8.9-1.6.9-2.5s-.5-1.9-1.4-2.1c.1-.1.2-.2.2-.4l-.7-.2c.2 0 .4 0 .5-.2-.4.5-2.5-1-3-1.1z" fill="#4c3b30"/></svg>