<svg id="Layer_1" data-name="Layer 1" xmlns="http://www.w3.org/2000/svg" viewBox="0 0 40 40"><title>icon-user-group</title><circle cx="20" cy="20" r="20" fill="#e2e8f0"/><path d="M20,21.1a3.4,3.4,0,0,1,3.5-3.4H28a3.4,3.4,0,0,1,3.5,3.4v3.5a1.2,1.2,0,0,1-1.1,1.2H21.1A1.2,1.2,0,0,1,20,24.6a1.2,1.2,0,0,1-1.1,1.2H9.6a1.2,1.2,0,0,1-1.1-1.2V21.1a3.4,3.4,0,0,1,3.4-3.4h4.7A3.4,3.4,0,0,1,20,21.1Zm-5.7-4.5a3.5,3.5,0,1,1,3.4-3.5A3.5,3.5,0,0,1,14.3,16.6Zm11.5,0a3.5,3.5,0,1,1,3.4-3.5A3.5,3.5,0,0,1,25.8,16.6Z" fill="#a0aec0"/><path d="M20,21.1a3.4,3.4,0,1,1,0-6.8,3.4,3.4,0,1,1,0,6.8Zm-3.4,1.2h6.9a3.4,3.4,0,0,1,3.4,3.5v3.4a1.2,1.2,0,0,1-1.1,1.2H14.3a1.2,1.2,0,0,1-1.2-1.2V25.8A3.4,3.4,0,0,1,16.6,22.3Z" fill="#050505"/></svg>