<svg xmlns="http://www.w3.org/2000/svg" viewBox="0 0 40 40"><circle cx="20" cy="20" r="20" fill="#e2e8f0"/><path d="M8.5,23.5V12a2.3,2.3,0,0,1,2.3-2.3H29.2A2.3,2.3,0,0,1,31.5,12V29.2a1.1,1.1,0,0,1-1.2,1.1,1.3,1.3,0,0,1-.8-.3l-4.2-4.2H10.8A2.3,2.3,0,0,1,8.5,23.5Z" fill="#050505"/><path d="M13.1,14.3H26.9A1.1,1.1,0,0,1,28,15.4a1.2,1.2,0,0,1-1.1,1.2H13.1a1.3,1.3,0,0,1-1.2-1.2A1.2,1.2,0,0,1,13.1,14.3Zm0,4.6h9.2A1.2,1.2,0,0,1,23.5,20a1.3,1.3,0,0,1-1.2,1.2H13.1A1.3,1.3,0,0,1,11.9,20,1.2,1.2,0,0,1,13.1,18.9Z" fill="#e2e8f0"/></svg>