<svg id="launching-saas" xmlns="http://www.w3.org/2000/svg" viewBox="0 0 926 749"><title>launching-saas</title><circle cx="237.9" cy="226.9" r="84" fill="#718096"/><path d="M926,201V421.8c0,180.1-145.9,326-326,326H0V527C0,408.9,62.7,305.5,156.7,248.3a320.7,320.7,0,0,1,50.9-25.1,327.4,327.4,0,0,1,31.7-10.6l.7-.2,9.6-2.4h.5a324.3,324.3,0,0,1,60.5-8.6l7.2-.2H926Z" fill="#e2e8f0"/><path d="M432,605.5C193.9,605.5.8,669.7,0,749H864C863.2,669.7,670.1,605.5,432,605.5Z" fill="#cbd5e0"/><g opacity="0.1"><ellipse cx="352" cy="692" rx="80" ry="22.2" fill="#a0aec0"/></g><g opacity="0.1"><ellipse cx="525" cy="652" rx="80" ry="22.2" fill="#a0aec0"/></g><g opacity="0.1"><ellipse cx="352" cy="692" rx="72" ry="20" fill="#718096"/></g><g opacity="0.1"><ellipse cx="525" cy="652" rx="72" ry="20" fill="#718096"/></g><circle cx="138" cy="290" r="7" fill="#cbd5e0"/><circle cx="740" cy="564" r="7" fill="#cbd5e0"/><circle cx="410" cy="339" r="7" fill="#cbd5e0"/><circle cx="757" cy="297" r="4" fill="#718096"/><circle cx="154" cy="497" r="4" fill="#718096"/><polygon points="94 581.3 92.2 581.3 92.2 579.5 91.8 579.5 91.8 581.3 90 581.3 90 581.7 91.8 581.7 91.8 583.5 92.2 583.5 92.2 581.7 94 581.7 94 581.3" fill="#f2f2f2"/><polygon points="679 433.3 677.2 433.3 677.2 431.5 676.8 431.5 676.8 433.3 675 433.3 675 433.7 676.8 433.7 676.8 435.5 677.2 435.5 677.2 433.7 679 433.7 679 433.3" fill="#f2f2f2"/><polygon points="830 403.3 828.2 403.3 828.2 401.5 827.8 401.5 827.8 403.3 826 403.3 826 403.7 827.8 403.7 827.8 405.5 828.2 405.5 828.2 403.7 830 403.7 830 403.3" fill="#f2f2f2"/><polygon points="505 483.3 503.2 483.3 503.2 481.5 502.8 481.5 502.8 483.3 501 483.3 501 483.7 502.8 483.7 502.8 485.5 503.2 485.5 503.2 483.7 505 483.7 505 483.3" fill="#f2f2f2"/><polygon points="786 493.3 784.2 493.3 784.2 491.5 783.8 491.5 783.8 493.3 782 493.3 782 493.7 783.8 493.7 783.8 495.5 784.2 495.5 784.2 493.7 786 493.7 786 493.3" fill="#f2f2f2"/><polygon points="447 536.3 445.2 536.3 445.2 534.5 444.8 534.5 444.8 536.3 443 536.3 443 536.7 444.8 536.7 444.8 538.5 445.2 538.5 445.2 536.7 447 536.7 447 536.3" fill="#f2f2f2"/><polygon points="575 538.3 573.2 538.3 573.2 536.5 572.8 536.5 572.8 538.3 571 538.3 571 538.7 572.8 538.7 572.8 540.5 573.2 540.5 573.2 538.7 575 538.7 575 538.3" fill="#f2f2f2"/><polygon points="96 368.3 94.2 368.3 94.2 366.5 93.8 366.5 93.8 368.3 92 368.3 92 368.7 93.8 368.7 93.8 370.5 94.2 370.5 94.2 368.7 96 368.7 96 368.3" fill="#f2f2f2"/><rect x="677" y="230.7" width="2.9" height="58.06" fill="#cbd5e0"/><polygon points="611.7 385 585.3 446 590.5 454.6 588.8 457.5 600.8 463.8 600.8 460.4 605.4 459.2 625 423.6 611.7 385" fill="#cbd5e0"/><path d="M591.1,456.9s-19.6,30.5,2.3,35.1,4-32.2,4-32.2Z" fill="#cbd5e0"/><path d="M619.2,443.1l-6.9,22.4-2.9,28.8-5.1,10.3,5.7,46.6,9.2,9.2,4,46v20.7l11,18.9-14.1,20a6.5,6.5,0,0,0,1.5,8.9,6.1,6.1,0,0,0,3.5,1.1c3.1.1,7.2-.8,12.5-3.5,16.7-8.6,16.1-16.7,16.1-16.7s10.4,0,10.9-8-6.3-65.6-6.3-65.6L652,557.5V490.2h2.3l1.1,57.5,5.2,21.3.6,9.2,7.5,92s33.3,9.2,35,1.7-12.6-12.1-12.6-12.1l8.6-16.6V611l-2.9-6.9-5.1-46.6,8.6-9.2,4.6-5.7v-46l-5.8-17.8-1.7-15-9.2-23S646.2,427,619.2,443.1Z" fill="#f7fafc"/><path d="M694,313.2a43.7,43.7,0,1,1-78.8-26.1h0A43.7,43.7,0,0,1,694,313.2Z" fill="#a0aec0"/><g opacity="0.1"><path d="M687.7,295.1l-3.5,20.4c-26.8-69.5-69.4-26.8-70.1-26.1a43.7,43.7,0,0,1,61.1-9A43.2,43.2,0,0,1,687.7,295.1Z" fill="#4a5568"/></g><path d="M688.9,292.8l-3.6,20.4c-26.8-69.5-69.4-26.8-70.1-26.1a43.7,43.7,0,0,1,61.1-9,42.4,42.4,0,0,1,12.6,14.7Z" fill="#f7fafc"/><path d="M682.9,284.2l6,20.7s-12.4,37.3-70.1,38.6l-1.9,5.3-6.3,1.8-2.9,12,8.1,76.5s-3.5,7.5,2.3,6.9c0,0,37.9-12.7,70.7-1.2,0,0,6.9,2.9,5.2-3.4,0,0,23-14.4,21.2-29.3s1.8-84.5,1.8-84.5,3.4-20.2-6.9-24.8C710.1,302.8,694.9,281.6,682.9,284.2Z" fill="#f7fafc"/><path d="M670.3,429.4s-36,3.6-26,23.6S672,436.2,672,436.2Z" fill="#cbd5e0"/><path d="M688.8,340.2s-6.3,7.5-4,19.6,10.9,39,10.9,39L665.2,427l9.2,12.7,41.4-21.3,9.2-5.8h0A239.6,239.6,0,0,0,708.1,345l-1.5-3.6S695.7,336.8,688.8,340.2Z" fill="#cbd5e0"/><circle cx="685.9" cy="309.2" r="10.6" fill="#cbd5e0"/><circle cx="678.4" cy="230.4" r="7.8" fill="#cbd5e0"/><polygon points="481 352.3 479.2 352.3 479.2 350.5 478.8 350.5 478.8 352.3 477 352.3 477 352.7 478.8 352.7 478.8 354.5 479.2 354.5 479.2 352.7 481 352.7 481 352.3" fill="#f2f2f2"/><polygon points="645 296.3 643.2 296.3 643.2 294.5 642.8 294.5 642.8 296.3 641 296.3 641 296.7 642.8 296.7 642.8 298.5 643.2 298.5 643.2 296.7 645 296.7 645 296.3" fill="#f2f2f2"/><polygon points="627 313.3 625.2 313.3 625.2 311.5 624.8 311.5 624.8 313.3 623 313.3 623 313.7 624.8 313.7 624.8 315.5 625.2 315.5 625.2 313.7 627 313.7 627 313.3" fill="#f2f2f2"/><circle cx="556" cy="267" r="4" fill="#cbd5e0"/><path d="M359,295.2c0,279-35.1,279-78.4,279-22.4,0-42.6,0-56.8-38.5-4.1-11.1-7.8-25.4-10.8-43.8-6.8-41.3-10.8-103.4-10.8-196.7,0-35.9,4.3-71.1,10.8-103.9,3.1-15.8,6.8-31.1,10.8-45.6,4.8-17.9,10.2-34.6,15.5-50,3.6-10.3,7.3-20,10.8-28.9C266.4,25.6,280.6,0,280.6,0S359,141.1,359,295.2Z" fill="#f7fafc"/><path d="M250.1,66.8V553.3H239.3V95.7C242.9,85.4,246.6,75.7,250.1,66.8Z" fill="#e2e8f0"/><circle cx="278.2" cy="192.6" r="43.1" transform="translate(43.5 436.4) rotate(-80.8)" fill="#cbd5e0"/><path d="M372.7,547.9c-9.6-23.6-21.9-27.6-29.9-27.3v-3.8H217.2v3.8c-8-.3-20.3,3.7-29.9,27.3-15.6,38.3,9.6,104.1,9.6,104.1s-13.5-91.8,31.1-92.4a51.3,51.3,0,0,0,14,12.7V597h72V574.6a53.2,53.2,0,0,0,18-15c44.6.6,31.1,92.4,31.1,92.4S388.3,586.2,372.7,547.9Z" fill="#a0aec0"/><circle cx="278.2" cy="192.6" r="33.5" fill="#a0aec0"/><path d="M846,201h-2a82.1,82.1,0,0,0,82,81.5v-2A80.1,80.1,0,0,1,846,201Z" fill="#718096"/><path d="M809,201h-2A119.1,119.1,0,0,0,926,319.5v-2A117.1,117.1,0,0,1,809,201Z" fill="#718096"/><path d="M771,201h-2c.3,86.3,70.6,156.5,157,156.5v-2C840.7,355.5,771.3,286.2,771,201Z" fill="#718096"/></svg>