<svg id="fd59ce54-f850-4dfc-bc34-dd7d379d600e" xmlns="http://www.w3.org/2000/svg" viewBox="0 0 1074.4 434.2"><ellipse cx="540.6" cy="399.3" rx="527.5" ry="34.9" fill="#f7fafc"/><path d="M520.4,17c-85.9,0-147.6,55.1-147.6,183.8,0,145.8,61.7,184.4,147.6,184.4s151.4-42.3,151.4-184.4C671.8,48.9,606.4,17,520.4,17Zm.6,319.8c-59.5,0-90.6-34.9-90.6-135.9,0-89.1,32.3-136.1,91.9-136.1s91.9,30.9,91.9,136.1C614.2,299.3,580.5,336.8,521,336.8Z" fill="#050505"/><path d="M321.3,283.5H285.8V178.9a21,21,0,0,0-21-21h-8.3a21,21,0,0,0-21,21h0V283.5H135.3A11.9,11.9,0,0,1,124.7,266L230.8,65.2a21,21,0,0,0-8.7-28.3l-.9-.5L215,33.5a21,21,0,0,0-27.5,9.1L58.2,284.6A28.4,28.4,0,0,0,54.8,298h0a28.4,28.4,0,0,0,28.4,28.4H235.5v66.2a25.2,25.2,0,0,0,25.2,25.1h0a25.2,25.2,0,0,0,25.1-25.1h0V326.4h35.5A21.4,21.4,0,0,0,342.8,305h0a21.5,21.5,0,0,0-21.5-21.5Z" fill="#cbd5e0"/><path d="M979.3,283.5H943.8V178.9a21,21,0,0,0-21-21h-8.3a21,21,0,0,0-21,21h0V283.5H793.3A11.9,11.9,0,0,1,782.7,266L888.8,65.2a21,21,0,0,0-8.7-28.3l-.9-.5L873,33.5a21,21,0,0,0-27.5,9.1l-129.3,242a28.4,28.4,0,0,0-3.4,13.4h0a28.4,28.4,0,0,0,28.4,28.4H893.5v66.2a25.2,25.2,0,0,0,25.2,25.1h0a25.2,25.2,0,0,0,25.1-25.1h0V326.4h35.5a21.4,21.4,0,0,0,21.5-21.4h0a21.5,21.5,0,0,0-21.5-21.5Z" fill="#cbd5e0"/><path d="M331.1,271.3H295.6V166.6a21,21,0,0,0-21-20.9h-8.3a21,21,0,0,0-21,20.9h0V271.3H145.1a12,12,0,0,1-12-12,12.2,12.2,0,0,1,1.4-5.6L240.6,52.9a21,21,0,0,0-8.7-28.3l-.9-.4-6.2-3a21.2,21.2,0,0,0-27.5,9.1L68,272.3a29,29,0,0,0-3.4,13.4h0A28.4,28.4,0,0,0,93,314.1H245.3v66.2a25.1,25.1,0,0,0,25.2,25.1h0a25.1,25.1,0,0,0,25.1-25.1h0V314.1h35.5a21.4,21.4,0,0,0,21.5-21.4h0A21.4,21.4,0,0,0,331.1,271.3Z" fill="none" stroke="#050505" stroke-miterlimit="10"/><path d="M997.7,271.3H962.2V166.6a21,21,0,0,0-21-20.9h-8.3a21,21,0,0,0-21,20.9h0V271.3H811.7a12,12,0,0,1-12-12,12.2,12.2,0,0,1,1.4-5.6L907.2,52.9a21,21,0,0,0-8.7-28.3l-.9-.4-6.3-3a21.1,21.1,0,0,0-27.4,9.1l-129.4,242a28.9,28.9,0,0,0-3.3,13.4h0a28.4,28.4,0,0,0,28.4,28.4H911.9v66.2A25.1,25.1,0,0,0,937,405.4h0a25.1,25.1,0,0,0,25.2-25.1h0V314.1h35.5a21.4,21.4,0,0,0,21.4-21.4h0a21.4,21.4,0,0,0-21.4-21.4Z" fill="none" stroke="#050505" stroke-miterlimit="10"/><path d="M540,6C454.1,6,392.4,61.1,392.4,189.8c0,145.8,61.7,184.4,147.6,184.4s151.4-42.3,151.4-184.4C691.4,37.8,626,6,540,6Zm.6,319.8c-59.5,0-90.6-34.9-90.6-135.9,0-89.1,32.3-136.1,91.9-136.1s91.9,30.8,91.9,136.1c0,98.4-33.7,135.9-93.2,135.9Z" fill="none" stroke="#050505" stroke-miterlimit="10"/><path d="M1006.9,269.5a20.8,20.8,0,0,0,14.2-39.1,21.4,21.4,0,0,0-11.5-.8l.6,10.7-5.1-9.1a20.5,20.5,0,0,0-10.7,11.7,18.1,18.1,0,0,0-1.2,5.6A20.7,20.7,0,0,0,1006.9,269.5Z" fill="#cbd5e0"/><path d="M1031.9,393.8c-1.7-9.1,6-17.2,13.7-22.4s16.6-10.5,19.2-19.4c3.7-12.8-7.5-24.5-16.2-34.6a124.5,124.5,0,0,1-16.5-24.6c-1.8-3.5-3.5-7.2-3.9-11.1-.7-5.7,1.1-11.3,2.9-16.8,6.2-18,12.7-35.9,19.7-53.6" fill="none" stroke="#3f3d56" stroke-miterlimit="10"/><path d="M1007.7,266.8a20.8,20.8,0,1,0,14.2-39.1,20.1,20.1,0,0,0-11.4-.8l.5,10.7-5.1-9.2a20.7,20.7,0,0,0-10.6,11.7,18.1,18.1,0,0,0-1.2,5.7A20.8,20.8,0,0,0,1007.7,266.8Z" fill="none" stroke="#3f3d56" stroke-miterlimit="10"/><path d="M1029.4,207.6a20.6,20.6,0,0,1,15-13.2l1.7,10.2,3.2-10.7a20.8,20.8,0,1,1-21.1,20.5A19.9,19.9,0,0,1,1029.4,207.6Z" fill="#cbd5e0"/><path d="M1030.5,203.9a21,21,0,0,1,15-13.2l1.7,10.2,3.2-10.7a20.8,20.8,0,1,1-21.1,20.5A19.9,19.9,0,0,1,1030.5,203.9Z" fill="none" stroke="#3f3d56" stroke-miterlimit="10"/><path d="M1045,317.6a20.8,20.8,0,0,0,18.4-37l-2.4,8.2-1.8-10.3h0a20.8,20.8,0,1,0-14.2,39.1Z" fill="#cbd5e0"/><path d="M1046,313.9a20.8,20.8,0,0,0,18.4-37l-2.4,8.2-1.8-10.3h0a20.8,20.8,0,1,0-14.2,39.1Z" fill="none" stroke="#3f3d56" stroke-miterlimit="10"/><path d="M1023.3,352.2a20.8,20.8,0,1,0,4-16.3l9.3,13.9-12.7-7.4A21.7,21.7,0,0,0,1023.3,352.2Z" fill="#cbd5e0"/><path d="M1024.2,349.4a20.8,20.8,0,1,0,16.9-24.1,21.1,21.1,0,0,0-12.9,7.8l9.3,14-12.7-7.4A19.9,19.9,0,0,0,1024.2,349.4Z" fill="none" stroke="#3f3d56" stroke-miterlimit="10"/><path d="M9,320.2a13.6,13.6,0,0,0,17.5-8.1,13.8,13.8,0,0,0-8.1-17.6,15.1,15.1,0,0,0-7.6-.5l.4,7.1L7.8,295a13.9,13.9,0,0,0-7,7.7,16.3,16.3,0,0,0-.8,3.7A13.7,13.7,0,0,0,9,320.2Z" fill="#cbd5e0"/><path d="M25.5,401.9c-1.2-6,3.9-11.3,8.9-14.8s10.9-6.8,12.7-12.7c2.4-8.4-4.9-16.1-10.6-22.7a82.9,82.9,0,0,1-10.9-16.1,21.8,21.8,0,0,1-2.6-7.4c-.4-3.7.8-7.4,2-11,4-11.8,8.3-23.6,12.9-35.2" fill="none" stroke="#3f3d56" stroke-miterlimit="10"/><path d="M9.6,318.4a13.6,13.6,0,0,0,17.5-8.1,13.8,13.8,0,0,0-8.2-17.6,14.7,14.7,0,0,0-7.5-.5l.3,7-3.3-6a13.6,13.6,0,0,0-7,7.7,12.3,12.3,0,0,0-.8,3.7A13.6,13.6,0,0,0,9.6,318.4Z" fill="none" stroke="#3f3d56" stroke-miterlimit="10"/><path d="M23.8,279.5a13.7,13.7,0,0,1,9.9-8.6l1.1,6.7,2.1-7.1A13.7,13.7,0,1,1,23,284,14.2,14.2,0,0,1,23.8,279.5Z" fill="#cbd5e0"/><path d="M24.6,277.1a13.5,13.5,0,0,1,9.8-8.6l1.1,6.6,2.1-7a13.7,13.7,0,1,1-.4,27.4,13.9,13.9,0,0,1-13.5-13.9A14.4,14.4,0,0,1,24.6,277.1Z" fill="none" stroke="#3f3d56" stroke-miterlimit="10"/><path d="M34.1,351.8a13.7,13.7,0,0,0,12.1-24.3l-1.6,5.4-1.2-6.8h0A13.7,13.7,0,0,0,34,351.8Z" fill="#cbd5e0"/><path d="M34.7,349.4A13.7,13.7,0,0,0,46.8,325l-1.6,5.5-1.1-6.8H44a13.7,13.7,0,0,0-9.3,25.7Z" fill="none" stroke="#3f3d56" stroke-miterlimit="10"/><path d="M19.8,374.5a13.8,13.8,0,1,0,2.7-10.7l6,9.2-8.3-4.9A13.9,13.9,0,0,0,19.8,374.5Z" fill="#cbd5e0"/><path d="M20.4,372.7A13.6,13.6,0,1,0,23,362l6.1,9.2-8.3-4.9A12.7,12.7,0,0,0,20.4,372.7Z" fill="none" stroke="#3f3d56" stroke-miterlimit="10"/><ellipse cx="480.9" cy="169.1" rx="17" ry="22" fill="#050505"/><ellipse cx="573.4" cy="169.6" rx="17" ry="22" fill="#050505"/><path d="M560.4,234.6c0,10-13.8,18-31,18s-31-8-31-18,10.5-15.8,24.4-17.6c2.2-.2,4.4-.4,6.6-.4a52.6,52.6,0,0,1,11.2,1.2C552.2,220.4,560.4,227,560.4,234.6Z" fill="#050505"/><ellipse cx="484.9" cy="164.1" rx="17" ry="22" fill="none" stroke="#3f3d56" stroke-miterlimit="10"/><ellipse cx="577.4" cy="164.6" rx="17" ry="22" fill="none" stroke="#3f3d56" stroke-miterlimit="10"/><ellipse cx="533.4" cy="229.6" rx="31" ry="18" fill="none" stroke="#3f3d56" stroke-miterlimit="10"/><path d="M540.9,219.3a4.3,4.3,0,0,1-1.3,3.4,4.2,4.2,0,0,1-3.2,1.4h-10a4.7,4.7,0,0,1-4.5-4.8,4.4,4.4,0,0,1,.9-2.7,48.9,48.9,0,0,1,6.6-.5,47,47,0,0,1,11.2,1.3A6.3,6.3,0,0,1,540.9,219.3Z" fill="#fff"/><circle cx="484.9" cy="158.1" r="5" fill="#fff"/><circle cx="577.9" cy="158.1" r="5" fill="#fff"/><circle cx="582.9" cy="205.1" r="5" fill="#cbd5e0" opacity="0.3" style="isolation:isolate"/><circle cx="460.9" cy="205.1" r="5" fill="#cbd5e0" opacity="0.3" style="isolation:isolate"/></svg>