<svg version="1.1" id="b86c1a25-be3a-4728-a0a8-9021f461e354" xmlns="http://www.w3.org/2000/svg" x="0" y="0" viewBox="0 0 1167.7 718.4" xml:space="preserve"><style>.st1{opacity:.1;enable-background:new}.st2{fill:#ffd9d9}.st5{fill:#050505}.st10,.st6,.st9{fill:#cbd5e0}.st10,.st9{opacity:.5;enable-background:new}.st10{fill:#dce0ed}</style><path d="M44.7 596.1C-30.9 516.6 11 381 95.4 303.1s211.1-98.3 331.2-153.8S660 3.1 798.5 6.8s302.2 101.9 351.2 213-16.7 235.3-96.8 314.7-174.2 114.2-267.5 137.8-186.1 36.6-329 31.5-336.1-28.4-411.7-107.7z" fill="#f7fafc"/><path class="st1" d="M335.6 569.5l-.6-.2.6.2zM336 569.5z"/><path class="st2" d="M176.2 542.6l-14.8-1 5 22.2 16.7-6.9z"/><path fill="#050505" d="M312 501.1l-34.6-33.5-19.7 15.3-39 46.9 4.4 6.9 47.4-32.1 32.1 41.9 30.6-15.3z"/><path opacity=".1" fill="none" stroke="#050505" stroke-miterlimit="10" d="M312 501.1l-34.6-33.5-19.7 15.3-39 46.9 4.4 6.9 47.4-32.1 32.1 41.9 30.6-15.3z"/><path class="st2" d="M314.9 523.3l-4.4 3.5-36.1-12.3-8.3-3.5-16.8 3.5s0-13.9 15.8-13.4l16.3 4 19.2 1.5 14.3 16.7z"/><path class="st5" d="M347 559.9l-10.9 6.9h-12.8l-59.7-22.2-87.4 15.7-2.4-18.7 79.9-35 70.1 23.2z"/><path class="st2" d="M276.9 472l-7.4 1.5-1.6-1.9c-2.6-3-3.1-7.3-1.4-10.9l20.8-27.2s5.9-13.3 15.3-7.9-7.9 14.3-7.9 14.3l-10.4 16.3 1 8.4-8.4 7.4z"/><circle class="st2" cx="323.8" cy="420.7" r="19.2"/><path class="st2" d="M315.2 434.7L324 456l21.3-8.9s-6.9-16.8-6.9-17.3-23.2 4.9-23.2 4.9z"/><path class="st6" d="M373.6 497.5c0 11.6-1.8 23.2-5.4 34.2l-1.5 4.5-6.9 31.6-7.4 1.9-5.4-6.9-10.9-7.9-7.9-12.8-6.7-11.3-2.1-3.5-7.4-37-28.2-15.8-9.4-1.5 2-5.4 8.4-11.4 8.4-1 2.5-1.9 1.9.9 7.9-4.4 2.5 1 14.4 1.3 8.8-1.8 12.6-6.8 5.2.9 17.7 14.8c4.6 12.2 6.9 25.2 6.9 38.3z"/><path class="st5" d="M166 550.2s4.4-7.5 2.5-8.3l-9.8-4.4-11.6-3.9s-16.8-24.9-17.2-3.2c-.4 21.7 12.3 26.9 12.3 26.9s11.2 24.1 17.5 20.3 12.8-16.9 12.8-16.9-11.5-6.2-6.5-10.5z"/><path class="st1" d="M368.2 493.2l-18.7 12.4-28 25.2-2.1-3.5-6-29.6h1.5l15.3-28.2z"/><path class="st6" d="M330.2 466.6l-15.3 28.1h-5.4l-3.5 9.9-7.9 2 21.3 23.2 30.1-27.2 18.7-12.3z"/><path fill="#edf2f7" d="M358.8 269.4h494.8v304.2H358.8z"/><path fill="#fff" d="M374.1 278.8h464.3v285.4H374.1z"/><circle class="st2" cx="333.4" cy="422.9" r="3.5"/><path class="st5" d="M414.4 303.9h58v5.4h-58z"/><path class="st9" d="M414.4 330h58v5.4h-58zM414.4 348.4h58v5.4h-58zM414.4 366.8h58v5.4h-58zM414.4 385.2h58v5.4h-58zM414.4 403.7h58v5.4h-58zM414.4 422.1h58v5.4h-58zM414.4 440.5h58v5.4h-58z"/><path class="st10" d="M534.5 323.6h257.2v.9H534.5zM534.5 343.5h257.2v.9H534.5zM534.5 363.5h257.2v.9H534.5zM534.5 383.4h257.2v.9H534.5zM534.5 403.4h257.2v.9H534.5z"/><path d="M791.7 404.2H534.1V365l23.7 11.6 24.4 3.3 21.4-6.4 25.9-20.1 13-7.5 9.5-1.8 9.2.4 14.6 7.7 20.7 23.5 10 5.8c4.4 2.1 9.6 1.7 13.7-.9l12-13.1 7-7.9c1.8-1.3 4.1-2.2 5.5-4l7.4-2 8.6.2 5 1.4 12.7 6.3 13.3 8.6v34.1z" opacity=".1" fill="#cbd5e0"/><path class="st6" d="M579 379.9c-23.2 0-44.6-14.1-44.9-14.3l.7-1c.3.3 33.3 22.1 61.3 11.1 10.2-4 17.5-10.1 24.6-16.1s14.2-12.2 23.7-14.8c11.1-2.9 22.9-.2 31.7 7.2 7.7 6.3 23.1 33 39.3 30.1 8.2-1.6 15.2-15.9 22.6-22.3 14.1-12.3 28.7-8.3 54 9.8l-.7 1c-24.5-17.7-38.8-21.9-52.6-10-7.5 6.5-14.6 21-23.1 22.6-16.7 3.1-32.3-23.9-40.2-30.4-8.5-7.1-20-9.6-30.7-6.9-9.2 2.5-16.1 8.4-23.3 14.5s-14.5 12.4-24.9 16.4c-5.6 2.1-11.5 3.2-17.5 3.1z"/><circle class="st5" cx="658.2" cy="343.9" r="6.4"/><g opacity=".5"><path class="st6" d="M557.2 448.9H595v8h-37.8zM644 448.9h37.8v8H644zM730.8 448.9h37.8v8h-37.8z"/></g><path class="st5" d="M554.5 504.9c0-11.7 9.5-20.7 21.3-20.7h.1v-5.3h-.2c-14.6 0-26.5 11.4-26.5 26 0 7.7 3.3 15 9.1 20l3.7-3.8c-4.8-4-7.5-10-7.5-16.2z"/><path class="st9" d="M576.4 478.9v5.3c11.7-.7 21.9 8.2 22.6 19.9s-8.2 21.9-19.9 22.6c-1 .1-1.9.1-2.9 0-5 0-9.8-1.8-13.6-5.1l-3.8 3.8c11 9.7 27.8 8.7 37.6-2.2s8.7-27.8-2.2-37.6c-5-4.3-11.3-6.7-17.8-6.7zM750.6 484c11.7 0 20.7 9.5 20.7 21.2v.2h5.3v-.2c0-14.7-11.4-26.6-26-26.6-7.7 0-14.9 3.3-20 9.1l3.8 3.8c4-4.8 10-7.5 16.2-7.5z"/><path class="st5" d="M776.6 505.9h-5.3c-.9 11.7-11.1 20.5-22.8 19.6-10.6-.8-19-9.3-19.7-19.9 0-5 1.8-9.8 5.1-13.6l-3.8-3.7c-9.6 11-8.5 27.8 2.5 37.5s27.8 8.5 37.5-2.5c4.2-4.9 6.5-11 6.5-17.4z"/><path class="st9" d="M673.4 480.5l-1.1 5.3c7.8 3.1 12.8 10.8 12.8 19.7 0 11.8-9.5 21.3-21.2 21.4-11.8 0-21.3-9.5-21.4-21.2 0-8.5 5-16.3 12.9-19.6l-2.4-4.8c-13.4 6-19.5 21.7-13.5 35.1 6 13.4 21.7 19.5 35.1 13.5 9.6-4.3 15.8-13.9 15.8-24.4.2-11.2-6.6-21.1-17-25z"/><path class="st5" d="M664.5 483.9c2.6 0 5.1.5 7.4 1.6l1.1-5.3c-2.7-1.1-5.6-1.6-8.5-1.6-3.7 0-7.4.8-10.8 2.3l2.3 4.8c2.7-1.2 5.6-1.8 8.5-1.8zM358.8 255.2h494.9v14.2H358.8z"/><circle class="st6" cx="831" cy="262.3" r="2.6"/><circle class="st6" cx="820.2" cy="262.3" r="2.6"/><circle class="st6" cx="841" cy="262.3" r="2.6"/><path d="M310 410.5c-1 .5-2.2.5-3.2.1-1-.3-2.1-1.5-1.8-2.5l1.4-.2-1.4-2.5 1.8-.3-.5-2.7 1.8-.3-1.4-3c6.1-3.8 13.1-6 20.2-6.3 7.3-.7 14.3 3 17.9 9.4 1.4 3.6 1.9 7.5 1.5 11.3-.2 7.4-1.9 14.6-5.1 21.3-.5-3.2-2.9-6-3.4-9.1-.3-1.4-.7-2.7-1.2-4-1.4-2.4-3.4-4.4-5.7-6-1.1-1.7-2.1-3.6-2.8-5.5-.9-2.6-1.3-2.1-4-1.6l-14.1 1.9z" fill="#4c3b30"/></svg>