<svg id="b86c1a25-be3a-4728-a0a8-9021f461e354" xmlns="http://www.w3.org/2000/svg" viewBox="0 0 1167.7 718.4"><title>saas-hero-image</title><path d="M44.7,596.1C-30.9,516.6,11,381,95.4,303.1s211.1-98.3,331.2-153.8S660,3.1,798.5,6.8s302.2,101.9,351.2,213-16.7,235.3-96.8,314.7S878.7,648.7,785.4,672.3s-186.1,36.6-329,31.5S120.3,675.4,44.7,596.1Z" fill="#f7fafc"/><path d="M335.6,569.5l-.6-.2Z" opacity="0.1" style="isolation:isolate"/><path d="M336,569.5h0Z" opacity="0.1" style="isolation:isolate"/><polygon points="176.2 542.6 161.4 541.6 166.4 563.8 183.1 556.9 176.2 542.6" fill="#ffd9d9"/><polygon points="312 501.1 277.4 467.6 257.7 482.9 218.7 529.8 223.1 536.7 270.5 504.6 302.6 546.5 333.2 531.2 312 501.1" fill="#1a202c" opacity="0.9"/><polygon points="312 501.1 277.4 467.6 257.7 482.9 218.7 529.8 223.1 536.7 270.5 504.6 302.6 546.5 333.2 531.2 312 501.1" fill="none" stroke="#050505" stroke-miterlimit="10" opacity="0.1" style="isolation:isolate"/><path d="M314.9,523.3l-4.4,3.5-36.1-12.3-8.3-3.5-16.8,3.5s0-13.9,15.8-13.4l16.3,4,19.2,1.5Z" fill="#ffd9d9"/><polygon points="347 559.9 336.1 566.8 323.3 566.8 263.6 544.6 176.2 560.3 173.8 541.6 253.7 506.6 323.8 529.8 347 559.9" fill="#2d3748"/><path d="M276.9,472l-7.4,1.5-1.6-1.9a10.1,10.1,0,0,1-1.4-10.9h0l20.8-27.2s5.9-13.3,15.3-7.9-7.9,14.3-7.9,14.3l-10.4,16.3,1,8.4Z" fill="#ffd9d9"/><circle cx="323.8" cy="420.7" r="19.2" fill="#ffd9d9"/><path d="M315.2,434.7,324,456l21.3-8.9s-6.9-16.8-6.9-17.3S315.2,434.7,315.2,434.7Z" fill="#ffd9d9"/><path d="M373.6,497.5a110.2,110.2,0,0,1-5.4,34.2l-1.5,4.5-6.9,31.6-7.4,1.9-5.4-6.9-10.9-7.9-7.9-12.8-6.7-11.3-2.1-3.5-7.4-37-28.2-15.8-9.4-1.5,2-5.4,8.4-11.4,8.4-1,2.5-1.9,1.9.9,7.9-4.4,2.5,1,14.4,1.3,8.8-1.8,12.6-6.8,5.2.9,17.7,14.8A109,109,0,0,1,373.6,497.5Z" fill="#a0aec0"/><path d="M166,550.2s4.4-7.5,2.5-8.3l-9.8-4.4-11.6-3.9s-16.8-24.9-17.2-3.2,12.3,26.9,12.3,26.9,11.2,24.1,17.5,20.3,12.8-16.9,12.8-16.9S161,554.5,166,550.2Z" fill="#1a202c"/><polygon points="368.2 493.2 349.5 505.6 321.5 530.8 319.4 527.3 313.4 497.7 314.9 497.7 330.2 469.5 368.2 493.2" opacity="0.1" style="isolation:isolate"/><polygon points="330.2 466.6 314.9 494.7 309.5 494.7 306 504.6 298.1 506.6 319.4 529.8 349.5 502.6 368.2 490.3 330.2 466.6" fill="#a0aec0"/><path d="M308.8,406.4l-2.1.8a3,3,0,0,1-.7-4.1h0l-3.9-.2a29.1,29.1,0,0,1,40.8-5.8l2.7,2.3c.2-.6,2.1.6,2.9,1.8.2-1,2,3.7,2.6,7.1.3-1.1,1.5.7.5,2.4.6-.1.9,1.5.4,2.4s.6,1.6-.2,2.9c1-.1-7.7,13.4-11.2,21.3-1-4.7-2.2-9.7-5.5-13.2a9.3,9.3,0,0,0-1.8-1.6l-3.3-3c-3.8-3.4-7.3-7.6-12.5-8.8-3.5-.9-5.7-1.1-3.8-5.1-1.7.7-3.4,1.8-5.1,2.5C308.6,407.5,308.9,406.9,308.8,406.4Z" fill="#513b2c"/><rect x="358.8" y="269.4" width="494.8" height="304.18" fill="#cbd5e0"/><rect x="374.1" y="278.8" width="464.3" height="285.42" fill="#fff"/><circle cx="333.4" cy="422.9" r="3.5" fill="#ffd9d9"/><rect x="414.4" y="303.9" width="58" height="5.35" fill="#2d3748"/><rect x="414.4" y="330" width="58" height="5.35" fill="#a0aec0" opacity="0.5" style="isolation:isolate"/><rect x="414.4" y="348.4" width="58" height="5.35" fill="#a0aec0" opacity="0.5" style="isolation:isolate"/><rect x="414.4" y="366.8" width="58" height="5.35" fill="#a0aec0" opacity="0.5" style="isolation:isolate"/><rect x="414.4" y="385.2" width="58" height="5.35" fill="#a0aec0" opacity="0.5" style="isolation:isolate"/><rect x="414.4" y="403.7" width="58" height="5.35" fill="#a0aec0" opacity="0.5" style="isolation:isolate"/><rect x="414.4" y="422.1" width="58" height="5.35" fill="#a0aec0" opacity="0.5" style="isolation:isolate"/><rect x="414.4" y="440.5" width="58" height="5.35" fill="#a0aec0" opacity="0.5" style="isolation:isolate"/><rect x="534.5" y="323.6" width="257.2" height="0.86" fill="#dce0ed" opacity="0.5" style="isolation:isolate"/><rect x="534.5" y="343.5" width="257.2" height="0.86" fill="#dce0ed" opacity="0.5" style="isolation:isolate"/><rect x="534.5" y="363.5" width="257.2" height="0.86" fill="#dce0ed" opacity="0.5" style="isolation:isolate"/><rect x="534.5" y="383.4" width="257.2" height="0.86" fill="#dce0ed" opacity="0.5" style="isolation:isolate"/><rect x="534.5" y="403.4" width="257.2" height="0.86" fill="#dce0ed" opacity="0.5" style="isolation:isolate"/><path d="M791.7,404.2H534.1V365l23.7,11.6,24.4,3.3,21.4-6.4,25.9-20.1,13-7.5,9.5-1.8,9.2.4,14.6,7.7,20.7,23.5,10,5.8a14.2,14.2,0,0,0,13.7-.9l12-13.1,7-7.9c1.8-1.3,4.1-2.2,5.5-4l7.4-2,8.6.2,5,1.4,12.7,6.3,13.3,8.6Z" fill="#a0aec0" opacity="0.2"/><path d="M579,379.9c-23.2,0-44.6-14.1-44.9-14.3l.7-1c.3.3,33.3,22.1,61.3,11.1,10.2-4,17.5-10.1,24.6-16.1s14.2-12.2,23.7-14.8a35.3,35.3,0,0,1,31.7,7.2c7.7,6.3,23.1,33,39.3,30.1,8.2-1.6,15.2-15.9,22.6-22.3,14.1-12.3,28.7-8.3,54,9.8l-.7,1c-24.5-17.7-38.8-21.9-52.6-10-7.5,6.5-14.6,21-23.1,22.6-16.7,3.1-32.3-23.9-40.2-30.4a34.7,34.7,0,0,0-30.7-6.9c-9.2,2.5-16.1,8.4-23.3,14.5s-14.5,12.4-24.9,16.4A47.1,47.1,0,0,1,579,379.9Z" fill="#cbd5e0"/><circle cx="658.2" cy="343.9" r="6.4" fill="#2d3748"/><g opacity="0.5"><rect x="557.2" y="448.9" width="37.8" height="8.02" fill="#a0aec0"/><rect x="644" y="448.9" width="37.8" height="8.02" fill="#a0aec0"/><rect x="730.8" y="448.9" width="37.8" height="8.02" fill="#a0aec0"/></g><path d="M554.5,504.9c0-11.7,9.5-20.7,21.3-20.7h.1v-5.3h-.2c-14.6,0-26.5,11.4-26.5,26a26.4,26.4,0,0,0,9.1,20l3.7-3.8A21.3,21.3,0,0,1,554.5,504.9Z" fill="#2d3748"/><path d="M576.4,478.9v5.3a21.3,21.3,0,1,1-.2,42.5,20.7,20.7,0,0,1-13.6-5.1l-3.8,3.8a26.6,26.6,0,1,0,17.6-46.5Z" fill="#a0aec0" opacity="0.5" style="isolation:isolate"/><path d="M750.6,484c11.7,0,20.7,9.5,20.7,21.2v.2h5.3v-.2c0-14.7-11.4-26.6-26-26.6a26.7,26.7,0,0,0-20,9.1l3.8,3.8A21,21,0,0,1,750.6,484Z" fill="#a0aec0" opacity="0.5" style="isolation:isolate"/><path d="M776.6,505.9h-5.3a21.3,21.3,0,0,1-42.5-.3,20.9,20.9,0,0,1,5.1-13.6l-3.8-3.7a26.5,26.5,0,0,0,40,34.9,26.2,26.2,0,0,0,6.5-17.3Z" fill="#2d3748"/><path d="M673.4,480.5l-1.1,5.3c7.8,3.1,12.8,10.8,12.8,19.7A21.3,21.3,0,1,1,655.4,486l-2.4-4.8a26.6,26.6,0,1,0,37.4,24.2A26.1,26.1,0,0,0,673.4,480.5Z" fill="#a0aec0" opacity="0.5" style="isolation:isolate"/><path d="M664.5,483.9a17,17,0,0,1,7.4,1.6l1.1-5.3a22.5,22.5,0,0,0-8.5-1.6,26.9,26.9,0,0,0-10.8,2.3l2.3,4.8A20.9,20.9,0,0,1,664.5,483.9Z" fill="#2d3748"/><rect x="358.8" y="255.2" width="494.9" height="14.17" fill="#2d3748"/><circle cx="831" cy="262.3" r="2.6" fill="#cbd5e0"/><circle cx="820.2" cy="262.3" r="2.6" fill="#cbd5e0"/><circle cx="841" cy="262.3" r="2.6" fill="#cbd5e0"/></svg>