<svg xmlns="http://www.w3.org/2000/svg" viewBox="0 0 882 598.5"><path d="M865.9 126.7c27.8 65.1 15.4 134.7-5.3 203.3s-49.5 135.7-118.2 174S565 551.5 459 569.2s-209.9 44.2-275.1 18.9S92.3 486 64.4 428.3 6.4 331.5.9 291.5s13.5-81.3 39.2-123.7 57.7-86.1 110.6-92.4 126.5 24.9 222.2 8.6S585.7 4.4 678.3 2.8s160.1 58.7 187.6 123.9z" fill="#f7fafc"/><circle cx="424.4" cy="281.2" r="201.7" fill="#e2e8f0"/><path d="M424.4 318a36 36 0 1135.9-35.9 35.9 35.9 0 01-35.9 35.9zm0-70.1a34.2 34.2 0 1034.2 34.2 34.3 34.3 0 00-34.2-34.2z" fill="#050505" style="isolation:isolate"/><path d="M424.4 350.5a68.4 68.4 0 1168.3-68.4 68.4 68.4 0 01-68.3 68.4zm0-135a66.6 66.6 0 1066.6 66.6 66.7 66.7 0 00-66.6-66.6z" fill="#050505" style="isolation:isolate"/><path d="M424.4 378.5a96.5 96.5 0 1196.4-96.4 96.4 96.4 0 01-96.4 96.4zm0-191.1a94.7 94.7 0 1094.7 94.7 94.9 94.9 0 00-94.7-94.7z" fill="#050505" style="isolation:isolate"/><path d="M424.4 415.4c-73.5 0-133.3-59.8-133.3-133.3s59.8-133.3 133.3-133.3 133.2 59.8 133.2 133.3-59.8 133.3-133.2 133.3zm0-264.8c-72.6 0-131.6 59-131.6 131.5s59 131.5 131.6 131.5 131.5-59 131.5-131.5-59-131.5-131.5-131.5z" fill="#050505" style="isolation:isolate"/><path d="M424.4 446.1c-90.5 0-164-73.6-164-164s73.5-164 164-164 163.9 73.6 163.9 164-73.5 164-163.9 164zm0-326.2c-89.5 0-162.3 72.8-162.3 162.2s72.8 162.2 162.3 162.2 162.2-72.8 162.2-162.2-72.8-162.2-162.2-162.2z" fill="#050505" style="isolation:isolate"/><circle cx="424.4" cy="281.2" r="16.7" fill="#f7fafc" opacity=".3" style="isolation:isolate"/><circle cx="467.3" cy="329.4" r="16.7" fill="#f7fafc" opacity=".3" style="isolation:isolate"/><circle cx="350.7" cy="322.4" r="16.7" transform="rotate(-80.8 350.636 322.424)" fill="#f7fafc" opacity=".3" style="isolation:isolate"/><circle cx="424.4" cy="281.2" r="7.9" fill="#2f2e41"/><circle cx="350.7" cy="322.4" r="7.9" fill="#2f2e41"/><circle cx="467.3" cy="330.3" r="7.9" fill="#2f2e41"/><path fill="#050505" d="M424.8 281.7H423v-90.4h348.1v1.8H424.8v88.6z"/><path d="M792.6 215.5a22.8 22.8 0 1122.8-22.8 22.8 22.8 0 01-22.8 22.8zm0-43.9a21.1 21.1 0 1021.1 21.1 21 21 0 00-21.1-21.1zM740 442.6a22.8 22.8 0 1122.8-22.8 22.9 22.9 0 01-22.8 22.8zm0-43.9a21.1 21.1 0 1021.1 21.1 21 21 0 00-21.1-21.1zM106.1 252.3a22.8 22.8 0 1122.8-22.8 22.8 22.8 0 01-22.8 22.8zm0-43.9a21.1 21.1 0 1021 21.1 21.1 21.1 0 00-21-21.1z" fill="#050505"/><path fill="#050505" d="M351.6 322.4h-1.8v-88.5L128 230.4v-1.8l223.6 3.5v90.3zM718.1 420.6H466.4v-90.3h1.8v88.6h249.9v1.7zM744.4 233.9h96.5v6.14h-96.5zM744.4 251.4h96.5v6.14h-96.5zM744.4 268.9h96.5v6.14h-96.5zM691.8 461h96.5v6.14h-96.5zM726.709 428.694l22.203-22.203 4.342 4.341-22.204 22.204z"/><path fill="#050505" d="M726.709 410.875l4.313-4.313 22.196 22.196-4.313 4.313zM779.319 201.616l22.203-22.203 4.341 4.342-22.203 22.203z"/><path fill="#050505" d="M779.39 183.726l4.313-4.313 22.196 22.196-4.314 4.313zM92.775 237.53l22.203-22.203 4.342 4.342-22.203 22.203z"/><path fill="#050505" d="M92.775 219.711l4.313-4.313 22.196 22.196-4.313 4.313zM691.8 478.5h96.5v6.14h-96.5zM691.8 496h96.5v6.14h-96.5zM57.8 271.6h96.5v6.14H57.8zM57.8 289.1h96.5v6.14H57.8zM57.8 306.6h96.5v6.14H57.8z"/></svg>