<?xml version="1.0" encoding="utf-8"?>
<!-- Generator: Adobe Illustrator 23.0.3, SVG Export Plug-In . SVG Version: 6.00 Build 0)  -->
<svg version="1.1" id="b86c1a25-be3a-4728-a0a8-9021f461e354"
	 xmlns="http://www.w3.org/2000/svg" xmlns:xlink="http://www.w3.org/1999/xlink" x="0px" y="0px" viewBox="0 0 1167.7 718.4"
	 style="enable-background:new 0 0 1167.7 718.4;" xml:space="preserve">
<style type="text/css">
	.st0{fill:#F7FAFC;}
	.st1{opacity:0.1;enable-background:new    ;}
	.st2{fill:#FFD9D9;}
	.st3{fill:#050505;enable-background:new    ;}
	.st4{opacity:0.1;fill:none;stroke:#050505;stroke-miterlimit:10;enable-background:new    ;}
	.st5{fill:#050505;}
	.st6{fill:#CBD5E0;}
	.st7{fill:#EDF2F7;}
	.st8{fill:#FFFFFF;}
	.st9{opacity:0.5;fill:#CBD5E0;enable-background:new    ;}
	.st10{opacity:0.5;fill:#DCE0ED;enable-background:new    ;}
	.st11{opacity:0.1;fill:#CBD5E0;}
	.st12{opacity:0.5;}
	.st13{fill:#4C3B30;}
</style>
<path class="st0" d="M44.7,596.1C-30.9,516.6,11,381,95.4,303.1s211.1-98.3,331.2-153.8S660,3.1,798.5,6.8s302.2,101.9,351.2,213
	s-16.7,235.3-96.8,314.7S878.7,648.7,785.4,672.3s-186.1,36.6-329,31.5S120.3,675.4,44.7,596.1z"/>
<path class="st1" d="M335.6,569.5l-0.6-0.2L335.6,569.5z"/>
<path class="st1" d="M336,569.5L336,569.5z"/>
<polygon class="st2" points="176.2,542.6 161.4,541.6 166.4,563.8 183.1,556.9 "/>
<polygon class="st3" points="312,501.1 277.4,467.6 257.7,482.9 218.7,529.8 223.1,536.7 270.5,504.6 302.6,546.5 333.2,531.2 "/>
<polygon class="st4" points="312,501.1 277.4,467.6 257.7,482.9 218.7,529.8 223.1,536.7 270.5,504.6 302.6,546.5 333.2,531.2 "/>
<path class="st2" d="M314.9,523.3l-4.4,3.5l-36.1-12.3l-8.3-3.5l-16.8,3.5c0,0,0-13.9,15.8-13.4l16.3,4l19.2,1.5L314.9,523.3z"/>
<polygon class="st5" points="347,559.9 336.1,566.8 323.3,566.8 263.6,544.6 176.2,560.3 173.8,541.6 253.7,506.6 323.8,529.8 "/>
<path class="st2" d="M276.9,472l-7.4,1.5l-1.6-1.9c-2.6-3-3.1-7.3-1.4-10.9l0,0l20.8-27.2c0,0,5.9-13.3,15.3-7.9s-7.9,14.3-7.9,14.3
	l-10.4,16.3l1,8.4L276.9,472z"/>
<circle class="st2" cx="323.8" cy="420.7" r="19.2"/>
<path class="st2" d="M315.2,434.7L324,456l21.3-8.9c0,0-6.9-16.8-6.9-17.3S315.2,434.7,315.2,434.7z"/>
<path class="st6" d="M373.6,497.5c0,11.6-1.8,23.2-5.4,34.2l-1.5,4.5l-6.9,31.6l-7.4,1.9l-5.4-6.9l-10.9-7.9l-7.9-12.8l-6.7-11.3
	l-2.1-3.5l-7.4-37l-28.2-15.8l-9.4-1.5l2-5.4l8.4-11.4l8.4-1l2.5-1.9l1.9,0.9l7.9-4.4l2.5,1l14.4,1.3l8.8-1.8l12.6-6.8l5.2,0.9
	l17.7,14.8C371.3,471.4,373.6,484.4,373.6,497.5z"/>
<path class="st5" d="M166,550.2c0,0,4.4-7.5,2.5-8.3l-9.8-4.4l-11.6-3.9c0,0-16.8-24.9-17.2-3.2c-0.4,21.7,12.3,26.9,12.3,26.9
	s11.2,24.1,17.5,20.3s12.8-16.9,12.8-16.9S161,554.5,166,550.2z"/>
<polygon class="st1" points="368.2,493.2 349.5,505.6 321.5,530.8 319.4,527.3 313.4,497.7 314.9,497.7 330.2,469.5 "/>
<polygon class="st6" points="330.2,466.6 314.9,494.7 309.5,494.7 306,504.6 298.1,506.6 319.4,529.8 349.5,502.6 368.2,490.3 "/>
<rect x="358.8" y="269.4" class="st7" width="494.8" height="304.2"/>
<rect x="374.1" y="278.8" class="st8" width="464.3" height="285.4"/>
<circle class="st2" cx="333.4" cy="422.9" r="3.5"/>
<rect x="414.4" y="303.9" class="st5" width="58" height="5.4"/>
<rect x="414.4" y="330" class="st9" width="58" height="5.4"/>
<rect x="414.4" y="348.4" class="st9" width="58" height="5.4"/>
<rect x="414.4" y="366.8" class="st9" width="58" height="5.4"/>
<rect x="414.4" y="385.2" class="st9" width="58" height="5.4"/>
<rect x="414.4" y="403.7" class="st9" width="58" height="5.4"/>
<rect x="414.4" y="422.1" class="st9" width="58" height="5.4"/>
<rect x="414.4" y="440.5" class="st9" width="58" height="5.4"/>
<rect x="534.5" y="323.6" class="st10" width="257.2" height="0.9"/>
<rect x="534.5" y="343.5" class="st10" width="257.2" height="0.9"/>
<rect x="534.5" y="363.5" class="st10" width="257.2" height="0.9"/>
<rect x="534.5" y="383.4" class="st10" width="257.2" height="0.9"/>
<rect x="534.5" y="403.4" class="st10" width="257.2" height="0.9"/>
<path class="st11" d="M791.7,404.2H534.1V365l23.7,11.6l24.4,3.3l21.4-6.4l25.9-20.1l13-7.5l9.5-1.8l9.2,0.4l14.6,7.7l20.7,23.5
	l10,5.8c4.4,2.1,9.6,1.7,13.7-0.9l12-13.1l7-7.9c1.8-1.3,4.1-2.2,5.5-4l7.4-2l8.6,0.2l5,1.4l12.7,6.3l13.3,8.6L791.7,404.2z"/>
<path class="st6" d="M579,379.9c-23.2,0-44.6-14.1-44.9-14.3l0.7-1c0.3,0.3,33.3,22.1,61.3,11.1c10.2-4,17.5-10.1,24.6-16.1
	s14.2-12.2,23.7-14.8c11.1-2.9,22.9-0.2,31.7,7.2c7.7,6.3,23.1,33,39.3,30.1c8.2-1.6,15.2-15.9,22.6-22.3c14.1-12.3,28.7-8.3,54,9.8
	l-0.7,1c-24.5-17.7-38.8-21.9-52.6-10c-7.5,6.5-14.6,21-23.1,22.6c-16.7,3.1-32.3-23.9-40.2-30.4c-8.5-7.1-20-9.6-30.7-6.9
	c-9.2,2.5-16.1,8.4-23.3,14.5s-14.5,12.4-24.9,16.4C590.9,378.9,585,380,579,379.9z"/>
<circle class="st5" cx="658.2" cy="343.9" r="6.4"/>
<g class="st12">
	<rect x="557.2" y="448.9" class="st6" width="37.8" height="8"/>
	<rect x="644" y="448.9" class="st6" width="37.8" height="8"/>
	<rect x="730.8" y="448.9" class="st6" width="37.8" height="8"/>
</g>
<path class="st5" d="M554.5,504.9c0-11.7,9.5-20.7,21.3-20.7h0.1v-5.3h-0.2c-14.6,0-26.5,11.4-26.5,26c0,7.7,3.3,15,9.1,20l3.7-3.8
	C557.2,517.1,554.5,511.1,554.5,504.9z"/>
<path class="st9" d="M576.4,478.9v5.3c11.7-0.7,21.9,8.2,22.6,19.9s-8.2,21.9-19.9,22.6c-1,0.1-1.9,0.1-2.9,0c-5,0-9.8-1.8-13.6-5.1
	l-3.8,3.8c11,9.7,27.8,8.7,37.6-2.2s8.7-27.8-2.2-37.6C589.2,481.3,582.9,478.9,576.4,478.9L576.4,478.9z"/>
<path class="st9" d="M750.6,484c11.7,0,20.7,9.5,20.7,21.2v0.2h5.3v-0.2c0-14.7-11.4-26.6-26-26.6c-7.7,0-14.9,3.3-20,9.1l3.8,3.8
	C738.4,486.7,744.4,484,750.6,484z"/>
<path class="st5" d="M776.6,505.9h-5.3c-0.9,11.7-11.1,20.5-22.8,19.6c-10.6-0.8-19-9.3-19.7-19.9c0-5,1.8-9.8,5.1-13.6l-3.8-3.7
	c-9.6,11-8.5,27.8,2.5,37.5s27.8,8.5,37.5-2.5C774.3,518.4,776.6,512.3,776.6,505.9L776.6,505.9z"/>
<path class="st9" d="M673.4,480.5l-1.1,5.3c7.8,3.1,12.8,10.8,12.8,19.7c0,11.8-9.5,21.3-21.2,21.4c-11.8,0-21.3-9.5-21.4-21.2
	c0-8.5,5-16.3,12.9-19.6l-2.4-4.8c-13.4,6-19.5,21.7-13.5,35.1c6,13.4,21.7,19.5,35.1,13.5c9.6-4.3,15.8-13.9,15.8-24.4
	C690.6,494.3,683.8,484.4,673.4,480.5z"/>
<path class="st5" d="M664.5,483.9c2.6,0,5.1,0.5,7.4,1.6l1.1-5.3c-2.7-1.1-5.6-1.6-8.5-1.6c-3.7,0-7.4,0.8-10.8,2.3l2.3,4.8
	C658.7,484.5,661.6,483.9,664.5,483.9z"/>
<rect x="358.8" y="255.2" class="st5" width="494.9" height="14.2"/>
<circle class="st6" cx="831" cy="262.3" r="2.6"/>
<circle class="st6" cx="820.2" cy="262.3" r="2.6"/>
<circle class="st6" cx="841" cy="262.3" r="2.6"/>
<path class="st13" d="M310,410.5c-1,0.5-2.2,0.5-3.2,0.1c-1-0.3-2.1-1.5-1.8-2.5l1.4-0.2l-1.4-2.5l1.8-0.3l-0.5-2.7l1.8-0.3l-1.4-3
	c6.1-3.8,13.1-6,20.2-6.3c7.3-0.7,14.3,3,17.9,9.4c1.4,3.6,1.9,7.5,1.5,11.3c-0.2,7.4-1.9,14.6-5.1,21.3c-0.5-3.2-2.9-6-3.4-9.1
	c-0.3-1.4-0.7-2.7-1.2-4c-1.4-2.4-3.4-4.4-5.7-6c-1.1-1.7-2.1-3.6-2.8-5.5c-0.9-2.6-1.3-2.1-4-1.6L310,410.5z"/>
</svg>
