<svg id="b7c4787f-e4a8-4036-aa60-d215daeece2d" xmlns="http://www.w3.org/2000/svg" viewBox="0 0 882 598.5"><path d="M865.9,126.7c27.8,65.1,15.4,134.7-5.3,203.3S811.1,465.7,742.4,504,565,551.5,459,569.2s-209.9,44.2-275.1,18.9S92.3,486,64.4,428.3,6.4,331.5.9,291.5s13.5-81.3,39.2-123.7S97.8,81.7,150.7,75.4,277.2,100.3,372.9,84,585.7,4.4,678.3,2.8,838.4,61.5,865.9,126.7Z" fill="#f7fafc"/><circle cx="424.4" cy="281.2" r="201.7" fill="#e2e8f0"/><path d="M424.4,318a36,36,0,1,1,35.9-35.9h0A35.9,35.9,0,0,1,424.4,318Zm0-70.1a34.2,34.2,0,1,0,34.2,34.2h0a34.3,34.3,0,0,0-34.2-34.2Z" fill="#050505" style="isolation:isolate"/><path d="M424.4,350.5a68.4,68.4,0,1,1,68.3-68.4h0A68.4,68.4,0,0,1,424.4,350.5Zm0-135A66.6,66.6,0,1,0,491,282.1a66.7,66.7,0,0,0-66.6-66.6Z" fill="#050505" style="isolation:isolate"/><path d="M424.4,378.5a96.5,96.5,0,1,1,96.4-96.4A96.4,96.4,0,0,1,424.4,378.5Zm0-191.1a94.7,94.7,0,1,0,94.7,94.7h0a94.9,94.9,0,0,0-94.7-94.7Z" fill="#050505" style="isolation:isolate"/><path d="M424.4,415.4c-73.5,0-133.3-59.8-133.3-133.3s59.8-133.3,133.3-133.3,133.2,59.8,133.2,133.3S497.8,415.4,424.4,415.4Zm0-264.8c-72.6,0-131.6,59-131.6,131.5s59,131.5,131.6,131.5,131.5-59,131.5-131.5-59-131.5-131.5-131.5Z" fill="#050505" style="isolation:isolate"/><path d="M424.4,446.1c-90.5,0-164-73.6-164-164s73.5-164,164-164,163.9,73.6,163.9,164S514.8,446.1,424.4,446.1Zm0-326.2c-89.5,0-162.3,72.8-162.3,162.2s72.8,162.2,162.3,162.2,162.2-72.8,162.2-162.2S513.8,119.9,424.4,119.9Z" fill="#050505" style="isolation:isolate"/><circle cx="424.4" cy="281.2" r="16.7" fill="#f7fafc" opacity="0.3" style="isolation:isolate"/><circle cx="467.3" cy="329.4" r="16.7" fill="#f7fafc" opacity="0.3" style="isolation:isolate"/><circle cx="350.7" cy="322.4" r="16.7" transform="translate(-23.7 617) rotate(-80.8)" fill="#f7fafc" opacity="0.3" style="isolation:isolate"/><circle cx="424.4" cy="281.2" r="7.9" fill="#2f2e41"/><circle cx="350.7" cy="322.4" r="7.9" fill="#2f2e41"/><circle cx="467.3" cy="330.3" r="7.9" fill="#2f2e41"/><polygon points="424.8 281.7 423 281.7 423 191.3 771.1 191.3 771.1 193.1 424.8 193.1 424.8 281.7" fill="#050505"/><path d="M792.6,215.5a22.8,22.8,0,1,1,22.8-22.8A22.8,22.8,0,0,1,792.6,215.5Zm0-43.9a21.1,21.1,0,1,0,21.1,21.1,21,21,0,0,0-21.1-21.1Z" fill="#050505"/><path d="M740,442.6a22.8,22.8,0,1,1,22.8-22.8h0A22.9,22.9,0,0,1,740,442.6Zm0-43.9a21.1,21.1,0,1,0,21.1,21.1A21,21,0,0,0,740,398.7Z" fill="#050505"/><path d="M106.1,252.3a22.8,22.8,0,1,1,22.8-22.8A22.8,22.8,0,0,1,106.1,252.3Zm0-43.9a21.1,21.1,0,1,0,21,21.1h0a21.1,21.1,0,0,0-21-21.1Z" fill="#050505"/><polygon points="351.6 322.4 349.8 322.4 349.8 233.9 128 230.4 128 228.6 351.6 232.1 351.6 322.4" fill="#050505"/><polygon points="718.1 420.6 466.4 420.6 466.4 330.3 468.2 330.3 468.2 418.9 718.1 418.9 718.1 420.6" fill="#050505"/><rect x="744.4" y="233.9" width="96.5" height="6.14" fill="#050505"/><rect x="744.4" y="251.4" width="96.5" height="6.14" fill="#050505"/><rect x="744.4" y="268.9" width="96.5" height="6.14" fill="#050505"/><rect x="691.8" y="461" width="96.5" height="6.14" fill="#050505"/><rect x="724.3" y="416.7" width="31.4" height="6.14" transform="translate(-80.1 646.2) rotate(-45)" fill="#050505"/><rect x="736.9" y="404.1" width="6.1" height="31.39" transform="translate(-80.1 646.2) rotate(-45)" fill="#050505"/><rect x="776.9" y="189.6" width="31.4" height="6.14" transform="translate(95.9 616.9) rotate(-45)" fill="#050505"/><rect x="789.6" y="177" width="6.1" height="31.39" transform="translate(95.9 616.9) rotate(-45)" fill="#050505"/><rect x="90.4" y="225.5" width="31.4" height="6.14" transform="translate(-130.6 142) rotate(-45)" fill="#050505"/><rect x="103" y="212.9" width="6.1" height="31.39" transform="translate(-130.6 142) rotate(-45)" fill="#050505"/><rect x="691.8" y="478.5" width="96.5" height="6.14" fill="#050505"/><rect x="691.8" y="496" width="96.5" height="6.14" fill="#050505"/><rect x="57.8" y="271.6" width="96.5" height="6.14" fill="#050505"/><rect x="57.8" y="289.1" width="96.5" height="6.14" fill="#050505"/><rect x="57.8" y="306.6" width="96.5" height="6.14" fill="#050505"/></svg>