<svg xmlns="http://www.w3.org/2000/svg" viewBox="0 0 730.4 786.7"><path d="M629.4,7.1c65.1,21.2,110.5,93.7,99.2,164.1S649.2,310.1,618.2,369.5s-25.1,109.4-34.7,177.8-35.2,155.2-91.7,202.1S347.7,803,307,746.6s-34.2-175.5-91.7-240.5S36.7,431,7.5,392.1,40.8,286.2,94.3,233.7s97.9-89.9,146.5-118.6,101-48.6,169.8-73.7S564.1-14,629.4,7.1Z" fill="#edf2f7"/><rect x="160.5" y="83.6" width="475.6" height="552.23" fill="#050505"/><rect x="166" y="90" width="464.5" height="539.36" fill="#f7fafc"/><rect x="194.1" y="150.8" width="117.4" height="9.35" fill="#050505"/><rect x="194.1" y="173.7" width="200.6" height="9.35" fill="#050505"/><rect x="525" y="141.9" width="83.3" height="71.92" fill="#fff"/><path d="M607.9,142.3v71.1H525.3V142.3h82.6m.8-.8H524.5v72.7h84.2Z" fill="#edf2f7"/><rect x="440.8" y="141.9" width="83.3" height="71.92" fill="#fff"/><path d="M523.7,142.3v71.1H441.2V142.3h82.5m.8-.8H440.3v72.7h84.2Z" fill="#edf2f7"/><rect x="525" y="214.7" width="83.3" height="71.92" fill="#fff"/><path d="M607.9,215.1v71.1H525.3V215.1h82.6m.8-.9H524.5V287h84.2Z" fill="#edf2f7"/><rect x="440.8" y="214.7" width="83.3" height="71.92" fill="#fff"/><path d="M523.7,215.1v71.1H441.2V215.1h82.5m.8-.9H440.3V287h84.2Z" fill="#edf2f7"/><rect x="356.6" y="214.7" width="83.3" height="71.92" fill="#fff"/><path d="M439.5,215.1v71.1H357V215.1h82.5m.9-.9H356.2V287h84.2Z" fill="#edf2f7"/><rect x="272.4" y="214.7" width="83.3" height="71.92" fill="#fff"/><path d="M355.4,215.1v71.1H272.8V215.1h82.6m.8-.9H272V287h84.2Z" fill="#edf2f7"/><rect x="188.3" y="214.7" width="83.3" height="71.92" fill="#fff"/><path d="M271.2,215.1v71.1H188.7V215.1h82.5m.8-.9H187.8V287H272Z" fill="#edf2f7"/><rect x="525" y="287.4" width="83.3" height="71.92" fill="#fff"/><path d="M607.9,287.8v71.1H525.3V287.8h82.6m.8-.8H524.5v72.7h84.2Z" fill="#edf2f7"/><rect x="440.8" y="287.4" width="83.3" height="71.92" fill="#fff"/><path d="M523.7,287.8v71.1H441.2V287.8h82.5m.8-.8H440.3v72.7h84.2Z" fill="#edf2f7"/><rect x="356.6" y="287.4" width="83.3" height="71.92" fill="#fff"/><path d="M439.5,287.8v71.1H357V287.8h82.5m.9-.8H356.2v72.7h84.2Z" fill="#edf2f7"/><rect x="272.4" y="287.4" width="83.3" height="71.92" fill="#fff"/><path d="M355.4,287.8v71.1H272.8V287.8h82.6m.8-.8H272v72.7h84.2Z" fill="#edf2f7"/><rect x="188.3" y="287.4" width="83.3" height="71.92" fill="#fff"/><path d="M271.2,287.8v71.1H188.7V287.8h82.5m.8-.8H187.8v72.7H272Z" fill="#edf2f7"/><rect x="525" y="360.1" width="83.3" height="71.92" fill="#fff"/><path d="M607.9,360.6v71H525.3v-71h82.6m.8-.9H524.5v72.8h84.2Z" fill="#edf2f7"/><rect x="440.8" y="360.1" width="83.3" height="71.92" fill="#fff"/><path d="M523.7,360.6v71H441.2v-71h82.5m.8-.9H440.3v72.8h84.2Z" fill="#edf2f7"/><rect x="356.6" y="360.1" width="83.3" height="71.92" fill="#fff"/><path d="M439.5,360.6v71H357v-71h82.5m.9-.9H356.2v72.8h84.2Z" fill="#edf2f7"/><rect x="272.4" y="360.1" width="83.3" height="71.92" fill="#fff"/><path d="M355.4,360.6v71H272.8v-71h82.6m.8-.9H272v72.8h84.2Z" fill="#edf2f7"/><rect x="188.3" y="360.1" width="83.3" height="71.92" fill="#fff"/><path d="M271.2,360.6v71H188.7v-71h82.5m.8-.9H187.8v72.8H272Z" fill="#edf2f7"/><rect x="525" y="432.9" width="83.3" height="71.92" fill="#fff"/><path d="M607.9,433.3v71.1H525.3V433.3h82.6m.8-.8H524.5v72.7h84.2Z" fill="#edf2f7"/><rect x="440.8" y="432.9" width="83.3" height="71.92" fill="#fff"/><path d="M523.7,433.3v71.1H441.2V433.3h82.5m.8-.8H440.3v72.7h84.2Z" fill="#edf2f7"/><rect x="356.6" y="432.9" width="83.3" height="71.92" fill="#fff"/><path d="M439.5,433.3v71.1H357V433.3h82.5m.9-.8H356.2v72.7h84.2Z" fill="#edf2f7"/><rect x="272.4" y="432.9" width="83.3" height="71.92" fill="#fff"/><path d="M355.4,433.3v71.1H272.8V433.3h82.6m.8-.8H272v72.7h84.2Z" fill="#edf2f7"/><rect x="188.3" y="432.9" width="83.3" height="71.92" fill="#fff"/><path d="M271.2,433.3v71.1H188.7V433.3h82.5m.8-.8H187.8v72.7H272Z" fill="#edf2f7"/><rect x="525" y="505.6" width="83.3" height="71.92" fill="#fff"/><path d="M607.9,506.1v71H525.3v-71h82.6m.8-.9H524.5V578h84.2Z" fill="#edf2f7"/><rect x="440.8" y="505.6" width="83.3" height="71.92" fill="#fff"/><path d="M523.7,506.1v71H441.2v-71h82.5m.8-.9H440.3V578h84.2Z" fill="#edf2f7"/><rect x="356.6" y="505.6" width="83.3" height="71.92" fill="#fff"/><path d="M439.5,506.1v71H357v-71h82.5m.9-.9H356.2V578h84.2Z" fill="#edf2f7"/><rect x="272.4" y="505.6" width="83.3" height="71.92" fill="#fff"/><path d="M355.4,506.1v71H272.8v-71h82.6m.8-.9H272V578h84.2Z" fill="#edf2f7"/><rect x="188.3" y="505.6" width="83.3" height="71.92" fill="#fff"/><path d="M271.2,506.1v71H188.7v-71h82.5m.8-.9H187.8V578H272Z" fill="#edf2f7"/><circle cx="199.2" cy="225.6" r="4.8" fill="#edf2f7"/><circle cx="211.1" cy="225.6" r="4.8" fill="#edf2f7"/><circle cx="367" cy="296" r="4.8" fill="#e2e8f0"/><circle cx="378.9" cy="296" r="4.8" fill="#050505"/><circle cx="537.2" cy="225.6" r="4.8" fill="#edf2f7"/><circle cx="549" cy="225.6" r="4.8" fill="#edf2f7"/><circle cx="560.9" cy="225.6" r="4.8" fill="#edf2f7"/><circle cx="572.8" cy="225.6" r="4.8" fill="#edf2f7"/><circle cx="537.2" cy="372.8" r="4.8" fill="#e2e8f0"/><circle cx="549" cy="372.8" r="4.8" fill="#e2e8f0"/><circle cx="560.9" cy="372.8" r="4.8" fill="#e2e8f0"/><circle cx="572.8" cy="372.8" r="4.8" fill="#edf2f7"/><circle cx="283.1" cy="296" r="4.8" fill="#edf2f7"/><circle cx="199.2" cy="368" r="4.8" fill="#edf2f7"/></svg>