<svg xmlns="http://www.w3.org/2000/svg" viewBox="0 0 395.9 677.1"><path data-name="Path 84" d="M200.1 601.8c54.8 24.8 63.7 38.1 114.1 29.8 72.4-15.2-29.5-123.8 10.7-191.5 35.5-59.8 93.8-139.2 32.2-249.6S221.8-1.7 180.1 13.9 155.2 152 129.8 246.7 36.6 407.9 53.5 469.1s91.8 107.8 146.6 132.7z" fill="none" stroke="#edf2f7" stroke-width="20"/><path data-name="Path 18" d="M163.2 614.4c54.8 24.7 104.8 58.4 154.2 50.8S280.4 531 288 452.6c7.3-75.6 87.8-134.9 38.1-238.3-1.8-3.6-3.8-7.4-5.9-11.3-61.6-110.2-135.3-192.1-177-176.6S91.8 155.3 66.4 250-.3 420.5 16.6 481.7s91.8 107.8 146.6 132.7z" fill="none" stroke="#cbd5e0" stroke-width="20"/></svg>