<svg id="b5526f3e-55c6-486e-a964-bc5b81439e12" xmlns="http://www.w3.org/2000/svg" viewBox="0 0 870.6 714.6"><path d="M428.7,702.6c-111.3,8.7-248.7,11-333-65.6S-19.5,405.4,32.6,296.9s187.1-170.4,325.2-217S637,2.6,732.2,56.5s144.6,192.6,133.5,308S783,571.7,704.4,625.1,540.3,693.9,428.7,702.6Z" fill="#f7fafc"/><path d="M240,676.1c-26.5-7.7-57.4-18.1-59.9-32.4s23.5-32.4,58-39.3,77.4-2.8,117.8,3.1,78.2,13.8,87.9,26.6-8.7,30.7-35.6,41.5-62.1,14.6-90.8,13.9S266.5,683.8,240,676.1Z" fill="#cbd5e0"/><path d="M256.6,336.1l-3.1,20.1-13.9,54.2s-17.8,23.2-2.3,27.8,13.1-27.1,13.1-27.1l19.4-38.7V337.6Z" fill="#ffd9d9"/><polygon points="312.3 552 319.3 565.1 303 573.7 296.9 561.3 312.3 552" fill="#ffd9d9"/><path d="M296.9,566.7s12.3-1.6,14.7,0,3.8-7,7.7-5.4S334,576,331.7,577.5s-12.4,20.1-12.4,20.1-10.8,26.4-20.1,21.7-2.3-28.6-2.3-28.6Z" fill="#1a202c"/><polygon points="329.4 595.3 327 620.9 306.9 617.8 314.6 593.8 329.4 595.3" fill="#ffd9d9"/><path d="M306.9,610.8l4.7,2.3s6.9-11.6,12.3-5.4,7,5.4,7,5.4L341,635.6s13.9,22.4-4.7,22.4-20.9-8.5-20.9-8.5-10-7-10-10.8S306.9,610.8,306.9,610.8Z" fill="#1a202c"/><path d="M281.4,495.5l4.6,7.7s17.8,17.8,20.1,27.1,13.2,24,13.2,24l-23.2,12.4s-45.7-53.4-41.8-61.2Z" fill="#2d3748"/><circle cx="300.7" cy="235.5" r="21.7" fill="#ffd9d9"/><path d="M308.5,250.2s-.8,16.2,10.8,19.3-18.6,18.6-18.6,18.6-23.2.8-21.6-10.9l5.4-4.6-.8-29.4Z" fill="#ffd9d9"/><path d="M264.3,292s-6.9,1-8.5,7.8-2.3,42.5-2.3,42.5h18.6Z" fill="#a0aec0"/><path d="M322.1,216.6l1.5-3.2-2.5-.3.6-3-3.2,2.3a6.8,6.8,0,0,0-1.1-6.3,12.7,12.7,0,0,0-5.3-3.8,24,24,0,0,0-24.6,4.3l-.2-.9a31.2,31.2,0,0,0-11.9,20.6c-1,8.1,2.9,16.3,7.9,22.7-.5-3.4-1.4-6.7.2-9.7a22,22,0,0,1,2.1-3.2l4.1-5.8c2.3-3.4,5.1-7,9.2-7.6h3.4c5,.4,10.3,1.4,15.3,1.2s5.3-3.2,6.5-6.9Z" fill="#513b2c"/><rect x="547.9" y="498.4" width="49.3" height="42.69" fill="#cbd5e0"/><rect x="554.6" y="522.4" width="35.6" height="1.92" fill="#2d3748"/><rect x="554.1" y="526.6" width="35.6" height="1.92" fill="#2d3748"/><rect x="554.6" y="530.9" width="35.6" height="1.92" fill="#2d3748"/><rect x="554.6" y="508.3" width="35.6" height="1.92" fill="#2d3748"/><rect x="554.1" y="512.5" width="35.6" height="1.92" fill="#2d3748"/><rect x="554.6" y="516.8" width="35.6" height="1.92" fill="#2d3748"/><rect x="562" y="512.5" width="49.3" height="42.69" fill="#cbd5e0"/><rect x="568.7" y="536.5" width="35.6" height="1.92" fill="#2d3748"/><rect x="568.2" y="540.7" width="35.6" height="1.92" fill="#2d3748"/><rect x="568.7" y="545" width="35.6" height="1.92" fill="#2d3748"/><rect x="568.7" y="522.4" width="35.6" height="1.92" fill="#2d3748"/><rect x="568.2" y="526.6" width="35.6" height="1.92" fill="#2d3748"/><rect x="568.7" y="530.9" width="35.6" height="1.92" fill="#2d3748"/><rect x="379.9" y="170.6" width="49.3" height="42.69" fill="#cbd5e0"/><rect x="386.5" y="194.6" width="35.6" height="1.92" fill="#2d3748"/><rect x="386.1" y="198.8" width="35.6" height="1.92" fill="#2d3748"/><rect x="386.5" y="203" width="35.6" height="1.92" fill="#2d3748"/><rect x="386.5" y="180.5" width="35.6" height="1.92" fill="#2d3748"/><rect x="386.1" y="184.7" width="35.6" height="1.92" fill="#2d3748"/><rect x="386.5" y="188.9" width="35.6" height="1.92" fill="#2d3748"/><polygon points="467.1 478.3 466.6 478.7 497.9 522.7 529 522.7 529 522 498.2 522 467.1 478.3" fill="#2f2e41"/><polygon points="513.1 217.7 447.3 161.4 403.1 161.4 403.1 160.6 447.6 160.6 513.6 217.1 513.1 217.7" fill="#2f2e41"/><circle cx="529.7" cy="522.8" r="6.6" fill="#2d3748"/><circle cx="403.1" cy="161" r="6.6" fill="#2d3748"/><rect x="335.1" y="238.8" width="333.6" height="213.62" fill="#cbd5e0"/><rect x="344.6" y="265.6" width="314.5" height="174.19" fill="#fff"/><rect x="335" y="238.6" width="333.6" height="14.17" fill="#2d3748"/><circle cx="643.4" cy="245.8" r="2.6" fill="#cbd5e0"/><circle cx="632.6" cy="245.8" r="2.6" fill="#cbd5e0"/><circle cx="653.4" cy="245.8" r="2.6" fill="#cbd5e0"/><path d="M570.1,281.9H467.7a.8.8,0,0,1-.7-1c-.1-.4.2-.7.6-.8H570.1a.8.8,0,0,1,.8.8v.2C570.9,281.5,570.5,281.8,570.1,281.9Z" fill="#cbd5e0"/><path d="M499.2,291.8H434.1a.9.9,0,0,1-.8-1h0c.1-.4.4-.8.8-.8h65.1a.9.9,0,0,1,.8,1h0A1.1,1.1,0,0,1,499.2,291.8Z" fill="#cbd5e0"/><path d="M570.1,292H505a1.1,1.1,0,0,1-.8-1.1.8.8,0,0,1,.8-.7h65.1a.8.8,0,0,1,.8.8v.2C570.9,291.6,570.5,291.9,570.1,292Z" fill="#cbd5e0"/><path d="M499.3,301.7H434.2a.7.7,0,0,1-.7-.9h0a.8.8,0,0,1,.7-.8h65.1a.9.9,0,0,1,.8,1h0C500.1,301.3,499.8,301.6,499.3,301.7Z" fill="#cbd5e0"/><path d="M499.5,311.6H434.4a1,1,0,0,1-.8-1,1.1,1.1,0,0,1,.8-.8h65.1a1,1,0,0,1,.8,1A1.1,1.1,0,0,1,499.5,311.6Z" fill="#cbd5e0"/><path d="M529,301.7H510.4a1,1,0,0,1-.8-1c.1-.4.4-.8.8-.8H529a.9.9,0,0,1,.8,1h0C529.8,301.3,529.5,301.6,529,301.7Z" fill="#cbd5e0"/><path d="M342.5,387.1s3.9,20.2,3.1,32.5-6.2,92.9-6.2,92.9l-6.2,90.6-26.3-2.4,2.3-86.6-8.5-62.7L286,503.2l-31.7,2.3s-6.2-76.6,5.4-85.1S342.5,387.1,342.5,387.1Z" fill="#2d3748"/><path d="M529,311.4H510.4a.9.9,0,0,1-.8-1h0a1.1,1.1,0,0,1,.8-.8H529a.9.9,0,0,1,.8,1h0A.9.9,0,0,1,529,311.4Z" fill="#cbd5e0"/><path d="M560.3,311.4H541.7a.8.8,0,0,1-.8-.8v-.2a1.1,1.1,0,0,1,.8-.8h18.6a.9.9,0,0,1,.8,1h0A.9.9,0,0,1,560.3,311.4Z" fill="#cbd5e0"/><path d="M452.3,281.9H433.6a1,1,0,0,1-.8-1c.1-.5.4-.8.8-.8h18.7a.7.7,0,0,1,.7.9h0A.8.8,0,0,1,452.3,281.9Z" fill="#cbd5e0"/><path d="M314.3,266s-16.7,18.6-31.4,7.9c0,0-27.8,12.6-27.1,27.3s11.6,38,11.6,38l-2.3,51s-26.3,33.3-9.3,34.9,52.7-.8,71.2-24.8c0,0,17.8,4.6,17.8-3.1V347.7l6.2-68.1Z" fill="#a0aec0"/><path d="M498.9,395.5h-65a.9.9,0,0,1-.8-1h0c0-.4.3-.7.8-.8h65a.9.9,0,0,1,.8,1h0C499.7,395.1,499.4,395.4,498.9,395.5Z" fill="#cbd5e0"/><path d="M498.6,415.3H433.5a.7.7,0,0,1-.7-.9h0a.8.8,0,0,1,.7-.8h65.1a.9.9,0,0,1,.8,1h0A.9.9,0,0,1,498.6,415.3Z" fill="#cbd5e0"/><path d="M498.8,425.2H433.7a.8.8,0,0,1-.8-.8v-.2a1.1,1.1,0,0,1,.8-.8h65.1a1.1,1.1,0,0,1,.8,1.1.8.8,0,0,1-.8.7Z" fill="#cbd5e0"/><path d="M526.6,415.5H508a.9.9,0,0,1-.8-1h0c0-.4.3-.7.8-.8h18.6a1,1,0,0,1,.8,1A1.1,1.1,0,0,1,526.6,415.5Z" fill="#cbd5e0"/><path d="M526.6,425.2H508a.8.8,0,0,1-.8-.8v-.2c0-.4.3-.7.8-.8h18.6a1.1,1.1,0,0,1,.8,1.1.8.8,0,0,1-.8.7Z" fill="#cbd5e0"/><path d="M557.9,415.5H539.2a.7.7,0,0,1-.7-.9h0a.8.8,0,0,1,.7-.8h18.7a1,1,0,0,1,.8,1A1.1,1.1,0,0,1,557.9,415.5Z" fill="#cbd5e0"/><path d="M570.2,405.4H467.8a1,1,0,0,1-.8-1,1.1,1.1,0,0,1,.8-.8H570.2a.9.9,0,0,1,.8,1h0C570.9,405,570.6,405.4,570.2,405.4Z" fill="#cbd5e0"/><path d="M452.3,405.4H433.7a.9.9,0,0,1-.8-1h0a1.1,1.1,0,0,1,.8-.8h18.6a.9.9,0,0,1,.8,1h0A.9.9,0,0,1,452.3,405.4Z" fill="#cbd5e0"/><polygon points="483.2 327.6 457.9 352.6 483.2 377.5 488.9 371.9 469.8 352.7 489.1 333.5 483.2 327.6" fill="#e6e6e6"/><polygon points="520.5 327.6 545.8 352.6 520.5 377.5 514.8 371.9 533.9 352.7 514.7 333.5 520.5 327.6" fill="#e6e6e6"/><polygon points="483.2 327.6 457.9 352.6 483.2 377.5 488.9 371.9 469.8 352.7 489.1 333.5 483.2 327.6" fill="#2d3748"/><polygon points="520.5 327.6 545.8 352.6 520.5 377.5 514.8 371.9 533.9 352.7 514.7 333.5 520.5 327.6" fill="#2d3748"/><polygon points="365.9 324.5 370.6 360.8 346.6 410.4 343.5 423.5 336.9 403 349.7 358.5 342.7 329.1 365.9 324.5" fill="#ffd9d9"/><polygon points="344.6 281.1 352.3 279.6 369.3 327.6 338.4 334.5 344.6 281.1" fill="#a0aec0"/></svg>