<svg xmlns="http://www.w3.org/2000/svg" viewBox="0 0 870.6 714.6"><path d="M428.7 702.6c-111.3 8.7-248.7 11-333-65.6S-19.5 405.4 32.6 296.9s187.1-170.4 325.2-217S637 2.6 732.2 56.5s144.6 192.6 133.5 308S783 571.7 704.4 625.1s-164.1 68.8-275.7 77.5z" fill="#f7fafc"/><path d="M240 676.1c-26.5-7.7-57.4-18.1-59.9-32.4s23.5-32.4 58-39.3 77.4-2.8 117.8 3.1 78.2 13.8 87.9 26.6-8.7 30.7-35.6 41.5-62.1 14.6-90.8 13.9-50.9-5.7-77.4-13.4z" fill="#cbd5e0"/><path d="M256.6 336.1l-3.1 20.1-13.9 54.2s-17.8 23.2-2.3 27.8 13.1-27.1 13.1-27.1l19.4-38.7v-34.8zM312.3 552l7 13.1-16.3 8.6-6.1-12.4 15.4-9.3z" fill="#ffd9d9"/><path d="M296.9 566.7s12.3-1.6 14.7 0 3.8-7 7.7-5.4 14.7 14.7 12.4 16.2-12.4 20.1-12.4 20.1-10.8 26.4-20.1 21.7-2.3-28.6-2.3-28.6z" fill="#050505"/><path fill="#ffd9d9" d="M329.4 595.3l-2.4 25.6-20.1-3.1 7.7-24 14.8 1.5z"/><path d="M306.9 610.8l4.7 2.3s6.9-11.6 12.3-5.4 7 5.4 7 5.4l10.1 22.5s13.9 22.4-4.7 22.4-20.9-8.5-20.9-8.5-10-7-10-10.8 1.5-27.9 1.5-27.9zM281.4 495.5l4.6 7.7s17.8 17.8 20.1 27.1 13.2 24 13.2 24l-23.2 12.4s-45.7-53.4-41.8-61.2z" fill="#050505"/><circle cx="300.7" cy="235.5" r="21.7" fill="#ffd9d9"/><path d="M308.5 250.2s-.8 16.2 10.8 19.3-18.6 18.6-18.6 18.6-23.2.8-21.6-10.9l5.4-4.6-.8-29.4z" fill="#ffd9d9"/><path d="M264.3 292s-6.9 1-8.5 7.8-2.3 42.5-2.3 42.5h18.6zM547.9 498.4h49.3v42.7h-49.3z" fill="#cbd5e0"/><path fill="#050505" d="M554.6 522.4h35.6v1.9h-35.6zM554.1 526.6h35.6v1.9h-35.6zM554.6 530.9h35.6v1.9h-35.6zM554.6 508.3h35.6v1.9h-35.6zM554.1 512.5h35.6v1.9h-35.6zM554.6 516.8h35.6v1.9h-35.6z"/><path fill="#cbd5e0" d="M562 512.5h49.3v42.7H562z"/><path fill="#050505" d="M568.7 536.5h35.6v1.9h-35.6zM568.2 540.7h35.6v1.9h-35.6zM568.7 545h35.6v1.9h-35.6zM568.7 522.4h35.6v1.9h-35.6zM568.2 526.6h35.6v1.9h-35.6zM568.7 530.9h35.6v1.9h-35.6z"/><path fill="#cbd5e0" d="M379.9 170.6h49.3v42.7h-49.3z"/><path fill="#050505" d="M386.5 194.6h35.6v1.9h-35.6zM386.1 198.8h35.6v1.9h-35.6zM386.5 203h35.6v1.9h-35.6zM386.5 180.5h35.6v1.9h-35.6zM386.1 184.7h35.6v1.9h-35.6zM386.5 188.9h35.6v1.9h-35.6zM467.1 478.3l-.5.4 31.3 44H529v-.7h-30.8l-31.1-43.7zM513.1 217.7l-65.8-56.3h-44.2v-.8h44.5l66 56.5-.5.6z"/><circle cx="529.7" cy="522.8" r="6.6" fill="#050505"/><circle cx="403.1" cy="161" r="6.6" fill="#050505"/><path fill="#cbd5e0" d="M335.1 238.8h333.6v213.6H335.1z"/><path fill="#fff" d="M344.6 265.6h314.5v174.2H344.6z"/><path fill="#050505" d="M335 238.6h333.6v14.2H335z"/><circle cx="643.4" cy="245.8" r="2.6" fill="#cbd5e0"/><circle cx="632.6" cy="245.8" r="2.6" fill="#cbd5e0"/><circle cx="653.4" cy="245.8" r="2.6" fill="#cbd5e0"/><path d="M570.1 281.9H467.7a.8.8 0 01-.7-1c-.1-.4.2-.7.6-.8h102.5a.8.8 0 01.8.8v.2c0 .4-.4.7-.8.8zM499.2 291.8h-65.1a.9.9 0 01-.8-1c.1-.4.4-.8.8-.8h65.1a.9.9 0 01.8 1 1.1 1.1 0 01-.8.8zM570.1 292H505a1.1 1.1 0 01-.8-1.1.8.8 0 01.8-.7h65.1a.8.8 0 01.8.8v.2c0 .4-.4.7-.8.8zM499.3 301.7h-65.1a.7.7 0 01-.7-.9.8.8 0 01.7-.8h65.1a.9.9 0 01.8 1c0 .3-.3.6-.8.7zM499.5 311.6h-65.1a1 1 0 01-.8-1 1.1 1.1 0 01.8-.8h65.1a1 1 0 01.8 1 1.1 1.1 0 01-.8.8zM529 301.7h-18.6a1 1 0 01-.8-1c.1-.4.4-.8.8-.8H529a.9.9 0 01.8 1c0 .4-.3.7-.8.8z" fill="#cbd5e0"/><path d="M342.5 387.1s3.9 20.2 3.1 32.5-6.2 92.9-6.2 92.9l-6.2 90.6-26.3-2.4 2.3-86.6-8.5-62.7-14.7 51.8-31.7 2.3s-6.2-76.6 5.4-85.1 82.8-33.3 82.8-33.3z" fill="#050505"/><path d="M529 311.4h-18.6a.9.9 0 01-.8-1 1.1 1.1 0 01.8-.8H529a.9.9 0 01.8 1 .9.9 0 01-.8.8zM560.3 311.4h-18.6a.8.8 0 01-.8-.8v-.2a1.1 1.1 0 01.8-.8h18.6a.9.9 0 01.8 1 .9.9 0 01-.8.8zM452.3 281.9h-18.7a1 1 0 01-.8-1c.1-.5.4-.8.8-.8h18.7a.7.7 0 01.7.9.8.8 0 01-.7.9zM314.3 266s-16.7 18.6-31.4 7.9c0 0-27.8 12.6-27.1 27.3s11.6 38 11.6 38l-2.3 51s-26.3 33.3-9.3 34.9 52.7-.8 71.2-24.8c0 0 17.8 4.6 17.8-3.1v-49.5l6.2-68.1zM498.9 395.5h-65a.9.9 0 01-.8-1c0-.4.3-.7.8-.8h65a.9.9 0 01.8 1c0 .4-.3.7-.8.8zM498.6 415.3h-65.1a.7.7 0 01-.7-.9.8.8 0 01.7-.8h65.1a.9.9 0 01.8 1 .9.9 0 01-.8.7zM498.8 425.2h-65.1a.8.8 0 01-.8-.8v-.2a1.1 1.1 0 01.8-.8h65.1a1.1 1.1 0 01.8 1.1.8.8 0 01-.8.7zM526.6 415.5H508a.9.9 0 01-.8-1c0-.4.3-.7.8-.8h18.6a1 1 0 01.8 1 1.1 1.1 0 01-.8.8zM526.6 425.2H508a.8.8 0 01-.8-.8v-.2c0-.4.3-.7.8-.8h18.6a1.1 1.1 0 01.8 1.1.8.8 0 01-.8.7zM557.9 415.5h-18.7a.7.7 0 01-.7-.9.8.8 0 01.7-.8h18.7a1 1 0 01.8 1 1.1 1.1 0 01-.8.7zM570.2 405.4H467.8a1 1 0 01-.8-1 1.1 1.1 0 01.8-.8h102.4a.9.9 0 01.8 1c-.1.4-.4.8-.8.8zM452.3 405.4h-18.6a.9.9 0 01-.8-1 1.1 1.1 0 01.8-.8h18.6a.9.9 0 01.8 1 .9.9 0 01-.8.8z" fill="#cbd5e0"/><path fill="#e6e6e6" d="M483.2 327.6l-25.3 25 25.3 24.9 5.7-5.6-19.1-19.2 19.3-19.2-5.9-5.9zM520.5 327.6l25.3 25-25.3 24.9-5.7-5.6 19.1-19.2-19.2-19.2 5.8-5.9z"/><path fill="#050505" d="M483.2 327.6l-25.3 25 25.3 24.9 5.7-5.6-19.1-19.2 19.3-19.2-5.9-5.9zM520.5 327.6l25.3 25-25.3 24.9-5.7-5.6 19.1-19.2-19.2-19.2 5.8-5.9z"/><path fill="#ffd9d9" d="M365.9 324.5l4.7 36.3-24 49.6-3.1 13.1-6.6-20.5 12.8-44.5-7-29.4 23.2-4.6z"/><path fill="#cbd5e0" d="M344.6 281.1l7.7-1.5 17 48-30.9 6.9 6.2-53.4z"/><path d="M298.6 222.6c-3.1 0-3.7-.6-4.2 2.6a28.1 28.1 0 01-2.1 6.8 20.6 20.6 0 00-5.2 7.8 25 25 0 00-.5 4.7c0 3.7-2.1 7.3-2.1 11a60.7 60.7 0 01-10-23 29 29 0 01-.5-13.1 20.9 20.9 0 0118.3-14.1 47.2 47.2 0 0124.1 3.1l-1.1 3.7h2.1v3.1h2.1l-1 3.2h1.5c.6 1-.5 2.6-1.5 3.1a4.4 4.4 0 01-3.7.5z" fill="#4c3b30"/></svg>