<svg id="e7d62c2c-c7a6-4c77-8f5c-a3fe0c7ac473" xmlns="http://www.w3.org/2000/svg" xmlns:xlink="http://www.w3.org/1999/xlink" viewBox="0 0 1062 794.4"><defs><linearGradient id="linear-gradient" x1="643.37" y1="268.11" x2="643.37" y2="356.87" gradientTransform="matrix(1, 0, 0, -1, -69, 743.18)" gradientUnits="userSpaceOnUse"><stop offset="0" stop-color="gray" stop-opacity="0.25"/><stop offset="0.54" stop-color="gray" stop-opacity="0.12"/><stop offset="1" stop-color="gray" stop-opacity="0.1"/></linearGradient><linearGradient id="linear-gradient-2" x1="601.43" y1="-50.54" x2="601.43" y2="-29.34" xlink:href="#linear-gradient"/><linearGradient id="linear-gradient-3" x1="567.27" y1="-46.3" x2="567.27" y2="-25.1" xlink:href="#linear-gradient"/><linearGradient id="linear-gradient-4" x1="561.22" y1="-40.11" x2="561.22" y2="-31.95" xlink:href="#linear-gradient"/><linearGradient id="linear-gradient-5" x1="597.88" y1="-39.38" x2="597.88" y2="-30.89" xlink:href="#linear-gradient"/><linearGradient id="linear-gradient-6" x1="584.65" y1="-39.08" x2="584.65" y2="175.4" xlink:href="#linear-gradient"/><linearGradient id="linear-gradient-7" x1="599.49" y1="67.11" x2="599.49" y2="67.68" xlink:href="#linear-gradient"/><linearGradient id="linear-gradient-8" x1="600.1" y1="61.08" x2="600.1" y2="62.39" xlink:href="#linear-gradient"/><linearGradient id="linear-gradient-9" x1="562.27" y1="62.35" x2="562.27" y2="64.56" xlink:href="#linear-gradient"/><linearGradient id="linear-gradient-10" x1="542.45" y1="166.58" x2="542.45" y2="217" xlink:href="#linear-gradient"/><linearGradient id="linear-gradient-11" x1="522.24" y1="355.81" x2="522.24" y2="397.63" gradientTransform="matrix(1, 0, 0, -1, 0, 796)" xlink:href="#linear-gradient"/><linearGradient id="linear-gradient-12" x1="587.13" y1="282.62" x2="587.13" y2="314.83" xlink:href="#linear-gradient"/><linearGradient id="linear-gradient-13" x1="584.99" y1="160.55" x2="584.99" y2="175.5" xlink:href="#linear-gradient"/><linearGradient id="linear-gradient-14" x1="582.86" y1="162.16" x2="582.86" y2="299.24" xlink:href="#linear-gradient"/><linearGradient id="linear-gradient-15" x1="540.31" y1="213.29" x2="540.31" y2="263.25" xlink:href="#linear-gradient"/><linearGradient id="linear-gradient-16" x1="540.29" y1="213.29" x2="540.29" y2="223.82" xlink:href="#linear-gradient"/><linearGradient id="linear-gradient-17" x1="581.21" y1="213.59" x2="581.21" y2="225.14" xlink:href="#linear-gradient"/><linearGradient id="linear-gradient-18" x1="609.77" y1="189.02" x2="609.77" y2="207.04" xlink:href="#linear-gradient"/><linearGradient id="linear-gradient-19" x1="567.9" y1="187.98" x2="567.9" y2="190.54" xlink:href="#linear-gradient"/><linearGradient id="linear-gradient-20" x1="604.87" y1="254.32" x2="604.87" y2="271.12" xlink:href="#linear-gradient"/><linearGradient id="linear-gradient-21" x1="544.43" y1="270.87" x2="544.43" y2="282.08" xlink:href="#linear-gradient"/><linearGradient id="linear-gradient-22" x1="538.81" y1="231.85" x2="538.81" y2="238.45" xlink:href="#linear-gradient"/><linearGradient id="linear-gradient-23" x1="539.02" y1="243.43" x2="539.02" y2="248.77" xlink:href="#linear-gradient"/><linearGradient id="linear-gradient-24" x1="603.2" y1="140.02" x2="603.2" y2="143.49" xlink:href="#linear-gradient"/><linearGradient id="linear-gradient-25" x1="565.55" y1="138.89" x2="565.55" y2="141.77" xlink:href="#linear-gradient"/><linearGradient id="linear-gradient-26" x1="599.22" y1="132.83" x2="599.22" y2="133.17" xlink:href="#linear-gradient"/><linearGradient id="linear-gradient-27" x1="558.65" y1="124.27" x2="558.65" y2="128.92" xlink:href="#linear-gradient"/><linearGradient id="linear-gradient-28" x1="582.1" y1="211.4" x2="582.1" y2="361.69" xlink:href="#linear-gradient"/><linearGradient id="linear-gradient-29" x1="543" y1="294.19" x2="543" y2="318.39" xlink:href="#linear-gradient"/><linearGradient id="linear-gradient-30" x1="547.19" y1="233.57" x2="547.19" y2="261.43" xlink:href="#linear-gradient"/><linearGradient id="linear-gradient-31" x1="581" y1="211.17" x2="581" y2="241.04" xlink:href="#linear-gradient"/><linearGradient id="linear-gradient-32" x1="618.42" y1="311.81" x2="618.42" y2="333.65" xlink:href="#linear-gradient"/><linearGradient id="linear-gradient-33" x1="612.81" y1="261.74" x2="612.81" y2="286.23" xlink:href="#linear-gradient"/><linearGradient id="linear-gradient-34" x1="638.86" y1="264.7" x2="638.86" y2="288.12" xlink:href="#linear-gradient"/><linearGradient id="linear-gradient-35" x1="647.52" y1="264.94" x2="647.52" y2="287.6" xlink:href="#linear-gradient"/></defs><path d="M605.9,111.4c-64.7-2.2-126.4-23.1-185.3-46S303.5,17.2,240.3,5.1C199.7-2.7,153.2-3.8,120.5,18S78.8,75.2,73.3,108.7c-4.1,25.3-6.5,51.9,4.8,75.5,7.8,16.4,21.7,30.2,31.3,46,33.5,54.7,9.8,122.2-26.4,175.6-17,25.1-36.8,49-49.9,75.7s-19.2,57.2-7.7,84.4,38.5,47.3,67.9,61.5c59.7,29,130,37.2,198.6,41.9,151.8,10.4,304.5,5.9,456.7,1.4,56.3-1.6,112.9-3.3,168.3-12,30.8-4.9,62.6-12.6,84.9-31.1,28.4-23.5,35.4-63.4,16.4-92.9-31.9-49.5-120-61.8-142.3-114.9-12.3-29.2.3-61.8,18.2-88.9,38.2-58.2,102.3-109.2,105.7-175.7,2.3-45.6-28.5-91.4-76.2-113-49.9-22.6-119.1-19.8-156,17.7S663,113.4,605.9,111.4Z" fill="#cbd5e0" style="isolation:isolate"/><rect x="15.8" y="123.5" width="259.5" height="259.51" rx="2" fill="#fff" stroke="#050505" stroke-miterlimit="10"/><rect x="792.1" y="123.5" width="259.5" height="259.51" rx="2" fill="#fff" stroke="#050505" stroke-miterlimit="10"/><path d="M145.4,32l-2.6-2.6-.4-.2a.5.5,0,0,0-.4.2l-17.9,18-6.5-6.5c-.3-.3-.6-.3-.8-.1h-.1l-2.6,2.6a.6.6,0,0,0,0,.8h0l8.2,8.2a3.1,3.1,0,0,0,1.8.9,3.8,3.8,0,0,0,1.7-.8h0l19.6-19.7a.8.8,0,0,0,0-.9Z" fill="#050505" opacity="0.5" style="isolation:isolate"/><path d="M129.8,14.9a26.5,26.5,0,1,1-18.7,7.7,26,26,0,0,1,18.7-7.7m0-4.1a30.5,30.5,0,1,0,30.5,30.5h0a30.5,30.5,0,0,0-30.5-30.5Z" fill="#050505" opacity="0.5" style="isolation:isolate"/><path d="M345.8,117.4l-3.2-3.4-.6-.2-.5.2L319,136.7l-8.2-8.2-.5-.2-.5.2-3.3,3.3a.8.8,0,0,0-.1,1h.1l10.3,10.3a3,3,0,0,0,2.2,1,3,3,0,0,0,2.1-1h0l24.7-24.8a.9.9,0,0,0,0-1Z" fill="#050505" opacity="0.8" style="isolation:isolate"/><path d="M326.1,95.8a33.1,33.1,0,1,1-23.5,9.7,32.5,32.5,0,0,1,23.5-9.7m0-5.2A38.5,38.5,0,1,0,364.5,129h0a38.3,38.3,0,0,0-38.4-38.4Z" fill="#050505" opacity="0.8" style="isolation:isolate"/><path d="M932.2,14.9a26.5,26.5,0,1,1-18.6,7.7,25.9,25.9,0,0,1,18.6-7.7m0-4.1a30.5,30.5,0,1,0,30.6,30.5h0a30.5,30.5,0,0,0-30.5-30.5Z" fill="#050505" opacity="0.5" style="isolation:isolate"/><path d="M734.5,95.8a33.1,33.1,0,1,1-23.5,9.7,32.5,32.5,0,0,1,23.5-9.7m0-5.2A38.5,38.5,0,1,0,773,129h0a38.4,38.4,0,0,0-38.5-38.4Z" fill="#050505" opacity="0.8" style="isolation:isolate"/><path d="M529.3,156.7a43.9,43.9,0,1,1-31.1,12.9,43.9,43.9,0,0,1,31.1-12.9m0-6.8a50.8,50.8,0,1,0,50.8,50.8h0a50.8,50.8,0,0,0-50.7-50.8Z" fill="#050505"/><rect x="181.5" y="191.5" width="289.2" height="289.2" rx="2" fill="#fff" stroke="#050505" stroke-miterlimit="10"/><rect x="589.9" y="191.5" width="289.2" height="289.2" rx="2" fill="#fff" stroke="#050505" stroke-miterlimit="10"/><rect x="25.9" y="169.6" width="96.5" height="10.72" fill="#cbd5e0" style="isolation:isolate"/><rect x="849.2" y="169.6" width="96.5" height="10.72" fill="#cbd5e0" style="isolation:isolate"/><path d="M701.2,618.4S726.3,574,764,561.2A76.6,76.6,0,0,0,803.1,532a141.3,141.3,0,0,0,11.6-20.8" fill="none" stroke="#050505" stroke-miterlimit="10" stroke-width="2"/><path d="M838.4,503c-4.3,4.2-24.4,8.5-24.4,8.5s5-19.9,9.3-24.1A10.9,10.9,0,0,1,838.4,503Z" fill="#cbd5e0"/><path d="M827,539c-5.8,1.2-25-6.1-25-6.1s15-14,20.9-15.2a10.8,10.8,0,0,1,12.5,8.8,10.9,10.9,0,0,1-8.3,12.5Z" fill="#cbd5e0"/><path d="M785.8,577.9c-5.7-2-18.5-17.9-18.5-17.9s20-4.5,25.6-2.6a10.8,10.8,0,0,1-7.1,20.5Z" fill="#cbd5e0"/><path d="M748,600.4c-5.9-1-21.3-14.5-21.3-14.5s18.9-7.9,24.8-6.9a10.8,10.8,0,1,1-3.3,21.4Z" fill="#cbd5e0"/><path d="M785.3,517.4c0,6,10.9,23.3,10.9,23.3S807,523.4,807,517.4a10.9,10.9,0,1,0-21.7,0Z" fill="#cbd5e0"/><path d="M741.4,544.2c1.8,5.7,17.3,19,17.3,19s5.2-19.8,3.4-25.5a10.8,10.8,0,0,0-20.7,6.5Z" fill="#cbd5e0"/><path d="M702.3,576.1c.8,5.9,13.8,21.7,13.8,21.7s8.5-18.7,7.7-24.6a10.8,10.8,0,0,0-21.5,2.9Z" fill="#cbd5e0"/><path d="M838.4,503c-4.3,4.2-24.4,8.5-24.4,8.5s5-19.9,9.3-24.1A10.9,10.9,0,0,1,838.4,503Z" fill="#f7fafc" opacity="0.25" style="isolation:isolate"/><path d="M827,539c-5.8,1.2-25-6.1-25-6.1s15-14,20.9-15.2a10.8,10.8,0,0,1,12.5,8.8,10.9,10.9,0,0,1-8.3,12.5Z" fill="#f7fafc" opacity="0.25" style="isolation:isolate"/><path d="M785.8,577.9c-5.7-2-18.5-17.9-18.5-17.9s20-4.5,25.6-2.6a10.8,10.8,0,0,1-7.1,20.5Z" fill="#f7fafc" opacity="0.25" style="isolation:isolate"/><path d="M748,600.4c-5.9-1-21.3-14.5-21.3-14.5s18.9-7.9,24.8-6.9a10.8,10.8,0,1,1-3.3,21.4Z" fill="#f7fafc" opacity="0.25" style="isolation:isolate"/><path d="M785.3,517.4c0,6,10.9,23.3,10.9,23.3S807,523.4,807,517.4a10.9,10.9,0,1,0-21.7,0Z" fill="#f7fafc" opacity="0.25" style="isolation:isolate"/><path d="M741.4,544.2c1.8,5.7,17.3,19,17.3,19s5.2-19.8,3.4-25.5a10.8,10.8,0,0,0-20.7,6.5Z" fill="#f7fafc" opacity="0.25" style="isolation:isolate"/><path d="M702.3,576.1c.8,5.9,13.8,21.7,13.8,21.7s8.5-18.7,7.7-24.6a10.8,10.8,0,0,0-21.5,2.9Z" fill="#f7fafc" opacity="0.25" style="isolation:isolate"/><path d="M702.6,617.5s5-50.7,34.3-77.7a77.9,77.9,0,0,0,23.9-42.6,133.9,133.9,0,0,0,2.1-23.7" fill="none" stroke="#050505" stroke-miterlimit="10" stroke-width="2"/><path d="M781.3,456.4C779,462,762.5,474,762.5,474s-3.6-20.1-1.3-25.7a10.8,10.8,0,1,1,20.1,8.1Z" fill="#a0aec0"/><path d="M785.5,493.9c-4.9,3.5-25.3,4.6-25.3,4.6s8-18.9,12.8-22.3a10.8,10.8,0,0,1,12.5,17.7Z" fill="#a0aec0"/><path d="M763.6,546.2c-6,.5-24.2-8.8-24.2-8.8s16.4-12.3,22.4-12.8a10.9,10.9,0,0,1,2.2,21.6Z" fill="#a0aec0"/><path d="M738.1,582.1c-5.8,1.5-25.4-4.7-25.4-4.7s14.1-14.8,19.9-16.3a10.9,10.9,0,0,1,5.5,21Z" fill="#a0aec0"/><path d="M738.6,491.1c2.4,5.4,19.4,17,19.4,17s2.9-20.3.4-25.8a10.8,10.8,0,0,0-19.8,8.8Z" fill="#a0aec0"/><path d="M709.3,533.4c4,4.5,23.6,10.4,23.6,10.4s-3.4-20.3-7.3-24.8a10.9,10.9,0,1,0-16.3,14.4Z" fill="#a0aec0"/><path d="M686.5,578.4c3.1,5.1,21.4,14.2,21.4,14.2s.2-20.5-3-25.6a10.7,10.7,0,0,0-14.9-3.5,10.9,10.9,0,0,0-3.6,14.9Z" fill="#cbd5e0"/><rect x="218.9" y="253.2" width="96.5" height="10.72" fill="#cbd5e0" style="isolation:isolate"/><rect x="396.6" y="347.5" width="57.6" height="10.72" opacity="0.1" style="isolation:isolate"/><rect x="396.6" y="419.4" width="85.3" height="10.72" opacity="0.1" style="isolation:isolate"/><rect x="218.9" y="291" width="96.5" height="10.72" fill="#cbd5e0" style="isolation:isolate"/><rect x="652.9" y="253.2" width="96.5" height="10.72" fill="#cbd5e0" style="isolation:isolate"/><rect x="652.9" y="291" width="96.5" height="10.72" fill="#cbd5e0" style="isolation:isolate"/><path d="M515.7,215.7l2.7-3.6a13.5,13.5,0,0,0,9.7,4c4.5,0,7.9-2.2,7.9-5.8s-3.2-6.5-12.2-6.5v-4.1c8,0,11-2.6,11-6.1s-2.7-5.1-6.7-5.1a12.6,12.6,0,0,0-8.3,3.4l-2.9-3.4a17.7,17.7,0,0,1,11.4-4.5c7,0,12,3.4,12,9.2,0,4.1-3,6.8-7.3,8.2v.3c4.7,1,8.5,4,8.5,8.8,0,6.3-6,10.1-13,10.1S518.3,218.3,515.7,215.7Z" fill="#050505"/><g opacity="0.8"><path d="M737.7,123.5c0-1.9.1-4.4.2-6.3h-.2l-3.5,5.1-8,10.3h21.3v4.1H720.7v-3.5l16-21h5.8v33.4h-4.8Z" fill="#050505"/></g><g opacity="0.5"><path d="M921.8,51.9l1.9-2.5a9.3,9.3,0,0,0,6.5,2.7c3.2,0,5.8-1.9,5.8-5.1s-2.3-4.8-5.6-4.8a7.9,7.9,0,0,0-4.7,1.4l-1.9-1.2.8-11.8h14v3.2H927.9l-.6,6.5a9.8,9.8,0,0,1,4.1-.9c4.6,0,8.4,2.4,8.4,7.6s-4.4,8.2-9.1,8.2A12.6,12.6,0,0,1,921.8,51.9Z" fill="#050505"/></g><rect x="347.2" y="283.3" width="357.5" height="357.49" fill="#cbd5e0" opacity="0.1" style="isolation:isolate"/><rect x="359.2" y="266.3" width="357.5" height="357.49" rx="2" fill="#fff" stroke="#050505" stroke-miterlimit="10"/><rect x="396.6" y="305.9" width="282.6" height="10.72" fill="#cbd5e0" style="isolation:isolate"/><rect x="396.6" y="383.4" width="179.9" height="10.72" fill="#cbd5e0" style="isolation:isolate"/><rect x="396.6" y="455.4" width="174.6" height="10.72" fill="#cbd5e0" style="isolation:isolate"/><rect x="396.6" y="491.4" width="238" height="10.72" fill="#cbd5e0" style="isolation:isolate"/><path d="M627.5,384.4l-1.2-1.3h-.4l-8.5,8.6-3.1-3.1h-.4l-1.3,1.3a.2.2,0,0,0,0,.3h0l3.9,3.9.9.4.8-.4h0l9.3-9.4a.3.3,0,0,0,0-.4Z" fill="#050505"/><path d="M620.1,376.2a12.6,12.6,0,1,1-12.6,12.6,12.6,12.6,0,0,1,12.6-12.6m0-2a14.6,14.6,0,1,0,14.5,14.6h0a14.4,14.4,0,0,0-14.5-14.5Z" fill="#050505"/><path d="M627.5,456.3l-1.2-1.2h-.2c-.1,0-.2,0-.2.1l-8.5,8.6-3.1-3.1h-.2c-.1,0-.2,0-.2.1l-1.3,1.2a.3.3,0,0,0,0,.4h0l3.9,3.9a1.5,1.5,0,0,0,.9.4,1.2,1.2,0,0,0,.8-.4h0l9.3-9.4a.3.3,0,0,0,0-.4Z" fill="#050505"/><path d="M620.1,448.2a12.6,12.6,0,1,1-12.6,12.6,12.6,12.6,0,0,1,12.6-12.6m0-2a14.6,14.6,0,1,0,14.5,14.5h0a14.5,14.5,0,0,0-14.5-14.5Z" fill="#050505"/><ellipse cx="512.5" cy="782.4" rx="71.4" ry="12" fill="#cbd5e0" opacity="0.1" style="isolation:isolate"/><path d="M590.8,461.8c-.6-1.4-6-19-6-19l-10.2-26.1S568.3,382.4,559,391s5,29.1,5,29.1,5.9,15,5.6,18,3.3,14,3.3,14l-1.2,6.3h-2.5s-.9,1.3-1.8,1.4H567c-1-.4-4.3-.3-6-.3a12,12,0,0,1-4.5-1.5c-.6-1.1-3.9-1.8-6.8-2.2-2.2-5.5-5.3-10.9-5.7-16.6a7.1,7.1,0,0,1,.9-4.5l.6-.8a19.4,19.4,0,0,1,2.7-2.3l1.3-1.2c7.6-7.4,6.4-18.9-.5-26.8s-44.1-28.9-55-12c-1.5,2.4-1.6,5.1-2,7.7a32.2,32.2,0,0,1-8.6,17c-3.7,3.9-8.4,7.4-10.5,11.8v-.2a11.8,11.8,0,0,0-1,3c-1.1,5.3,2.5,10.4,4.4,15.6a26.5,26.5,0,0,1,1.3,5.4l.2-1.1a35.5,35.5,0,0,1,.4,8C465,461.3,465,483.8,465,483.8s-1.6,9-1.3,12.3.2,10.2.2,11.9-1.6,12.2-1.8,13.5h0c-.2,1.4-2.6,8,3.3,9.5l1.3.3c.2,5.4.7,16.7.3,19.2,0,0,2.2,15.2,4,19a36.7,36.7,0,0,0,4,6.5,8.2,8.2,0,0,1-1,2.6c-.9,1.3-.4,2.4,1.1,2.9s-.1.9-.1,1.5c-.7,5.9-1.7,17.5,0,23.4,2.3,8.1,2.4,10.8,2.4,10.8a7.8,7.8,0,0,0,.9,3.7c1,1.4,2.7,13.9,2.7,15.9s4.6,20.2,3.3,24.5-.3,10.4-.3,10.4-.8,10.7-1.8,12.9-1.3,39.2.2,48.8,2.4,17.5,2.4,17.5-1,8.8-.2,10,2.3,8.5,1.3,8.9-1.6,3.4-1.6,3.4a19.5,19.5,0,0,0,1.8,2.5l-1.2-.5a21.5,21.5,0,0,0,1.8,2.3l-.7,9.7a1.5,1.5,0,0,0,1.2,1.7,13.4,13.4,0,0,0,13.4-3.8c6.7-6.9,9-5.9,10.2-10.1a6.1,6.1,0,0,0,.3-1.3,4.3,4.3,0,0,0-3.2-5.2,4.1,4.1,0,0,0-2.9.3,34.6,34.6,0,0,0,.4-8.2c-.7-3.9-.5-14.1-.5-14.1l-1-49s1.8-9.7,3.8-13.5,1.7-17,1.7-17l2.3-43.3,2.3-21s2.2-7.3,4.8.8c0,0-1.4,16.3-.8,20.2s1.7,22.9,1,27-3.7,27.1-1.8,32.9,3.9,12.8,3.5,15.1-1.7,52-1.7,52,3.6,9.5.9,12.6-.1,15.5-.1,15.5a3.7,3.7,0,0,0,.9.6v1l-.8,11.1a1.5,1.5,0,0,0,1.2,1.7,13.3,13.3,0,0,0,13.3-3.8c6.8-6.8,9-5.9,10.3-10.1l.3-1.3a4.3,4.3,0,0,0-3.3-5.2,4.1,4.1,0,0,0-3.7.9h-.2l-.5.4-.3.2c.7-3.1,1.7-8.3,1.2-10.8s.7-14.7.7-14.7,3.9-13.2,4-18.4,1-42,1-42-.1-17.1.5-21.3,4.8-40.3,9.1-51c3.3-8.3,4.8-29.3,3.9-40,0-.6-.1-1-.1-1.5a16.4,16.4,0,0,0,5.8-10.5s-4.8-9.4-9.5-13.3-5.8-10.8-5.6-13.7a7.1,7.1,0,0,0-1.6-4.8s-2.2-7-3.6-7.7l-.3-.3c-1-1-.2-4-.2-4h0c.1-.7,1.2-5.2.8-6.4s.2-7.2.2-7.2,3.4-10.2,2.9-18.3,7-7.4,7-7.4l23.3-.2H579a18.1,18.1,0,0,0,3-3.2,6.6,6.6,0,0,0,5.2-1.3C592.1,471.8,591.5,463.2,590.8,461.8Zm-108.3,70,.2-4.1.9.8a6.2,6.2,0,0,1,0,3.3,3.4,3.4,0,0,1-2,2.2l-.3.2-.3-2.3Z" opacity="0.1" style="isolation:isolate"/><path d="M569.9,469.7s13.3,8.6,18.3,4,4.4-13.2,3.7-14.6-6.1-19.1-6.1-19.1l-10.4-26.3s-6.4-34.6-15.8-26,5.1,29.3,5.1,29.3,6,15.1,5.6,18.2,3.4,14.1,3.4,14.1Z" fill="url(#linear-gradient)"/><path d="M545.2,777.9a6.5,6.5,0,0,1-.4,1.3c-1.2,4.2-3.5,3.3-10.4,10.2a13.6,13.6,0,0,1-13.6,3.8,1.6,1.6,0,0,1-1.2-1.7l.9-11.2.4-5.4s10.9,3,16.4-.8l.5-.4.2-.2a4.6,4.6,0,0,1,6.3.7A4.5,4.5,0,0,1,545.2,777.9Z" fill="url(#linear-gradient-2)"/><path d="M511,773.7l-.3,1.3c-1.3,4.2-3.6,3.3-10.4,10.2a13.8,13.8,0,0,1-13.6,3.8,1.7,1.7,0,0,1-1.3-1.7l.9-11.2.4-5.5s10.9,3.1,16.4-.8l.6-.4h.1a4.5,4.5,0,0,1,6.3.6A4.3,4.3,0,0,1,511,773.7Z" fill="url(#linear-gradient-3)"/><g opacity="0.1"><path d="M499.7,775.4l.5,5.8c-6.3,6.2-13.7-3-15.9-6.1C490,778.1,499.7,775.4,499.7,775.4Z" fill="url(#linear-gradient-4)"/></g><g opacity="0.1"><path d="M536.5,777.7l.8-.5c-5.7,8.6-14.2,4.6-16.8,3.1l.4-5.4s10.9,3,16.4-.8C536.9,776.2,536.5,777.7,536.5,777.7Z" fill="url(#linear-gradient-5)"/></g><path d="M553.9,614.7c-4.4,10.8-8.8,47.2-9.4,51.4s-.4,21.5-.4,21.5L543,729.9c-.1,5.3-4.1,18.6-4.1,18.6s-1.4,11.2-.7,14.8-1.8,13.3-1.8,13.3l.9-.5c-6.9,10.3-17.7,2.6-17.7,2.6s-2.6-12.5.1-15.6-.9-12.8-.9-12.8,1.3-50.1,1.8-52.4-1.6-9.4-3.6-15.2,1.1-28.9,1.8-33.1-.3-23.4-1-27.3.8-20.4.8-20.4c-2.7-8.1-4.9-.8-4.9-.8l-2.2,21.3-2.3,43.8s.3,13.3-1.8,17.1-3.8,13.6-3.8,13.6l1,49.4s-.1,10.3.6,14.2-1.5,14.2-1.5,14.2c-7.7,17.9-20-1.5-20-1.5s.5-3,1.6-3.4-.4-7.8-1.2-9,.1-10,.1-10-1-8-2.5-17.7-1.1-46.8-.1-49.1,1.8-13,1.8-13-1.1-6.2.3-10.5-3.3-22.7-3.3-24.7-1.8-14.7-2.8-16a8.6,8.6,0,0,1-1-3.8s-.1-2.7-2.4-10.9c-1.7-6-.7-17.7,0-23.6.2-2.1.4-3.5.4-3.5s78.6-12.7,81.7-9.8c.8.7,1.3,3,1.5,6.3C558.7,585.1,557.2,606.3,553.9,614.7Z" fill="url(#linear-gradient-6)"/><g opacity="0.1"><path d="M524.2,675.7c.3,0,9,.7,12.2.1S524.2,675.7,524.2,675.7Z" fill="url(#linear-gradient-7)"/></g><g opacity="0.1"><path d="M524.8,680.8s12,2.1,12.6,1S524.8,680.8,524.8,680.8Z" fill="url(#linear-gradient-8)"/></g><g opacity="0.1"><path d="M488.2,678.6s6.2.3,9.6,1.8S488.2,678.6,488.2,678.6Z" fill="url(#linear-gradient-9)"/></g><path d="M465.7,526.4s1,18.9.4,22.2c0,0,2.2,15.3,4,19.2a58.2,58.2,0,0,0,5.8,8.8l5.4-37.6L480,526.2Z" fill="url(#linear-gradient-10)"/><ellipse cx="522.2" cy="419.3" rx="21.1" ry="20.9" fill="url(#linear-gradient-11)"/><path d="M511.3,429.1s-6.6,12.7-13.2,18.7,39.5,12.8,40.6,12.8-8.3-27.2-6.6-30.4S511.3,429.1,511.3,429.1Z" fill="url(#linear-gradient-12)"/><g opacity="0.1"><path d="M557.8,574.4a13.2,13.2,0,0,1-3.3,1.8c-8.4,3.3-17.6,7.8-23.8,6s-19.3,0-19.3,0-26.5-2.1-31.8-.9a9.9,9.9,0,0,1-5.4.2c.2-2.2.4-3.6.4-3.6s78.6-12.6,81.7-9.8C557.1,568.8,557.5,571.1,557.8,574.4Z" fill="url(#linear-gradient-13)"/></g><path d="M563.6,562.3s-.7,9-9.1,12.3-17.6,7.8-23.8,6-19.3,0-19.3,0-26.5-2.2-31.8-.9-8-.4-6.4-2.7,1.5-10.1,1.5-13.4-1.8-16.5-.2-18.8,3.1-11.4,6.4-12.9a3.3,3.3,0,0,0,2-2.3,6.2,6.2,0,0,0,0-3.3l-1.3-1.1c-1.9-1.7-5.2-4.9-4.1-6s0-10.8,0-10.8-3.5-7.3-2.2-10-11.2-17-11.2-17,0-24.6,15-25.7c0,0,10.6.4,11.9-4.3s9.7-7.5,9.7-7.5l19.1,4.2s17,3.6,20.1,1.5,5.5,2.9,5.5,2.9,10.6.5,11.7,2.7-3.5,23.3-3.5,23.3-7.7-.7-7.1,7.5-2.9,18.4-2.9,18.4-.6,6-.2,7.3-.7,5.7-.9,6.4h0s-.8,3,.2,4.1l.3.2c1.5.7,3.7,7.8,3.7,7.8a7.2,7.2,0,0,1,1.6,4.9c-.1,2.9,1,9.8,5.7,13.8S563.6,562.3,563.6,562.3Z" fill="url(#linear-gradient-14)"/><path d="M482.2,520.4v.8l-.4,8.4s-11.2.9-17.3-.6-3.5-8.2-3.3-9.6h0c.2-1.3,1.8-11.9,1.8-13.6s0-8.8-.3-12,1.4-12.3,1.4-12.3l1.2-1.5,12.9,4.9Z" fill="url(#linear-gradient-15)"/><g opacity="0.1"><path d="M482.2,521.2l-.4,8.4s-11.2.9-17.3-.6-3.6-8.2-3.3-9.6Z" fill="url(#linear-gradient-16)"/></g><g opacity="0.1"><path d="M483,529.6a6.2,6.2,0,0,0,0-3.3l-1.3-1.2c9.6-1.3,47.9-6.5,60.8-7.1h0s-.7,3,.3,4.1Z" fill="url(#linear-gradient-17)"/></g><g opacity="0.1"><path d="M543.9,536.2s2.3,13.3-6.5,18C537.4,554.2,542.4,547.5,543.9,536.2Z" fill="url(#linear-gradient-18)"/></g><g opacity="0.1"><path d="M485.9,554.5s21.4-3.6,25.6-.8S485.9,554.5,485.9,554.5Z" fill="url(#linear-gradient-19)"/></g><g opacity="0.1"><path d="M536.5,472.1s-3.3,13.4-.9,16.4S536.5,472.1,536.5,472.1Z" fill="url(#linear-gradient-20)"/></g><g opacity="0.1"><path d="M474.6,461.1s3,5,1.2,10.1S474.6,461.1,474.6,461.1Z" fill="url(#linear-gradient-21)"/></g><path d="M468.4,504.7s3.8,2.3,2.6,5.8S468.4,504.7,468.4,504.7Z" fill="url(#linear-gradient-22)"/><g opacity="0.1"><path d="M468,494.4s3.6,1.9,4,4.7S468,494.4,468,494.4Z" fill="url(#linear-gradient-23)"/></g><g opacity="0.1"><path d="M520.8,602.7s22.3,2.2,26.8-3C547.6,599.7,527.4,603.7,520.8,602.7Z" fill="url(#linear-gradient-24)"/></g><g opacity="0.1"><path d="M482.2,601.4s24,5.6,28.7,1.2C510.9,602.6,490.3,604.1,482.2,601.4Z" fill="url(#linear-gradient-25)"/></g><g opacity="0.1"><path d="M522.5,610s10,0,14.7.3S522.5,610,522.5,610Z" fill="url(#linear-gradient-26)"/></g><g opacity="0.1"><path d="M483.8,614.3s5,5.5,10.5,4.5S483.8,614.3,483.8,614.3Z" fill="url(#linear-gradient-27)"/></g><path d="M493.5,388.2c-1.5,2.4-1.6,5.1-2,7.7a32.4,32.4,0,0,1-8.8,17.2c-4.3,4.7-10.4,8.8-11.5,14.5s2.6,10.5,4.5,15.7c5,13.7-2,28.2-4.1,42.3-.5,4,.2,9,5,10.3,1.6.4,3.3.3,4.7,1s2.4,2.7,2.7,4.3a70.1,70.1,0,0,1,1.3,17.7c-.3,3.4-.5,7.2,2.7,9.5a16.7,16.7,0,0,0,5.2,2.1c5,1.3,11.5,2.4,14.9-.8,1.4-1.3,2-3.1,3.7-4.2s6.4-.5,9.7-.3a17.7,17.7,0,0,0,15.8-8.4c2.7-4.8,2.5-10.3,1.5-15.5s-2.7-10.3-2.9-15.5a9.6,9.6,0,0,1,1.2-5.3c2-3.1,6.8-4.5,10-7,6.1-4.6,6-12.2,3.8-18.5s-6.1-12.3-6.6-18.8a7.4,7.4,0,0,1,.9-4.6,17.2,17.2,0,0,1,3.7-3.4c8.8-7.4,7.8-19.6.5-27.9S504.5,371.1,493.5,388.2Z" fill="url(#linear-gradient-28)"/><g opacity="0.1"><path d="M476.8,449a33.4,33.4,0,0,0-1.4-16.3c-1-2.7-2.3-5.3-3.4-7.9a9.6,9.6,0,0,0-1,3c-1.1,5.3,2.5,10.5,4.4,15.7A26.1,26.1,0,0,1,476.8,449Z" fill="url(#linear-gradient-29)"/><path d="M485,508.3a62,62,0,0,0-1.3-17.7c-.3-1.7-.9-3.5-2.7-4.3s-3.1-.6-4.6-1a6.6,6.6,0,0,1-4.3-3.5c-.3,1.3-.5,2.7-.7,4.1-.6,3.9.1,8.9,5,10.2,1.5.4,3.3.4,4.6,1s2.4,2.7,2.8,4.3a76.8,76.8,0,0,1,1.1,8.2C484.9,509.2,485,508.7,485,508.3Z" fill="url(#linear-gradient-30)"/><path d="M537,506.2a17.7,17.7,0,0,1-15.8,8.4c-3.3-.2-7.1-1.2-9.7.3s-2.3,2.9-3.7,4.3c-3.4,3.1-9.9,2-14.9.7a16.7,16.7,0,0,1-5.2-2.1,6.5,6.5,0,0,1-2.6-4.2c0,1.9,0,3.7-.1,5.6s-.5,7.2,2.7,9.5a14.4,14.4,0,0,0,5.2,2c5,1.4,11.5,2.4,14.9-.7,1.4-1.3,2-3.1,3.7-4.2s6.4-.5,9.7-.3A17.8,17.8,0,0,0,537,517c2.6-4.6,2.5-9.8,1.6-14.8A19.7,19.7,0,0,1,537,506.2Z" fill="url(#linear-gradient-31)"/><path d="M548.6,417.6a17,17,0,0,0-3.7,3.4,7.4,7.4,0,0,0-.9,4.6,24.2,24.2,0,0,0,1.3,5.8,23.5,23.5,0,0,1,3.3-3c6-5,7.4-12.2,5.5-18.9A16.8,16.8,0,0,1,548.6,417.6Z" fill="url(#linear-gradient-32)"/><path d="M546.8,462.9c-3.2,2.4-8,3.8-10,7a9.5,9.5,0,0,0-1.2,5.2,41.7,41.7,0,0,0,.8,6.3,4.3,4.3,0,0,0,.4-.7c2-3.1,6.8-4.5,10-7,5.6-4.2,6-10.8,4.4-16.8A13.3,13.3,0,0,1,546.8,462.9Z" fill="url(#linear-gradient-33)"/></g><path d="M588.5,465.1c-3.7,9.4-8.6,13.1-8.6,13.1h-2.7l-23.7.2-2.7-7.4,3.8-16,2.4.2a14.5,14.5,0,0,0,4.6,1.4c1.7,0,5.1-.1,6.1.4a.3.3,0,0,0,.4,0c.9,0,1.9-1.4,1.9-1.4S592.2,455.7,588.5,465.1Z" fill="url(#linear-gradient-34)"/><g opacity="0.1"><path d="M588.5,465.1c-3.7,9.4-8.6,13.1-8.6,13.1h-2.7c1.4-3.7,4.4-11.4,5.5-13.1s-8.8-5.9-14.6-8.1c.9-.1,1.9-1.5,1.9-1.5S592.2,455.7,588.5,465.1Z" fill="url(#linear-gradient-35)"/></g><path d="M569.2,472.4s13,8.4,18,3.9,4.3-13.1,3.7-14.5-6-19-6-19l-10.3-26.1s-6.2-34.3-15.5-25.7,5,29.1,5,29.1,5.8,15,5.5,18,3.3,14,3.3,14Z" fill="#efb7b9"/><path d="M544.9,778a5,5,0,0,1-.4,1.3c-1.2,4.2-3.5,3.3-10.2,10.1a13.2,13.2,0,0,1-13.4,3.8,1.6,1.6,0,0,1-1.2-1.7l.8-11.1.5-5.4s10.7,3,16.1-.8l.6-.4h.1a4.3,4.3,0,0,1,6.2.6A4.5,4.5,0,0,1,544.9,778Z" fill="#cbd5e0"/><path d="M511.2,773.8l-.3,1.3c-1.2,4.2-3.5,3.3-10.3,10.1a13.1,13.1,0,0,1-13.3,3.8,1.5,1.5,0,0,1-1.2-1.7l.8-11.1.4-5.4s10.7,3,16.2-.8a1,1,0,0,0,.5-.4h.2a4.2,4.2,0,0,1,6.1.6A4.1,4.1,0,0,1,511.2,773.8Z" fill="#cbd5e0"/><path d="M500.2,775.5l.4,5.8c-6.2,6.1-13.5-3-15.6-6C490.6,778.2,500.2,775.5,500.2,775.5Z" opacity="0.1" style="isolation:isolate"/><path d="M536.3,777.9l.8-.6c-5.6,8.6-14,4.6-16.6,3.1l.5-5.4s10.7,3,16.1-.8C536.7,776.3,536.3,777.9,536.3,777.9Z" opacity="0.1" style="isolation:isolate"/><path d="M553.4,616.2c-4.3,10.8-8.6,46.8-9.1,51s-.5,21.3-.5,21.3l-1,42c-.2,5.2-4,18.4-4,18.4s-1.4,11-.7,14.7-1.8,13.2-1.8,13.2l.9-.6c-6.8,10.3-17.4,2.6-17.4,2.6s-2.6-12.4.1-15.5-.9-12.6-.9-12.6,1.3-49.7,1.7-52-1.6-9.3-3.5-15.1,1.1-28.7,1.8-32.9-.3-23.2-1-27.1.8-20.2.8-20.2c-2.7-8-4.8-.8-4.8-.8l-2.2,21.2-2.3,43.4s.3,13.2-1.7,17-3.8,13.4-3.8,13.4l.9,49s-.1,10.2.6,14.1-1.5,14-1.5,14c-7.5,17.8-19.7-1.4-19.7-1.4s.6-3,1.7-3.4-.5-7.7-1.3-8.9.2-10,.2-10-1-8-2.4-17.5-1.1-46.5-.2-48.8,1.8-12.9,1.8-12.9-1.1-6,.2-10.4-3.2-22.4-3.2-24.5-1.7-14.5-2.7-15.9a7.8,7.8,0,0,1-.9-3.7s-.2-2.7-2.4-10.8c-1.7-5.9-.7-17.5,0-23.4.2-2.2.4-3.5.4-3.5s77.3-12.6,80.4-9.7c.7.6,1.2,3,1.5,6.2C558.2,586.8,556.7,607.9,553.4,616.2Z" fill="#050505"/><path d="M466.6,528.5s1,18.8.5,22.1c0,0,2.2,15.2,3.9,19a50.1,50.1,0,0,0,5.7,8.7l5.3-37.2-1.2-12.7Z" fill="#efb7b9"/><circle cx="522.3" cy="422.3" r="20.7" fill="#efb7b9"/><path d="M511.5,432s-6.4,12.7-12.9,18.6,38.8,12.7,39.9,12.7-8.1-27-6.5-30.2S511.5,432,511.5,432Z" fill="#efb7b9"/><path d="M557.3,576.2A10.6,10.6,0,0,1,554,578c-8.3,3.3-17.2,7.8-23.3,6s-19,0-19,0-26-2.2-31.3-.9a11,11,0,0,1-5.4.1c.2-2.2.4-3.6.4-3.6s77.3-12.5,80.4-9.7C556.6,570.6,557,572.9,557.3,576.2Z" opacity="0.1" style="isolation:isolate"/><path d="M563,564.2s-.7,9-9,12.2-17.2,7.7-23.3,5.9-19,0-19,0-26-2.1-31.3-.9-7.9-.3-6.3-2.7,1.5-10,1.5-13.3-1.8-16.3-.2-18.6,3-11.4,6.3-12.8a3.6,3.6,0,0,0,2-2.3,9.1,9.1,0,0,0,0-3.3,9.6,9.6,0,0,1-1.3-1.1c-1.9-1.7-5.1-4.8-4.1-5.9s0-10.7,0-10.7-3.4-7.2-2.2-9.9-11-16.9-11-16.9,0-24.4,14.8-25.5c0,0,10.4.4,11.6-4.3s9.6-7.4,9.6-7.4l18.8,4.2s16.7,3.6,19.8,1.4,5.3,2.9,5.3,2.9,10.4.5,11.5,2.7-3.4,23.1-3.4,23.1-7.6-.7-7,7.4-2.9,18.3-2.9,18.3-.5,5.9-.2,7.2-.7,5.7-.8,6.4h0s-.8,3,.2,4l.3.3c1.4.7,3.6,7.7,3.6,7.7a7,7,0,0,1,1.6,4.8c-.2,2.9.9,9.7,5.6,13.7S563,564.2,563,564.2Z" fill="#cbd5e0"/><path d="M482.9,522.6v.8l-.3,8.4s-11,.9-17-.6-3.5-8.2-3.3-9.6h0c.2-1.3,1.8-11.8,1.8-13.5s0-8.7-.3-11.9,1.4-12.2,1.4-12.2l1.1-1.5,12.7,4.9Z" fill="#cbd5e0"/><path d="M482.9,523.4l-.4,8.4s-11,.9-17-.6-3.5-8.2-3.2-9.6Z" opacity="0.1" style="isolation:isolate"/><path d="M483.7,531.7a8.6,8.6,0,0,0,0-3.2l-1.3-1.2c9.5-1.3,47.1-6.5,59.8-7h0s-.7,3,.2,4.1Z" opacity="0.1" style="isolation:isolate"/><path d="M543.6,538.2s2.3,13.2-6.4,17.9C537.2,556.1,542.2,549.6,543.6,538.2Z" opacity="0.1" style="isolation:isolate"/><path d="M486.6,556.5s21-3.6,25.1-.8S486.6,556.5,486.6,556.5Z" opacity="0.1" style="isolation:isolate"/><path d="M536.3,474.7s-3.2,13.3-.8,16.3S536.3,474.7,536.3,474.7Z" opacity="0.1" style="isolation:isolate"/><path d="M475.4,463.8s3,5,1.2,10.1S475.4,463.8,475.4,463.8Z" opacity="0.1" style="isolation:isolate"/><path d="M469.3,507.1s3.8,2.2,2.6,5.7S469.3,507.1,469.3,507.1Z" fill="#cbd5e0"/><path d="M469,496.9s3.5,1.8,4,4.6S469,496.9,469,496.9Z" opacity="0.1" style="isolation:isolate"/><path d="M494,391.4c-1.5,2.4-1.6,5.1-2,7.8a32.5,32.5,0,0,1-8.6,17c-4.3,4.5-10.2,8.7-11.4,14.3s2.6,10.4,4.5,15.6c5,13.6-2,27.9-4,42-.6,3.9.1,8.8,4.9,10.1,1.5.4,3.2.4,4.5,1s2.4,2.7,2.7,4.3a65,65,0,0,1,1.2,17.6c-.2,3.3-.4,7.1,2.7,9.4a18.1,18.1,0,0,0,5.2,2c4.9,1.4,11.3,2.4,14.6-.7,1.4-1.3,1.9-3.1,3.6-4.2s6.3-.5,9.6-.3a17,17,0,0,0,15.5-8.4c2.7-4.7,2.5-10.2,1.5-15.3s-2.7-10.2-2.8-15.4a8.5,8.5,0,0,1,1.1-5.2c2-3.1,6.7-4.5,9.9-7,6-4.5,5.9-12,3.8-18.3s-6.1-12.2-6.6-18.7a7.1,7.1,0,0,1,.9-4.5,16.5,16.5,0,0,1,3.7-3.3c8.7-7.4,7.7-19.4.5-27.7S504.9,374.6,494,391.4Z" fill="#e3787d"/><g opacity="0.1"><path d="M477.6,451.8a34.3,34.3,0,0,0-1.3-16.2c-1-2.6-2.4-5.2-3.4-7.8a15.4,15.4,0,0,0-1.1,3c-1,5.3,2.6,10.4,4.4,15.6A20.5,20.5,0,0,1,477.6,451.8Z"/><path d="M485.7,510.6a69.3,69.3,0,0,0-1.3-17.6c-.3-1.6-.9-3.4-2.7-4.2s-3-.6-4.5-1a6.4,6.4,0,0,1-4.2-3.5c-.3,1.3-.5,2.7-.7,4.1-.6,3.9.1,8.8,4.9,10.1,1.5.4,3.2.4,4.5,1s2.4,2.7,2.7,4.3a56.6,56.6,0,0,1,1.2,8.1A5.7,5.7,0,0,1,485.7,510.6Z"/><path d="M536.8,508.5a17.1,17.1,0,0,1-15.5,8.3c-3.3-.1-7-1.2-9.6.4s-2.2,2.8-3.6,4.1c-3.3,3.1-9.7,2.1-14.6.8a16.7,16.7,0,0,1-5.2-2.1,6.4,6.4,0,0,1-2.5-4.1c0,1.8,0,3.6-.1,5.5s-.5,7.1,2.6,9.4a14.4,14.4,0,0,0,5.2,2c4.9,1.4,11.3,2.4,14.6-.7,1.4-1.3,1.9-3.1,3.6-4.2s6.3-.5,9.6-.3a17.1,17.1,0,0,0,15.5-8.3c2.6-4.6,2.5-9.8,1.6-14.8A15.2,15.2,0,0,1,536.8,508.5Z"/><path d="M548.2,420.7a16.1,16.1,0,0,0-3.6,3.3,7.4,7.4,0,0,0-.9,4.6,22.4,22.4,0,0,0,1.3,5.7l3.2-2.9c5.9-5,7.3-12.1,5.4-18.7A16.8,16.8,0,0,1,548.2,420.7Z"/><path d="M546.5,465.6c-3.2,2.4-7.9,3.8-9.9,6.9a8.6,8.6,0,0,0-1.1,5.2,34,34,0,0,0,.8,6.3,1.6,1.6,0,0,1,.4-.7c2-3.1,6.6-4.5,9.8-7,5.4-4.1,5.9-10.7,4.3-16.6A12.6,12.6,0,0,1,546.5,465.6Z"/></g><path d="M587.5,467.8c-3.7,9.3-8.5,13-8.5,13h-2.6l-23.3.2-2.7-7.3,3.8-15.9h2.3a13.9,13.9,0,0,0,4.5,1.4c1.7,0,5-.1,6,.3h.4c.9-.1,1.8-1.4,1.8-1.4S591.2,458.4,587.5,467.8Z" fill="#cbd5e0"/><path d="M587.5,467.8c-3.7,9.3-8.5,13-8.5,13h-2.6c1.4-3.7,4.3-11.3,5.4-13s-8.6-5.8-14.3-8c.8-.1,1.8-1.4,1.8-1.4S591.2,458.4,587.5,467.8Z" opacity="0.1" style="isolation:isolate"/></svg>