<svg id="b411f001-b16f-4358-a5a6-150c98662c8c" xmlns="http://www.w3.org/2000/svg" xmlns:xlink="http://www.w3.org/1999/xlink" viewBox="0 0 987.6 787.4"><defs><linearGradient id="linear-gradient" x1="903.35" y1="7.79" x2="903.35" y2="530.2" gradientTransform="matrix(1, 0, 0, -1, -106.19, 733.7)" gradientUnits="userSpaceOnUse"><stop offset="0" stop-color="gray" stop-opacity="0.25"/><stop offset="0.54" stop-color="gray" stop-opacity="0.12"/><stop offset="1" stop-color="gray" stop-opacity="0.1"/></linearGradient></defs><ellipse cx="805.5" cy="726.4" rx="92.3" ry="14.4" fill="#cbd5e0" style="isolation:isolate"/><ellipse cx="513.3" cy="767.9" rx="103.8" ry="10.4" fill="#cbd5e0" opacity="0.1" style="isolation:isolate"/><ellipse cx="199" cy="763.1" rx="78.7" ry="4.9" fill="#cbd5e0" opacity="0.1" style="isolation:isolate"/><path d="M338.8,34.3C368,8.3,413.9,2.9,455.6,5,586.7,11.5,705,74.8,807.4,146.4c37,25.9,73.5,53.8,97.6,89.5,49,72.6,34.4,173.3-33.7,233.1-23.1,20.4-51.2,36-80,49.8-51.3,24.7-106.6,44.4-164.8,50-41.5,4-83.5.8-124.7-4.8-115.3-15.6-228.4-50.2-323.2-109.3-41.5-26-80.7-58.2-97.9-100.1s-6.1-95.2,36.3-120c17.6-10.3,38.6-14.9,59.1-19.3,30.3-6.4,61-12.7,88.3-25.7s61.6-39.5,56-69.3C314.5,88.3,309.6,60.3,338.8,34.3Z" fill="#cbd5e0" style="isolation:isolate"/><path d="M580.9,391.8v-191h26v-57H420.6v57h26v191a189.2,189.2,0,0,0-122.2,177c0,104.5,84.8,189.3,189.3,189.3S703,673.3,703,568.8A189.3,189.3,0,0,0,580.9,391.8Z" fill="#a0aec0" opacity="0.9" style="isolation:isolate"/><rect x="446.5" y="200.3" width="134.3" height="2.57" opacity="0.1" style="isolation:isolate"/><path d="M407.8,563.7s114-2,171-30.5,89.6-3.1,86.5,14.2-19.3,50.9-84.4,55S407.8,563.7,407.8,563.7Z" fill="#cbd5e0"/><path d="M407.8,563.7s114-2,171-30.5,89.6-3.1,86.5,14.2-19.3,50.9-84.4,55S407.8,563.7,407.8,563.7Z" opacity="0.1" style="isolation:isolate"/><path d="M359,545.4s-12.2,169,147.6,172,158.7-170,158.7-170-59,64.1-198.4,11.2C466.9,558.6,394.6,539.3,359,545.4Z" fill="#cbd5e0"/><path d="M664.8,548c-3.2,38.9-23.9,160.8-158.2,158.2C375,703.7,360,588.6,358.9,548.1c-.8,21.7-.1,166.5,147.7,169.3,159.8,3,158.8-170,158.8-170Z" opacity="0.1" style="isolation:isolate"/><circle cx="507.5" cy="472.5" r="20.7" fill="#cbd5e0" opacity="0.3" style="isolation:isolate"/><circle cx="519.4" cy="389.6" r="12.8" transform="matrix(0.16, -0.99, 0.99, 0.16, 51.64, 839.83)" fill="#cbd5e0" opacity="0.3" style="isolation:isolate"/><circle cx="490.7" cy="315.5" r="12.8" fill="#cbd5e0" opacity="0.3" style="isolation:isolate"/><path d="M380.8,488.5c-1.1,8.7-.9,19.7,6.9,23.7-6.5-3.4,20.3-42.2,16.5-50.1C396.1,445.2,381.8,480.4,380.8,488.5Z" fill="#fff" opacity="0.2" style="isolation:isolate"/><circle cx="480.4" cy="85" r="20.7" fill="#050505" opacity="0.3" style="isolation:isolate"/><circle cx="542.6" cy="49.5" r="15.4" fill="#cbd5e0" opacity="0.3" style="isolation:isolate"/><circle cx="498.1" cy="8" r="8" fill="#cbd5e0" opacity="0.3" style="isolation:isolate"/><path d="M283.8,263.2H116.3v49.7h25.5V700.5a58.3,58.3,0,0,0,116.5,1.6V312.9h25.5Z" fill="#a0aec0" opacity="0.9" style="isolation:isolate"/><path d="M180.6,400.7s41.5-14.8,53-4.3c0,0-16.8,24.7-32.2,23.7S180.6,400.7,180.6,400.7Z" fill="#cbd5e0"/><path d="M180.6,400.7s41.5-14.8,53-4.3c0,0-16.8,24.7-32.2,23.7S180.6,400.7,180.6,400.7Z" opacity="0.1" style="isolation:isolate"/><path d="M233.6,396.5V677.8a35.6,35.6,0,0,1-35.5,35.6h0a35.6,35.6,0,0,1-35.6-35.6V396.5s17.1-4.6,33.3,5.2S233.6,396.5,233.6,396.5Z" fill="#cbd5e0"/><rect x="141.8" y="312.6" width="116.5" height="2.29" opacity="0.1" style="isolation:isolate"/><path d="M198.1,696.2h0a35.5,35.5,0,0,1-35.6-35.5h0v17.8A35.5,35.5,0,0,0,198.1,714h0a35.5,35.5,0,0,0,35.5-35.5V660.7a35.5,35.5,0,0,1-35.5,35.5Z" opacity="0.1" style="isolation:isolate"/><circle cx="198.1" cy="361.6" r="7.2" fill="#cbd5e0" opacity="0.3" style="isolation:isolate"/><circle cx="221.8" cy="335.9" r="4.6" fill="#cbd5e0" opacity="0.3" style="isolation:isolate"/><circle cx="189.5" cy="326.7" r="4.6" fill="#cbd5e0" opacity="0.3" style="isolation:isolate"/><path d="M150.8,453.9c-1.1,8.8-.9,19.7,6.9,23.8-6.5-3.4,20.3-42.2,16.5-50.1C166.1,410.7,151.8,445.8,150.8,453.9Z" fill="#fff" opacity="0.2" style="isolation:isolate"/><circle cx="213.1" cy="214.5" r="17.6" fill="#050505" opacity="0.3" style="isolation:isolate"/><circle cx="160.3" cy="184.3" r="13.1" fill="#050505" opacity="0.3" style="isolation:isolate"/><circle cx="198" cy="149.2" r="6.8" fill="#050505" opacity="0.3" style="isolation:isolate"/><path d="M895.9,451.3s-15.4-76.3-9.5-85.8c0,0,.2-8.8-.2-20.1v-1.3l3.3,1.9a25.9,25.9,0,0,0,17.5,2.3l-4.6-5.2c-1.1-1.3-2.3-2.6-2.6-4.2a10.3,10.3,0,0,1,1-4.6c4.4-11.1,4.7-25.2-3.8-33.7s-9-16.4-16.7-22.9c-5.7-4.8-8.9-11.8-11.8-18.6a109.2,109.2,0,0,1-6.5-17.6c-1.1-4.7-1.5-9.6-3.1-14.3s-4.4-9.1-8.9-11.2a50,50,0,0,1-4.8-2.1c-1.9-1.3-3.1-3.4-4.4-5.3-7-9.3-30.6-3.8-41.8,0a22.2,22.2,0,0,0-8.2,4.6V213l.2-.4a15,15,0,0,0-3.1,3.5c-1.6,2.5-2.3,5.6-3.6,8.3s-10.8,12.5-6.9,16.2l.9.6a8.1,8.1,0,0,0,4.6.5c0,.1-.1.2-.1.4a27.4,27.4,0,0,0-2,10.3,28.2,28.2,0,0,0,36.7,26.3,3.6,3.6,0,0,1,.2,1,.9.9,0,0,0,.1.5h0l-.5.7v-.2l-14.6,20.4c-2.2,1.6-15,10.9-15.7,17.9s-1.6,16.5-1.6,16.5v1.9a5.4,5.4,0,0,1-4.6,1.3c-4.5-.7-4.5,16.8-4.5,16.8s-3,2.8-5.2.3-7.5,5.8-7.5,5.8L729,363.1h-.8l-1.9-5.8a2.4,2.4,0,0,0-3-1.5l-.4.2h-.1l-.3.2a.1.1,0,0,1-.1.1l-.2.2c0,.1,0,.1-.1.1h0a2.3,2.3,0,0,0-.4,2.1l1.6,4.9c-6.6,1.4-13.4,5.1-7.9,15.5L687.3,374l9.1,7.7,47,9.7c-.6,1.1-.2,2.7,1.7,5,8.4,9.8,23.6,12.5,29.8,13.2a49,49,0,0,0,6,10.1l-.6,9.8s-15.5,74.6-18.3,78.4a38.5,38.5,0,0,0,3.8-5.2C761.3,518,755,539,753.3,542.2c-2.6,5-5.1,25.3-2,26.6.9.4,3.5.2,7.3-.1v65.4s.7,39.1-1.4,42.9-2.6,11.5-2.6,11.5-8.4,15.4-15,21.6l-.2.2-.2-1.5s-8,10.1-25.6,9.5c0,0-10.6,6.9,5.2,7.3s35.8-.6,35.8-.6,14-21.4,25.7-18.6v16.2h3.6V706.2a14.5,14.5,0,0,0,6.4-9.7,11.5,11.5,0,0,0-4.2-10.9,7.4,7.4,0,0,1-2.3-5.1h-.1c0-.3-.1-.6-.1-1-1-8.3-2.3-25.6,2.2-38.4,6.3-17.5,8.2-41.8,3.6-56.4q-2.1-6.9-3.6-14.1l-.3-1.7a61.4,61.4,0,0,1,9.3,1.9c10.5,2.9,33.6,3.4,53.3,3.3a8.8,8.8,0,0,0,.2,1.6,56.6,56.6,0,0,0,2.2,11.6c2.4,7.5,3.6,40.2,3.6,40.2s3.2,27,1.4,38q-1.5,9.1-2.4,18.3v.2s-5.2,14.9-9,23l-.3.6a15.9,15.9,0,0,0-3,.6s-5.1,10.3-10.2,11.9-3.4,7.3,8.2,5.3,29-3.8,29-3.8l.7-10.4,3.6-4.4-.9,10.4,3.8-.8-.5-12.6,5.8-7.3s7-6.2-3.4-18.5v.2l-.4-.5h0c-1.7-2.6-3.1-7.6-.6-16.5,4.6-16,7.2-30.5,7.2-30.5s10.2-38.9-2-57.3h.5a34,34,0,0,1-2.6-8.2c-.1-.4-.1-.7-.2-1,9-.5,18-2.2,25.2-5.7C903.8,558.4,899.5,466,895.9,451.3ZM781,386.9v.2h-1.8Zm-6.3.9-.9.4a7.3,7.3,0,0,0-1.4,3.8l-2.9-.6a50,50,0,0,0-5-.9l-1.4-1.4Z" fill="url(#linear-gradient)"/><polygon points="870.6 704 869.5 717.1 873.2 716.4 872.6 702.1 870.6 704" fill="#1d2366"/><path d="M786,641.4c-4.5,12.8-3.2,30-2.2,38.3.4,3.1.7,5,.7,5s-6.7,15.2-7.2,15.8-19.7,12.2-19.7,12.2l-13.4,7.8s-13.5-6-7-8a8.8,8.8,0,0,0,3.5-2.4c6.5-6.2,14.7-21.6,14.7-21.6s.6-7.7,2.6-11.5,1.3-42.6,1.3-42.6l.2-63.6v-8.3l25.4.2a56.7,56.7,0,0,0,1.1,8.4,132,132,0,0,0,3.5,14.1C794,599.7,792.1,624,786,641.4Z" fill="#ffb0b1"/><path d="M784.5,684.7s-6.7,15.2-7.2,15.8-19.7,12.2-19.7,12.2l-13.4,7.8s-13.5-6-7-8a8.8,8.8,0,0,0,3.5-2.4l.6,4.1,4.5-.2,38-34.3C784.2,682.8,784.5,684.7,784.5,684.7Z" opacity="0.1" style="isolation:isolate"/><path d="M784,680.6l-38.3,34.5-4.4.2-1-6.5s-7.8,10-25,9.5c0,0-10.4,6.8,5,7.2s35.1-.6,35.1-.6,13.7-21.3,25.2-18.5v16.1h3.5V706.2a14.7,14.7,0,0,0,6.3-9.7,11.7,11.7,0,0,0-4.1-10.8A7.8,7.8,0,0,1,784,680.6Z" fill="#050505"/><path d="M874.1,661.3c-2.4,8.8-1.1,13.8.6,16.4h0a30.7,30.7,0,0,1,4.5,10.9v.8L861.9,715l-9.5,3.7s-15.2-5.2-12.4-6.7c.7-.4,1.8-2.3,3-5,3.7-8,8.8-22.9,8.8-22.9h0q.9-9.2,2.4-18.3c1.7-10.9-1.4-37.8-1.4-37.8s-1.2-32.6-3.6-40.1a56.7,56.7,0,0,1-2.1-11.5c-.5-4.7-.7-8.5-.7-8.5s10-13.9,28.4,1.1a19.5,19.5,0,0,1,3.9,4.2c12.7,18,2.4,57.8,2.4,57.8S878.6,645.3,874.1,661.3Z" fill="#ffb0b1"/><path d="M879.3,689.5l-17.4,25.4-9.5,3.7s-15.2-5.2-12.4-6.7c.7-.3,1.8-2.2,3-5,6.4,0,9.8,6.1,9.8,6.1l8.1-1.3s10.8-21.1,13.2-22.4.4-9.7.4-9.7v-2.1l.2.2h0a30.7,30.7,0,0,1,4.5,10.9Z" opacity="0.1" style="isolation:isolate"/><path d="M853.3,713.6s-4.6-8.5-13.5-5.4c0,0-5,10.2-10,11.9s-3.3,7.2,8,5.2,28.4-3.7,28.4-3.7l.7-10.4,11.5-14.7s6.9-6.2-3.3-18.4v2.1s2,8.4-.4,9.7-13.1,22.4-13.1,22.4Z" fill="#050505"/><path d="M784.9,562.7a45.9,45.9,0,0,0,1.1,8.4c-10.5-1.5-20.2-.8-26.6-.3v-8.2Z" opacity="0.1" style="isolation:isolate"/><path d="M879.7,575.4s-14.9.7-32.6.8c-.5-4.6-.6-8.4-.6-8.4s10-14,28.4,1.1a24.6,24.6,0,0,1,3.8,4.1A24.4,24.4,0,0,0,879.7,575.4Z" opacity="0.1" style="isolation:isolate"/><path d="M879.7,573.7s-65.1,3.2-85-2.4-39.5-.8-42.5-2.1-.5-21.5,2-26.5S771.1,487,771.1,487l13.7-71.6,14.5-4,1-.3,25.2-7L844,399s36.8,143.5,33.6,154a26.4,26.4,0,0,0-.5,12.5A30.1,30.1,0,0,0,879.7,573.7Z" fill="#050505"/><path d="M737,366.4s-13,13.9-3.1,21.7,16.3.8,16.3.8Z" fill="#c7daf5"/><path d="M737,366.4s-13,13.9-3.1,21.7,16.3.8,16.3.8Z" opacity="0.1" style="isolation:isolate"/><path d="M842.1,274.8l-3.8,3.5c-3.3,3.1-8.1,7.6-12.4,11.3-6,5.2-10.8,9-9.1,5.7s1.4-8.8.6-14.1l-.2-1.1a113.8,113.8,0,0,0-2.9-11.5s9.6-12.4,14.9-17.3c2-1.8,3.4-2.6,3.5-1.3s1.4,5.5,3,9.6c0,.2.1.3.1.4,1.1,2.8,2.3,5.7,3.4,8.1S842.1,274.8,842.1,274.8Z" fill="#ffb0b1"/><path d="M835.8,260a27.6,27.6,0,0,1-18.5,21.2,88.9,88.9,0,0,0-3-12.6s18.1-23.4,18.3-18.6C832.8,251.8,834.2,255.8,835.8,260Z" opacity="0.1" style="isolation:isolate"/><path d="M815.5,287.4l2.4-3.3s1.5,9.5,7.3,5.3,6,31.4,6,31.4L825,412.4l-44.2-2.6,1.2-44.3,5-22.3,12.4-32.4,7.4-10.7Z" opacity="0.1" style="isolation:isolate"/><path d="M831.1,321.4l-5.5,82.8-.6,8.7-24.7-1.4h-1l-18.6-1.1L782,366l5-22.2,12.4-32.4,7.4-10.8,8.8-12.6,2.3-3.3s1.6,9.5,7.3,5.3h.1C830.9,286.3,831.1,321.4,831.1,321.4Z" fill="#050505"/><path d="M787.7,336s-2.3,4.6-6.7,3.9-4.5,16.7-4.5,16.7-3,2.8-5,.4-7.4,5.7-7.4,5.7l-33.8,1.5s15,6.9,12.1,27.6c0,0,51-3.1,52.7-8S787.7,336,787.7,336Z" fill="#fff"/><path d="M787.7,336s-2.3,4.6-6.7,3.9-4.5,16.7-4.5,16.7-3,2.8-5,.4-7.4,5.7-7.4,5.7l-33.8,1.5s15,6.9,12.1,27.6c0,0,51-3.1,52.7-8S787.7,336,787.7,336Z" opacity="0.03" style="isolation:isolate"/><polygon points="689.5 375.1 698.4 382.8 771.7 398.1 762.6 388.9 689.5 375.1" fill="#fff"/><path d="M815.7,290.3c-1.2,1.9-4.7,11.4-7.6,19.7l-4.5,13s-4.7,30.8-7.1,36.4-1.1,27.3-1.1,27.3l-9,53.6S782.3,468,776,484.5s-13.2,23.8-13.4,24.1c2.8-3.8,18-78.1,18-78.1l5-93.8s.8-8.9,1.5-16.5,15.8-18,15.8-18l14.5-20.6C818.9,283.6,817.9,287,815.7,290.3Z" fill="#fff"/><path d="M777.8,410.8s-21.3-1-31.7-13.4,23.9-5,23.9-5l8.9,2Z" fill="#ffb0b1"/><path d="M877.7,553.1a26.4,26.4,0,0,0-.6,12.5c-23.3,1.6-48.2-4.7-48.2-4.7-4.7,4.3-16.9,10.6-16.9,10.6l-6.7-82.8c-4.3-11.1-5.9-69.6-5.9-69.6s.3-3,1-7.6v-.4c1.7-12.8,5-36.8,6.6-40.1s-6.9-16.3-6.9-16.3l4.2-35.3.5-4.2c8.7-3.9,15.4-16.3,15.4-16.3l5.1-9h0c5.6-3.6,5.8,31.5,5.8,31.5l-5.5,82.8,18.5-5.1S880.8,542.5,877.7,553.1Z" opacity="0.1" style="isolation:isolate"/><path d="M901.6,558.9c-25.4,12.6-71.6.9-71.6.9-4.7,4.3-16.9,10.6-16.9,10.6l-6.7-82.8c-4.3-11.1-5.9-69.6-5.9-69.6s5.3-43.6,7.6-48c.6-1.3.3-3.3-.5-5.4a67.1,67.1,0,0,1-4-31.1l1.7-15.2.5-4.2c8.8-3.9,15.5-16.3,15.5-16.3l4.6-8.2,8.6-15,4-7.1.7.6,5.3,4.8,5.5,4.7c7.3,6.1,19.9,16.9,26.4,23.5s7.5,28.5,8,45.5c.3,11.2.1,20,.1,20-5.8,9.5,9.3,85.6,9.3,85.6C897.3,466.8,901.6,558.9,901.6,558.9Z" fill="#fff"/><path d="M852.8,297.6s-17.4,33.2-15.4,45.8,7.8,26.9,5,30.3a10.2,10.2,0,0,1-8.2,4c-2.7.2-10.2,5.4-10.2,6s-6.8.5-13,3.1-15.2,4.1-15.2,4.1-17.6-.5-19.3,1.1-3.3,11.7.2,19.7,7.4,13.9,10.4,15,21.7-5.2,36.9-6.7,31.8-13.5,31.8-13.5,18.2-6.5,21.4-17.4-3.9-71.1-3.9-71.1S867.8,290,852.8,297.6Z" opacity="0.03" style="isolation:isolate"/><path d="M850.6,294.8s-17.5,33.2-15.4,45.8,7.8,26.9,5,30.3A10.6,10.6,0,0,1,832,375c-2.8.1-10.2,5.3-10.2,5.9s-6.9.5-13,3.1-15.2,4.1-15.2,4.1-17.6-.5-19.3,1.1-3.4,11.7.2,19.7,7.4,13.9,10.4,15,21.7-5.2,36.9-6.7,31.7-13.5,31.7-13.5,18.2-6.5,21.4-17.4-3.9-71.1-3.9-71.1S865.6,287.2,850.6,294.8Z" opacity="0.03" style="isolation:isolate"/><path d="M852.2,295.9s-17.4,33.2-15.4,45.8,7.8,26.9,5,30.3a10.2,10.2,0,0,1-8.2,4c-2.7.2-10.2,5.4-10.2,6s-6.8.5-13,3.1-15.2,4.1-15.2,4.1-17.6-.6-19.3,1.1-3.3,11.7.2,19.7,7.4,13.9,10.4,15,21.7-5.2,36.9-6.7,31.8-13.5,31.8-13.5,18.1-6.5,21.3-17.5-3.9-71.1-3.9-71.1S867.3,288.3,852.2,295.9Z" fill="#fff"/><path d="M851.9,385s-13.9-2.8-9.1,1.8,4.8,8.8,10.7,8.6S851.9,385,851.9,385Z" opacity="0.1" style="isolation:isolate"/><path d="M875.4,485s-6.3,4.3,5.8,14.1S875.4,485,875.4,485Z" opacity="0.1" style="isolation:isolate"/><path d="M863.4,520.1c0,.5-2.2,20.4,6.1,25.4S863.4,520.1,863.4,520.1Z" opacity="0.1" style="isolation:isolate"/><path d="M730.9,364.2c-6.7.2-21.3,2.3-13.7,16.3s17.8,4.2,24.1-2.2A23.9,23.9,0,0,0,730.9,364.2Z" fill="#ffb0b1"/><path d="M741.4,378.2l.3-.2Z" fill="#ffb0b1"/><path d="M850,278.1,835.7,288c-3.2,2.3-9.3,16.3-13.2,23.4s-13.3,7.2-17.1,7.5l.4-4.2c8.7-3.9,15.4-16.3,15.4-16.3l17.3-30.3,5.9,5.4Z" opacity="0.1" style="isolation:isolate"/><path d="M850,277.6l-14.3,9.8c-3.2,2.4-9.3,16.3-13.2,23.4s-13.3,7.2-17.1,7.5l.5-4.2c8.7-3.9,15.4-16.3,15.4-16.3l17.2-30.3,6,5.4Z" fill="#050505" opacity="0.1"/><path d="M836.3,253.9a27.6,27.6,0,1,1-12-22.7A27.6,27.6,0,0,1,836.3,253.9Z" fill="#ffb0b1"/><path d="M884.4,346.6a23.5,23.5,0,0,1-8.9-9.6c-1.5-3-2.6-6.6-5.2-8.8s-5.6-2.4-8.6-3.2c-9.8-2.9-18-11.9-18.3-22-.1-4.8,1.4-9.6.7-14.4a17.2,17.2,0,0,0-3.1-7.4,17.9,17.9,0,0,0-2.7-2.8c-1.3-1.3-2.7-2.5-3.8-3.8a12.1,12.1,0,0,1-2-2.6,11.2,11.2,0,0,1-1.1-2.5c-1.8-5.7-.2-12.4-2.2-18.2,0-.1-.1-.2-.1-.3-.8-2-2.4-4.1-4.6-4.2s-4,1.6-6.1,2.4c-4.4,1.7-9.1-1.2-12.7-4.1s-7.7-6.3-12.4-5.6c-3,.4-5.4,2.5-8.2,3.6l-2,.5a27.5,27.5,0,0,1,53.1,10.3,26.9,26.9,0,0,1-.6,5.7c0,.2.1.3.1.4,1.1,2.8,2.3,5.7,3.4,8.1l5.3,4.8,5.5,4.7c7.3,6.1,19.9,16.9,26.4,23.5S883.9,329.6,884.4,346.6Z" opacity="0.1" style="isolation:isolate"/><path d="M784.8,226.1c1.3-2.7,2-5.7,3.6-8.3s6.4-6.1,10.6-7.5c10.9-3.8,34-9.3,40.9,0,1.3,1.8,2.4,3.9,4.3,5.2a34.8,34.8,0,0,0,4.8,2.1c4.4,2.1,7.2,6.6,8.7,11.2s1.9,9.5,3,14.2,3.8,11.8,6.3,17.6,6,13.7,11.5,18.5c7.6,6.5,9.3,15.7,16.4,22.8s8.1,22.5,3.8,33.6a8,8,0,0,0-1,4.5,8.5,8.5,0,0,0,2.4,4.2l4.6,5.2a25.8,25.8,0,0,1-28.1-13c-1.6-3.1-2.6-6.6-5.2-8.8s-5.6-2.4-8.6-3.3c-9.8-2.9-18-11.8-18.3-22-.1-4.8,1.4-9.6.7-14.3a15.9,15.9,0,0,0-3.1-7.3c-2.6-3.3-6.4-5.6-8.5-9.3-3.5-6.2-.8-14.3-3.4-21-.8-2-2.3-4.1-4.5-4.2s-4.1,1.6-6.1,2.5c-4.4,1.6-9.1-1.2-12.7-4.2s-7.8-6.3-12.4-5.6c-3.1.4-5.5,2.5-8.3,3.6s-6.3,1.5-8.1-.3C774.3,238.6,783.2,229.4,784.8,226.1Z" fill="#3a2b2b"/><path d="M879.2,333.3c-1.5-3-2.6-6.6-5.2-8.8s-5.6-2.4-8.6-3.3c-9.7-2.8-18-11.8-18.3-22-.1-4.7,1.4-9.5.7-14.3a15.7,15.7,0,0,0-3.1-7.4c-2.6-3.3-6.4-5.6-8.5-9.2-3.5-6.3-.8-14.3-3.4-21-.8-2-2.3-4.1-4.5-4.3s-4.1,1.7-6.1,2.5c-4.4,1.7-9.1-1.2-12.7-4.2s-7.8-6.2-12.4-5.6c-3,.4-5.5,2.5-8.3,3.6s-6.3,1.5-8.1-.2c-3.8-3.7,5.1-12.9,6.7-16.2s2-5.7,3.6-8.3l.2-.4a16.8,16.8,0,0,0-3,3.5c-1.6,2.5-2.2,5.6-3.6,8.3s-10.5,12.4-6.6,16.1c1.8,1.8,6,1,8.1.3s5.2-3.2,8.3-3.6c4.6-.7,8.7,2.7,12.3,5.6s8.4,5.8,12.7,4.1c2.1-.8,3.9-2.6,6.2-2.4s3.7,2.2,4.5,4.2c2.5,6.7-.1,14.8,3.4,21,2.1,3.7,5.9,5.9,8.5,9.3a16.3,16.3,0,0,1,3.1,7.4c.7,4.7-.8,9.5-.7,14.3.3,10.2,8.5,19.1,18.3,22,2.9.9,6.2,1.3,8.5,3.3s3.7,5.7,5.3,8.8a25.8,25.8,0,0,0,28.1,13l-2.2-2.5C893,347.1,883.5,341.8,879.2,333.3Z" opacity="0.1" style="isolation:isolate"/><path d="M815.1,290.9c-1.2,1.8-4.7,11.4-7.6,19.7-2.7-1.1-5.2-7.8-5.2-7.8l14.5-20.7C818.3,284.2,817.3,287.6,815.1,290.9Z" opacity="0.1" style="isolation:isolate"/><path d="M815.7,290.3c-1.2,1.9-4.7,11.4-7.6,19.7-2.7-1-5.2-7.8-5.2-7.8l14.5-20.6C818.9,283.6,817.9,287,815.7,290.3Z" fill="#050505" opacity="0.1"/><path d="M731.3,385.3,723.2,360a2.4,2.4,0,0,1,1.6-3h0a2.2,2.2,0,0,1,2.9,1.4h.1l8,25.4-.8,5.3Z" fill="#be8b87"/><path d="M724,357.7h0a2.4,2.4,0,0,1,3,1.5h0l8,25.4-.6,4,.6.6.8-5.3-8-25.4a2.4,2.4,0,0,0-3-1.5h0a3,3,0,0,0-1.3.9Z" fill="#fff" opacity="0.1" style="isolation:isolate"/><polygon points="731.3 385.3 735.8 383.9 735.1 388.2 735 389.2 733.7 387.8 731.3 385.3" fill="#efc8c4"/><path d="M733.7,387.8l.3-.2a.3.3,0,0,1,.4,0c.1,0,.1.1.1.2s.4.4.6.4v1Z" fill="#727a9c"/><path d="M723.2,368.9s16.1-.1,12.3,6.8-9.7,7.7-9.7,7.7Z" fill="#ffb0b1"/></svg>