<svg id="f0a8f4ba-cc2b-4400-9e08-d246a0bad060" xmlns="http://www.w3.org/2000/svg" viewBox="0 0 926.1 632.4"><title>SaaS-CRO-Hero</title><g id="blob-shape"><path id="Path_18" data-name="Path 18" d="M402.8,626.4c149.8,2.2,247.3-.8,388.3-9.4s118.8-37,105.8-71.7c-12-32.9,93.1-39.3-59.3-71.1S552,431.8,431.3,442.3,290,471.9,200,508.6-21.6,577.2,14.3,596.9,252.8,624.1,402.8,626.4Z" fill="#edf2f7"/></g><rect x="62.2" y="5.3" width="25.6" height="578.27" fill="#cbd5e0"/><rect x="841.6" y="5.3" width="25.6" height="578.27" fill="#cbd5e0"/><rect x="62.2" y="5.3" width="805" height="25.61" fill="#050505"/><circle cx="801.3" cy="17.7" r="6.6" fill="#cbd5e0"/><circle cx="822.9" cy="17.7" r="6.6" fill="#cbd5e0"/><circle cx="844.4" cy="17.7" r="6.6" fill="#cbd5e0"/><polygon points="62.8 410.3 62.2 410.8 62.2 583.5 867.2 583.5 867.2 280.1 857.6 280.8 62.8 410.3" fill="#cbd5e0"/><rect x="120.3" y="176.6" width="224.8" height="9.06" fill="#050505"/><rect x="120.3" y="196.5" width="224.8" height="9.06" fill="#050505"/><rect x="120.3" y="216.5" width="76.1" height="9.06" fill="#050505"/><rect x="578.7" y="428.2" width="224.8" height="9.06" fill="#fff"/><rect x="578.7" y="448.1" width="224.8" height="9.06" fill="#fff"/><rect x="578.7" y="468.1" width="76.1" height="9.06" fill="#fff"/><circle cx="439.1" cy="566.3" r="8.8" fill="#f2f2f2"/><circle cx="464.7" cy="567.2" r="8.8" fill="#f2f2f2"/><circle cx="490.4" cy="568.1" r="8.8" fill="#f2f2f2"/><circle cx="464.8" cy="567.2" r="7.1" fill="#050505"/><rect x="194.4" y="280.3" width="76.1" height="17.37" fill="#3f3d56"/><rect x="647" y="515.4" width="76.1" height="17.37" fill="#fff"/><circle cx="232.9" cy="289.1" r="52.7" fill="#050505" opacity="0.2"/><circle cx="232.9" cy="289.1" r="35.1" fill="#050505" opacity="0.6"/><circle cx="232.9" cy="289.1" r="24.4" fill="#050505"/><circle cx="676.1" cy="158.6" r="52.7" fill="#050505" opacity="0.2"/><circle cx="676.1" cy="158.6" r="35.1" fill="#050505" opacity="0.6"/><circle cx="676.1" cy="158.6" r="24.4" fill="#050505"/><circle cx="685.5" cy="524.2" r="52.7" fill="#050505" opacity="0.2"/><circle cx="685.5" cy="524.2" r="35.1" fill="#050505" opacity="0.6"/><circle cx="685.5" cy="524.2" r="24.4" fill="#050505"/><path d="M831,555.1c12,20.5,36.3,28.6,36.3,28.6s4.7-25.1-7.3-45.6-36.2-28.5-36.2-28.5S819,534.7,831,555.1Z" fill="#fff"/><path d="M838.5,548c20.8,11.5,29.5,35.5,29.5,35.5s-25,5.3-45.7-6.2-29.5-35.5-29.5-35.5S817.8,536.5,838.5,548Z" fill="#050505"/></svg>