<svg id="b07e7c8b-ffb9-458f-9d0a-e368c1cfe139" xmlns="http://www.w3.org/2000/svg" viewBox="0 0 1020 612"><path d="M279.8,611.2,253.3,537s29.1,14.6,30.4,33.1c0,0-6.6-92.7-19.8-112.6,0,0,21.2,2.7,45,106,0,0,4-119.2-31.8-153.6,0,0,49,39.7,53,125.8v75.5Z" fill="#e2e8f0"/><path d="M776.6,611.2l-6.4-17.8s7,3.5,7.3,7.9c0,0-1.5-22.3-4.7-27,0,0,5.1.6,10.8,25.4,0,0,1-28.6-7.6-36.9,0,0,11.7,9.5,12.7,30.2v18.2Z" fill="#e2e8f0"/><circle cx="658.6" cy="341.3" r="116.5" fill="#e2e8f0"/><rect y="8.8" width="274.7" height="152.6" fill="#cbd5e0"/><rect x="372.7" y="8.8" width="274.7" height="152.6" fill="#cbd5e0"/><rect x="745.3" y="8.8" width="274.7" height="152.6" fill="#cbd5e0"/><path d="M706.1,611.6c-.2-.3-4.5-7.5-6.1-22.6s-.4-37.1,11.6-69.6c22.9-61.6-5.2-111.3-5.5-111.8l1.4-.8c0,.1,7.3,12.8,11.6,33a143.1,143.1,0,0,1-6,80.1c-22.8,61.5-5.8,90.6-5.6,90.9Z" fill="#3f3d56"/><circle cx="697.1" cy="393.5" r="10.4" fill="#cbd5e0"/><circle cx="730.1" cy="432.1" r="10.4" fill="#050505"/><circle cx="707.6" cy="457.8" r="10.4" fill="#cbd5e0"/><circle cx="734.9" cy="479.5" r="10.4" fill="#cbd5e0"/><circle cx="699.5" cy="513.2" r="10.4" fill="#050505"/><path d="M712.4,612s-10.4-25.7,20.9-45Z" fill="#050505"/><path d="M699.6,611.5s-4.8-27.3-41.6-27.1Z" fill="#050505"/><rect x="0.4" width="273.9" height="13.65" fill="#050505"/><rect x="373.1" width="274.7" height="13.65" fill="#050505"/><rect x="745.7" width="273.9" height="13.65" fill="#050505"/><rect x="20.9" y="34.9" width="49.8" height="35.34" fill="#fff"/><rect x="116.5" y="34.9" width="137.3" height="4.02" fill="#fff"/><rect x="116.5" y="51" width="137.3" height="4.02" fill="#fff"/><rect x="116.5" y="67.1" width="137.3" height="4.02" fill="#fff"/><rect x="393.5" y="34.9" width="49.8" height="35.34" fill="#fff"/><rect x="489.1" y="34.9" width="137.3" height="4.02" fill="#fff"/><rect x="489.1" y="51" width="137.3" height="4.02" fill="#fff"/><rect x="489.1" y="67.1" width="137.3" height="4.02" fill="#fff"/><rect x="766.2" y="34.9" width="49.8" height="35.34" fill="#fff"/><rect x="861.8" y="34.9" width="137.3" height="4.02" fill="#fff"/><rect x="861.8" y="51" width="137.3" height="4.02" fill="#fff"/><rect x="861.8" y="67.1" width="137.3" height="4.02" fill="#fff"/><circle cx="45.8" cy="53" r="16.1" fill="#050505"/><circle cx="791.1" cy="53" r="16.1" fill="#050505"/><rect x="126.7" y="161.4" width="1.6" height="4.82" fill="#050505"/><path d="M128.3,359h-1.6v-9.6h1.6Zm0-19.3h-1.6v-9.6h1.6Zm0-19.2h-1.6v-9.7h1.6Zm0-19.3h-1.6v-9.7h1.6Zm0-19.3h-1.6v-9.6h1.6Zm0-19.3h-1.6V253h1.6Zm0-19.2h-1.6v-9.7h1.6Zm0-19.3h-1.6v-9.7h1.6Zm0-19.3h-1.6v-9.6h1.6Zm0-19.3h-1.6v-9.6h1.6Z" fill="#050505"/><polygon points="132.3 374.3 126.7 374.3 126.7 368.6 128.3 368.6 128.3 372.7 132.3 372.7 132.3 374.3" fill="#050505"/><path d="M868.2,374.3h-9.7v-1.6h9.7Zm-19.4,0h-9.7v-1.6h9.7Zm-19.4,0h-9.6v-1.6h9.6Zm-19.3,0h-9.7v-1.6h9.7Zm-19.4,0H781v-1.6h9.7Zm-19.4,0h-9.6v-1.6h9.6Zm-19.3,0h-9.7v-1.6H752Zm-19.4,0h-9.7v-1.6h9.7Zm-19.3,0h-9.7v-1.6h9.7Zm-19.4,0h-9.7v-1.6h9.7Zm-19.4,0h-9.7v-1.6h9.7Zm-19.3,0h-9.7v-1.6h9.7Zm-19.4,0h-9.7v-1.6h9.7Zm-19.4,0h-9.7v-1.6h9.7Zm-19.3,0h-9.7v-1.6h9.7Zm-19.4,0H568v-1.6h9.7Zm-19.4,0h-9.6v-1.6h9.6Zm-19.3,0h-9.7v-1.6H539Zm-19.4,0h-9.7v-1.6h9.7Zm-19.4,0h-9.6v-1.6h9.6Zm-19.3,0h-9.7v-1.6h9.7Zm-19.4,0h-9.7v-1.6h9.7Zm-19.3,0h-9.7v-1.6h9.7Zm-19.4,0h-9.7v-1.6h9.7Zm-19.4,0h-9.7v-1.6h9.7Zm-19.3,0h-9.7v-1.6h9.7Zm-19.4,0H355v-1.6h9.7Zm-19.4,0h-9.6v-1.6h9.6Zm-19.3,0h-9.7v-1.6H326Zm-19.4,0h-9.7v-1.6h9.7Zm-19.4,0h-9.6v-1.6h9.6Zm-19.3,0h-9.7v-1.6h9.7Zm-19.4,0h-9.7v-1.6h9.7Zm-19.3,0h-9.7v-1.6h9.7Zm-19.4,0h-9.7v-1.6h9.7Zm-19.4,0h-9.7v-1.6h9.7Zm-19.3,0h-9.7v-1.6h9.7Zm-19.4,0H142v-1.6h9.7Z" fill="#050505"/><polygon points="883.5 374.3 877.8 374.3 877.8 372.7 881.9 372.7 881.9 368.6 883.5 368.6 883.5 374.3" fill="#050505"/><path d="M883.5,359h-1.6v-9.6h1.6Zm0-19.3h-1.6v-9.6h1.6Zm0-19.2h-1.6v-9.7h1.6Zm0-19.3h-1.6v-9.7h1.6Zm0-19.3h-1.6v-9.6h1.6Zm0-19.3h-1.6V253h1.6Zm0-19.2h-1.6v-9.7h1.6Zm0-19.3h-1.6v-9.7h1.6Zm0-19.3h-1.6v-9.6h1.6Zm0-19.3h-1.6v-9.6h1.6Z" fill="#050505"/><rect x="881.9" y="161.4" width="1.6" height="4.82" fill="#050505"/><rect x="372.7" y="325.3" width="274.7" height="285.92" fill="#cbd5e0"/><rect x="393.5" y="362.6" width="49.8" height="35.34" fill="#fff"/><rect x="489.1" y="362.6" width="137.3" height="4.02" fill="#fff"/><rect x="489.1" y="378.7" width="137.3" height="4.02" fill="#fff"/><rect x="489.1" y="394.7" width="137.3" height="4.02" fill="#fff"/><rect x="393.5" y="489.9" width="49.8" height="35.34" fill="#fff"/><rect x="489.1" y="489.9" width="137.3" height="4.02" fill="#fff"/><rect x="489.1" y="506" width="137.3" height="4.02" fill="#fff"/><rect x="489.1" y="522" width="137.3" height="4.02" fill="#fff"/><polygon points="418.7 389.2 401.6 366.5 405.6 363.5 419.5 382 454.9 353.3 458.1 357.2 418.7 389.2" fill="#050505"/><polygon points="418.7 515.3 401.6 492.6 405.6 489.6 419.5 508.1 454.9 479.4 458.1 483.3 418.7 515.3" fill="#050505"/><rect x="7.2" y="610.4" width="991.9" height="1.61" fill="#3f3d56"/><path d="M544.6,170.3s26.5-11.6,38.9.6S550.2,179.1,544.6,170.3Z" fill="#3f3d56"/><path d="M590.3,115.5c-8.9-15.1-26.5-15.8-26.5-15.8s-17.2-2.2-28.2,20.8c-10.2,21.3-24.4,42-2.3,47l4-12.5,2.5,13.4c3.2.2,6.3.3,9.5.2,23.7-.8,46.3.2,45.6-8.3C593.9,148.9,598.9,130,590.3,115.5Z" fill="#050505"/><path d="M602.8,388.3s-11.2,20.9-18.5,20.9-6.4,13.7-4.8,16.9,5.6,10.4-.8,20.9c-2.2,3.6-1.8,7.7-.4,11.6,4.2,10.7,20.2,7.5,19.7-4v-.4c-.8-12.9,5.6-32.9,12-37.8s12.1-17.6,12.1-17.6Z" fill="#ffb8b8"/><path d="M525.7,383.5s11.2,20.9,18.5,20.9,6.4,13.6,4.8,16.9-5.6,10.4.8,20.8c2.2,3.7,1.8,7.8.4,11.7-4.2,10.7-20.2,7.5-19.7-4.1v-.3c.8-12.9-5.6-33-12-37.8s-12.1-17.7-12.1-17.7Z" fill="#ffb8b8"/><path d="M534.5,280.7l-4.8,10.4s-70.7,23.3-64.2,50.6S503.2,411.6,508,410s30.6-6.4,31.4-20.1-18.5-37.7-18.5-37.7l26.5-24.1,38.6-.8,32.9,24.9s-34.6,30.5-19.3,42.5,37.7,20.1,41,15.3,39.3-76.3,33.7-82.7-62.7-30.5-62.7-30.5l-15.2-21.7-59.5-3.2Z" fill="#050505"/><path d="M549,148.2s4,26.5-4,29.7,16,16.9,16,16.9h13.7l8.8-18.5s-8-14.5-3.2-28.1S549,148.2,549,148.2Z" fill="#ffb8b8"/><path d="M549,148.2s4,26.5-4,29.7,16,16.9,16,16.9h13.7l8.8-18.5s-8-14.5-3.2-28.1S549,148.2,549,148.2Z" opacity="0.1" style="isolation:isolate"/><path d="M543.4,170.7s8.8,9.6,10.4,11.2,8.8,10.5,24.1-2.4,16.9,2.4,16.9,2.4v96.4s-12.9-5.6-23.3,0-32.1-1.6-32.1-1.6l-4.1-99.6Z" fill="#fff"/><path d="M549.3,170.7s-7.5-3.2-14,0-28.9,19.2-27.3,26.5,22.5,57.8,8.1,81.9-16.9,30.5-16.9,30.5l35.3-18.5s27.3-16.8,24.9-27.3S549.3,170.7,549.3,170.7Z" fill="#cbd5e0"/><path d="M581.1,170.7s16.9,1.6,17.7,3.2,25.3,8.4,23.7,15.6-23.7,71.9-14.1,84,25.7,28.9,20.1,30.5-15.3-2.4-24.9,0-32.1-17.7-29.7-39.4S573.9,176.3,581.1,170.7Z" fill="#cbd5e0"/><path d="M541,324.1v8s-4.1,18.5,8.8,17.7,4.8-22.5,4.8-22.5l-.8-7.2Z" fill="#ffb8b8"/><path d="M577.1,324.9s-8.8,18.4,0,20.1,15.3-10.5,15.3-13.7S577.1,324.9,577.1,324.9Z" fill="#ffb8b8"/><ellipse cx="588.7" cy="137.3" rx="1.6" ry="3.2" fill="#ffb8b8"/><ellipse cx="541.4" cy="137.3" rx="1.6" ry="3.2" fill="#ffb8b8"/><path d="M602.8,181.1s20.1,0,19.3,8-27.3,146.2-27.3,146.2-11.3-10.4-20.9-8Z" fill="#cbd5e0"/><path d="M524.9,183.5s-20.1,4-20.1,16.1,28.9,127.7,32.9,127.7,19.3-2.4,19.3-6.4S524.9,183.5,524.9,183.5Z" fill="#cbd5e0"/><path d="M529.3,207.2l18.1,70.7S539,216,529.3,207.2Z" opacity="0.2" style="isolation:isolate"/><path d="M599.6,197.3l-18.3,92.4S587.2,202.6,599.6,197.3Z" opacity="0.2" style="isolation:isolate"/><circle cx="565.1" cy="137.7" r="23.3" fill="#ffb8b8"/><polygon points="586.4 114 569 104.9 545 108.7 540 130.6 552.4 130.2 555.8 122.1 555.8 130 561.5 129.8 564.8 116.9 566.9 130.6 587.2 130.2 586.4 114" fill="#050505"/></svg>