<svg id="a4efc002-80f6-4f30-a290-092c25b18b21" xmlns="http://www.w3.org/2000/svg" viewBox="0 0 1149 784.1"><path d="M435,747.1c0,20.4-95.8,37-214,37S7,767.5,7,747.1c0-5.1,6-10,16.8-14.4,31.5-12.9,104-22.1,189.3-22.6H221C339.2,710.1,435,726.6,435,747.1Z" fill="#cbd5e0"/><path d="M213.1,710.1A121.5,121.5,0,0,1,46,750.1a116.7,116.7,0,0,1-22.2-17.4C55.3,719.8,127.8,710.6,213.1,710.1Z" opacity="0.1" style="isolation:isolate"/><path d="M249.4,83.3c15.9,61.2,67.1,100.8,114.6,88.4" fill="#050505"/><path d="M364,171.7c-16.1-61.8,13.7-123,66.7-136.7" fill="#cbd5e0"/><path d="M282,80.8c15,58.1,51.7,98.8,82,90.9" fill="#cbd5e0"/><path d="M364,171.7C343.4,92.7,376.3,15.9,437.5,0" fill="#050505"/><path d="M346.1,177.2s12.1-3.5,15.1-7.1,17.2-10.6,19.2-6.6,23.7,16.1,10,19.7-32.5,6.2-36.7,4.9S346.1,177.2,346.1,177.2Z" fill="#a8a8a8"/><path d="M390.3,181.7c-13.8,3.7-32.5,6.2-36.8,4.9s-5.9-6.8-7-9.5h-.4s3.3,9.6,7.6,10.9,23-1.2,36.7-4.9c3.9-1,5-2.8,4.3-4.9C394.5,179.7,393.2,180.9,390.3,181.7Z" opacity="0.2" style="isolation:isolate"/><rect x="343" y="126.1" width="806" height="467" fill="#cbd5e0"/><rect x="362" y="267.8" width="442" height="231.5" fill="#cbd5e0" opacity="0.3" style="isolation:isolate"/><rect x="838" y="257.7" width="177.3" height="9.81" fill="#050505"/><rect x="838" y="275.8" width="258" height="9.81" fill="#050505"/><rect x="838" y="319.6" width="177.3" height="9.81" fill="#050505"/><rect x="838" y="392" width="177.3" height="9.81" fill="#050505"/><rect x="838" y="337.7" width="258" height="9.81" fill="#050505"/><rect x="838" y="355.8" width="258" height="9.81" fill="#050505"/><rect x="838" y="373.9" width="258" height="9.81" fill="#050505"/><rect x="838" y="435.8" width="92.8" height="25.65" fill="#050505"/><path d="M314.5,407.9s16.6-47.2,28.7-32.4-18.5,39.8-18.5,39.8Z" fill="#a0616a"/><path d="M235.8,361.6l10.1,3.8s4.7,21.2,2.9,24.9-2.8,1,0,8.4,11.1,26.8,12,29.6,53.7-17.6,53.7-27.8c0,0,11.1,13,16.6,15.7,0,0-61,44.5-69.4,50s-12.9,2.8-20.3-3.7-38.9-60.1-38.9-60.1Z" fill="#cbd5e0"/><path d="M262.7,690.2s-1,10.1-2.8,11.1-15.7,24,0,28.6,25,2.8,28.7,4.7,68.5,5.5,69.4-4.7-31.5-12-31.5-12-29.6-19.4-34.2-29.6S262.7,690.2,262.7,690.2Z" fill="#050505"/><path d="M74.8,708.7s-22.2,37.9-16.6,42.5,59.6,21.5,67.5,22.2c10.2,1,17.6-7.4,9.3-12s-25.9-24.1-25.9-30.5V714.2Z" fill="#050505"/><path d="M53.5,460.7s-19.4,24,11.1,62.9l50.9,64.8s-31.4,49.9-32.4,75.8-7.4,20.4-9.2,31.5-10.2,5.6-3.7,13.9,30.5,15.7,37.9,9.2,7.4-14.8,7.4-18.5,13-25,13.9-31.4,35.2-59.3,35.2-59.3,11.1-31.4-1.9-49-21.5-42.5-21.5-42.5,38.2,46.2,65,57.3c0,0,10.2,1.9,8.3,6.5s0,7.4,2.8,12,22.2,58.3,28.7,72.2,3.7,22.2,11.1,26.8,40.7,1,40.7-3.7-4.6-16.6-7.4-23.1-25-81.4-23.1-94.4-.9-30.5-14.8-37.9-84.2-67.6-87.9-67.6S53.5,460.7,53.5,460.7Z" fill="#050505"/><circle cx="239.5" cy="276.5" r="38.9" fill="#a0616a"/><path d="M208.1,280.2s-12.1,21.3-26.9,24.1,38.9,45.3,38.9,45.3,13-40.7,24.1-42.6S208.1,280.2,208.1,280.2Z" fill="#a0616a"/><path d="M246,367.2c0,12-36.1,46.3-36.1,46.3l-34.2,28.7s-.9,10.1-4.6,11.1-8.4.9-4.7,6.4,13,17.6,4.7,19.5c-2.6.3-5.1.6-7.6.7l-7.8.4c-6.8.2-15.4.3-24.7.3h-8c-35-.7-75.6-4.7-72.2-18,5.5-22.2,1.8-29.6,13.8-41.6s31.5-53.7,31.5-53.7,38.9-65.7,71.3-65.7l6.7-1.8a15.3,15.3,0,0,1,16.8,6.5c6.5,9.9,16.7,24.7,22.7,29.5,9.3,7.4,10.7,2.1,10.7,2.1S246,355.2,246,367.2Z" fill="#cbd5e0"/><path d="M163.7,507.9s26.8,41.6,10.1,49-25.9-43.5-25.9-43.5Z" fill="#a0616a"/><path d="M214.1,272.1c1.5-.2,2-2.1,2.2-3.5,1.4-8,7.3-15.5,15.2-16.8a23.1,23.1,0,0,1,9.1.7,33.3,33.3,0,0,1,11.6,5.8c1.9,1.4,3.6,3,5.8,3.6s7.7,3.2,9.1,3.7c3.2,1,5.9,4.3,9.1,3.7s4.4-4.5,4.9-7.6c1.1-7.2-3-17.9-7.1-24-3.1-4.5-8.4-7.2-13.6-8.9a101.9,101.9,0,0,0-18.9-3.7c-8.7-1-17.6-1.6-25.9,1.1s-15.8,9.2-17.4,17.8c-.3,1.7-.3,3.6-.7,5.3-1,4.4-3.9,8-5.5,12.1a22.8,22.8,0,0,0,.7,18.8c2.3,4.6,6.3,9.1,5.4,14.2l7.2-5.6a5.3,5.3,0,0,0,2.4-6.1l-1.1-8.9c-.2-1.7-.3-3.5.5-4.9C210.3,263.4,211.6,272.4,214.1,272.1Z" fill="#050505"/><path d="M147,444l8.7,36.3c-8.8.3-20.4.4-32.7.2-3.1-9.3-6.1-19.1-8.4-28.2-8.3-33.3,5.6-84.2,13-108.2s25.9-30.6,25.9-30.6,9.2,2.8,21.3,11.1S147,444,147,444Z" opacity="0.1" style="isolation:isolate"/><path d="M154.4,442.2l9.1,37.7-7.8.4c-6.8.2-15.4.3-24.7.3-3.3-9.9-6.6-20.4-9-30.1-8.3-33.3,5.6-84.2,13-108.3s23.6,2.3,23.6,2.3-6.5-15.7,5.5-7.4S154.4,442.2,154.4,442.2Z" opacity="0.1" style="isolation:isolate"/><path d="M157.2,311.7s-18.5,6.5-25.9,30.5-21.3,75-13,108.3,25.9,74.9,25.9,74.9,17.6-12.9,24.1-10.1l-17.6-73.1s39.8-111.1,27.8-119.4S157.2,311.7,157.2,311.7Z" fill="#cbd5e0"/><rect x="370.5" y="243.8" width="414.5" height="231.5" fill="#edf2f7"/><ellipse cx="572.2" cy="364.1" rx="50" ry="50.1" fill="#fff"/><path d="M572.2,305.5A59.8,59.8,0,1,0,632,365.2,59.7,59.7,0,0,0,572.2,305.5ZM560,397.1l-30.7-30.6,8.6-8.6L560,380l46.6-46.6,8.6,8.6L560,397.1Z" fill="#050505"/></svg>