<svg id="a1bb6ffe-8d83-4899-8fa0-fcb3165ea164" xmlns="http://www.w3.org/2000/svg" viewBox="0 0 884.6 628.6"><ellipse cx="75.2" cy="619.6" rx="75.1" ry="9" fill="#cbd5e0"/><rect x="196.2" y="0.4" width="688.4" height="440.87" fill="#cbd5e0"/><rect x="215.9" y="55.7" width="649" height="359.49" fill="#fff"/><rect x="195.9" width="688.4" height="29.24" fill="#050505"/><circle cx="818.3" cy="15" r="5.4" fill="#cbd5e0"/><circle cx="838.9" cy="15" r="5.4" fill="#cbd5e0"/><circle cx="859.5" cy="15" r="5.4" transform="translate(666.4 852.6) rotate(-78)" fill="#cbd5e0"/><path d="M584.7,146.2a4.9,4.9,0,0,0-.1,1.2Z" fill="#7f77ff"/><path d="M501.7,184.2a2.2,2.2,0,0,0-.3-1.4C501.5,183.7,501.6,184.4,501.7,184.2Z" fill="#7f77ff"/><path d="M500.1,203.2a4.9,4.9,0,0,0-.1,1.2A1.7,1.7,0,0,1,500.1,203.2Z" fill="#7f77ff"/><path d="M584.6,147.4l-.6,3.2C584.6,150.8,584.4,149,584.6,147.4Z" fill="#cbd5e0"/><path d="M613.2,117.9h.9a2.7,2.7,0,0,0,.8-.7Z" fill="#cbd5e0"/><path d="M650.9,119.6a1.3,1.3,0,0,1,.9-1l-.8-1C650.5,117.6,651,119,650.9,119.6Z" fill="#cbd5e0"/><path d="M690.5,92.6h0Z" fill="#7f77ff"/><path d="M689.7,92.8l.8-.2Z" fill="#7f77ff"/><path d="M582.9,121.1c-.2,0-.4.1-.4.3S582.8,121.4,582.9,121.1Z" fill="#cbd5e0"/><path d="M738.6,94.2v.6h.8Z" fill="#cbd5e0"/><path d="M497,226.4Z" fill="#7f77ff"/><path d="M417.7,244.2a1.6,1.6,0,0,1-.6.8C417.4,244.4,417.5,244.2,417.7,244.2Z" fill="#7f77ff"/><path d="M474.8,229.3l-1.6-.2Z" fill="#7f77ff"/><path d="M397.3,249h-1.7l.4.2A2.7,2.7,0,0,1,397.3,249Z" fill="#7f77ff"/><path d="M397.3,249h0Z" fill="#7f77ff"/><path d="M363.6,249.1l.6.3h1.1Z" fill="#7f77ff"/><path d="M392.1,250.1h0Z" fill="#7f77ff"/><path d="M733,375.9h0Z" fill="#7f77ff"/><path d="M742.3,344.3h0Z" fill="#7f77ff"/><path d="M471.8,230.2l1.1-.3C473.6,230,472.6,230,471.8,230.2Z" fill="#7f77ff"/><path d="M741.3,223.8a3.1,3.1,0,0,1,.2-.8A1.9,1.9,0,0,0,741.3,223.8Z" fill="#7f77ff"/><path d="M743.1,328c.1-.2.2-.5.4-.6v.5a7.4,7.4,0,0,0-.2-3,28.5,28.5,0,0,0,.4-4c1-.5.6-5.6.6-8-1.3.2-1.1-2.9-2.2-.1a14,14,0,0,1,.1,2.2c.1.3.1.7.2,1s-.1-.1-.1-.2c0,1.6,0,3.7.1,6.1a9.4,9.4,0,0,1-.6-6.6l-2.2-3.4c1.9-3.4,3-9.8,4.2-10.7-.8-7.4-.6-17.5-3.1-22.1-.4-2.2.7-2.5,1.1-3.3.3,1.3.2,2.7.6,3.4-.7-4.3-.2-12.5-2.1-13.6.9-5.3,1.7,3,1.4-4.3l.6,1c2.8-14.1-4.4-23.1-1.1-38.5a1.9,1.9,0,0,1-.5,1.1c1.7-18.2-1.5-37.5,1.1-55.5.5-5.1-.6-5.6-1.5-8.7l1.4-1.1-1.7-5.4c-1.2-7.5,3.7-13,1.3-22.6l-1,1.3c.2-3.5-.6-10.9.6-10.3a2.5,2.5,0,0,1-.5-2.5h.7l-1.3-8.4c.6-6.6,3.1,1,3.2-8.6-.3-3.5-2.2-10-2.7-8.7s-.5,3.6-1.3,3.7l-.4-3.2h-.4v-.5h-1.4a2.1,2.1,0,0,0-1.9,0H700l.3-.4-1.1.4h-5c.2-.3.6-.6,1.6-.7-3.6-1-3.2.7-6.2-.4-.4-.2-.2-.3.1-.3l-3.5.6c.7-.5-.6-1.5,1.5-1.2-6.3-1.2-10.1,1.5-12.5,0h.5c-6.5.5-3.8,1.1-4.7,2.1h-4.1l-.8-.7-1.1-.9-1.2-1a6,6,0,0,0-.9,1.5c-1.1,0-3.1-.1-3.1-.7-1.7.5-1.4.6-.9.8s1,.3.3.8a21.1,21.1,0,0,0-3.5-.5c-.1,2.2,0,4.8,0,6.8s-.3,3.5-1.3,3.9c1.1,1.5.9-4.2,1.7.5-2.6,1.3.4,5.4-.8,9.2-1.3-1.1-.6-4.9-1.8-.9a3.6,3.6,0,0,1,.9,3,27.6,27.6,0,0,1-.8,2.7,5.5,5.5,0,0,0-1.8-.1c.6.9-.7,1.1-2.7,1.1h-3.9l-4.4.2c.4-.6-10.5-.9-15.8-1.6l.2-.3c-1,1.8-6.4,1.5-10.4,1.9.2-1.1.9-1.5,3-2h-3.7c-.8.6-2,.9-4.4,1.1l1-1.4c-2.5.1-5,.5-7.6.7a28.6,28.6,0,0,1-4.2.3h-3.3l-1.3-.2c-.1.3.4.7.7,1.1l1,1.2a1,1,0,0,1,.1.9h-3.5c.1-.4.3-.7,1-.9a8.1,8.1,0,0,1-3.1.2,16.9,16.9,0,0,1,2.7-1.1c-3.7-.5-1.5.9-4.1.8-.6-1-2.5-.7-2.7-1.4s2.8.3,3.7,0a48.5,48.5,0,0,1-6.3-.7,6.2,6.2,0,0,1-.9,2.7c.6.1,1.3,1,1.5,3.5s-.3,3.8-.7,4l-.5.3-.3.6c-.1.2-.1.5-.2.8s0,4.3,1.4,4.4-.7,1.7-1,2.3c.6,2.5.1,11.8,1.7,9v-.3a39.9,39.9,0,0,1,.5,7.7c0,2.1-.3,4.1-.4,5.9l-4.1-.3h-4.2v-.5c-4.9.6-11,.4-14.5,1.4-1.5,0-3.5-.9-2.8-1.5-3.8.4-4.2.9-9.7.1,3.8-.8-1.3-.7,3.9-.6-4.9-.4-6-1.2-11.3.2,1.8-1.3-3.7-1.6-6-1.2l3.4.9a57.7,57.7,0,0,1-7.2-.1l1.3-1.6c-5.1-1-9.6-.2-13.8.5a42.2,42.2,0,0,1-6.1.7h-1.7l-2.3-.2-4.9-.8c-1.7.5.6.7,2.8.9s4.2.5,2.7,1.2a64.5,64.5,0,0,1-9.7-1.3,51.3,51.3,0,0,0-1.3,6.6c-.1,1.3-.1,2.4-.1,3.4v1.5c0,.2,0,.5.1.6v.4a11.3,11.3,0,0,0,.8,2.4,11.7,11.7,0,0,1,1,6.4c.6-.9,2.1-1.7,2.7,3.3-.2,2.7-1,4.2-1.8,4.4s-.8-.3-1-1.1a1.3,1.3,0,0,1-.1-.6c-.1-1.1.1-1.6.3-1.6s-.5-3.4-1.1-1.6l.6.6a23.4,23.4,0,0,0-.4,2.6c-.2,2.6-.4,5.7-1.1,4.6.5,3,.8,1.9,1.1,0-.6,5.2.1,8.5-.4,14.2.3-.9,1-1.8,1-.9-.8,9,1.1,4,1.3,10-.9,3.5-2.1-1.2-1.4,4.9-.6,3.7-1.5.8-2-.7a22.2,22.2,0,0,1,.1,7.7.9.9,0,0,0-.1.5c0,.1-.1.2-.1.3v.2h-.1l-.3.3-.4.3-.4-.5a.6.6,0,0,1,.2.5l.4.2a2,2,0,0,0,.8.4c-.2.2-.2.5-.6.2h-.1a4.9,4.9,0,0,0,1.2,1.3c.5.6,1.1,1.1.5,1.6a6.5,6.5,0,0,0-2.4-.1h-1.6a1.5,1.5,0,0,1-1.2-.7h2.5c.1-.1,0-.3-.1-.6s-.2-.8.1-1.1h-1.5c-.3-.2.2-.3.7-.4l-1.4-.3h-2.5c-1.8.5-1.4,2-6.4,2,.9-.9-1.7-1.6-2.9-1.5,2.9.1,1.4,1.5-1.2,2.1-4.6-.6-5,.5-7.4.5l2.7.3c-.9.9-3.2.7-6.4,1-.1-.2.2-.3.5-.4-3.3.5-7.2-1.8-11.6-.9h-.1c-2.3-.6-.2-1.6-2.2-2-5.6,1.1-6-1.2-11.9-.3,1.7,1.2,2,.9-2.1,2l9.6-.8-6.2,1.7c2.9,0,6.2-.7,7.9-.5-3,.9-2.6.6-1.3,1.6-3.9-1.7-7.8,1-12.4-.2l.2-2.9a28.9,28.9,0,0,0-8.8.1h-2.5l-3.7.3c-2.5.1-5,.3-7.9.2,0,1.3,0,2.7-.1,4.1l.4-3.7h.4c0,.1-.1.1-.2.2a14.5,14.5,0,0,1,.4,5.5v.5h0v6c-1-.3-1.3,1.5-1.9,2.8s.3.3.3.9.1.6.2,1a5,5,0,0,0,1.4,2.7l-.5.3-1.8-.7a2.3,2.3,0,0,0-1.8.2l-.4.2h-.7l-1.5.5a17.7,17.7,0,0,1-7.5,1.3c2.1-1.1-1.1-1.7,3.6-2.5-2.4,0-4.4-.2-4.5.5h-.8c-1.1,0-3,.4-4.7.6a5.3,5.3,0,0,1-2.5,0h-.8a4.4,4.4,0,0,1-3.6,1.2.2.2,0,0,1-.1-.3h0c-.5.4-3.8.6-1.7,1.6-3.1-1.3-7.2-1.5-11.4-1.4s-11.2.5-14.7-1l-8,.5h-7.9c.2-.1.2-.3.3-.3h-3.3a6.5,6.5,0,0,0-2.1.6,6,6,0,0,1-3.6,1.4,16.1,16.1,0,0,1-.1,3.1c-.4.9-.7,1.1-.8.8a5.7,5.7,0,0,1-.3-1.8c-.1-1.6-.1-3.3-.4-2-1.5-.7-1.4,3-1.2,7.1.2,2.4.4,3.4.4,4.9a9.1,9.1,0,0,1-.6,4l-.2-1.2c-1,3.7,1.2,9.1,1,15.1,0,0-.3-.3-.5,0,1.7,4.1,2.2,11.9,2.6,17.8-1.2-1.8-.6-2.7-1.9-1.6.2,2.6,2-.7,2.4,4.5-.7,1.7-1.3,5.4-2.6,5.9v-4.9c-1.7,2.5.1,6.4-.2,8.9l-.8-.3c.2,7.5,2.2,7.6,2,15.7l.6-.8c1.9,4.4-1.1,3.7.4,8.1l-2,1.3c.5,3,1.9,10.3,2.3,15.5-1.5-3-2.2-9.1-3.1-12.9,0,2.9.2,9.8,1.1,11.3a9.3,9.3,0,0,1-.3-3.7c1.5,3.5,2.2,8.2,2.2,13.9-1.2-.3-1.7,1.2-2,3.5v.4a2,2,0,0,0-.1.7,6.6,6.6,0,0,1-.1,1.4v3.1c-.1,2.2-.1,4.4-.2,6.6,4.5.2,8.6.5,11,1.5h2.3l1.9-.2h3.8l7.8.3c5.2.3,10.7.7,16.6.6-4.2-2.9,3.5-.1,2.8-3.1,2.7-.2,3.8-.1,4,.1h0l8.4,1.7c2,.9-2.6.7-2.4,1.4,6.1.2,2.6,1.2,6.6,2-.8-1,2.1-1.5,5.5-1.1l-4.8-1.4c8.4-1.6,7.3,2.5,15.8,1l-2.7.9c4.4-.5,16.2,0,20.5-2.4.7.4,1.8,1.2-.2,1.4,10.5.4,23.3-2.5,31.4-1.1l-.8.8c2-.3,3.4-1.4,5.9-.7-.1.3-.8.8.1.8s5.2-1.3,7.8-.9l-2.2.9c6.4.6,10.9-.4,15.5-1.3a65,65,0,0,1,8.7-1.2c-.1,2.1,8,2.8,12,3.2l-.2.3a135.6,135.6,0,0,0,14.3-.7l10.9-1.4h.7l2.6-.2h.9l1.8-.2A38.4,38.4,0,0,0,553,378c7.6.4,17.2.1,24.5.9-1.7-.4.3-1.7,2.2-1.9s6.6-1.2,6.8.2a.4.4,0,0,1-.1.3h-.9c2,1.9,7.3,1.4,11.4,1.4l.7-2.5c10.8,3.7,28.3-1.4,34.2,1.9,2.6-.6,5.8-.6,8.4-1.2v1.3a162.1,162.1,0,0,0,19.7.2l-1.8,1c5.1.1,6.4-4,11-4l1.4,2c8.8,0,17.7,1.8,26.4-.1-.1.3-.4.9-1.8,1,4,.1,15.2,1.3,14.6-1.1,1,1.4,9.2-.2,13.7-.9l-.7,1.3c2-.9,3-1.4,4.2-1.8l2.2-.5,1.5-.2,2.5-.2c1.7.2,2,.9,0,.8a10.8,10.8,0,0,0,4.4-.2,12.1,12.1,0,0,1,3.8-.6,28.1,28.1,0,0,1,.1-2.9q.5,1.7.9,3.6a33.3,33.3,0,0,0-.3-6.3,35.4,35.4,0,0,0-1.1-3.9,1.7,1.7,0,0,0-.1-.7v-2.2c0-.9.1-1.9.2-2.9s.9-3.5,1.5-3.8-1.8-3.1-1.4-5.8c.5-.3.8.6.9,1.1.9-7.6-1.6-11.3-.2-16.5a1.2,1.2,0,0,0,.8-.9c-.1,5.5-.1,10.1-.2,10.5s1.4-4.9,3.2-1C744.5,339.4,742.5,332.7,743.1,328Zm1.1-10.1c.2,1.6-.1,2.1-.4,2.4s-.1-1.7-.2-2.9a.3.3,0,0,1-.1-.2Zm-56-224,.4.3h-2.1l1.7-.3Z" fill="#cbd5e0"/><path d="M497.7,226.9h0Z" fill="#7f77ff"/><path d="M471.6,230.2h0Z" fill="#7f77ff"/><path d="M742.4,315a2,2,0,0,1-.1-.7,3,3,0,0,0-.4,1l.5.5Z" fill="#cbd5e0"/><path d="M584.7,146.2l.2-.5c0,.2-.1.2-.1.3Z" fill="#7f77ff"/><path d="M653.1,92.5c.5,0,1,.7.9,5.3l.3-5.7h2.1c-1.7-.5-4.6-1.2-.6-1.4l-3.2-.3C652.3,93.2,652.7,92.5,653.1,92.5Z" fill="#cbd5e0"/><path d="M653.2,116.5c-.1-1.1-.3-1.2-.5-1s-.4.4-.6.2C652.6,117,652.7,117.7,653.2,116.5Z" fill="#cbd5e0"/><path d="M557.9,158.1l.4-1.3C555.7,157,558.3,157.3,557.9,158.1Z" fill="#cbd5e0"/><polygon points="512.8 155.8 513 155.8 513.4 155.7 515 155.6 516.1 155.4 514 155.7 512.9 155.8 511.1 155.9 512.4 155.8 512.8 155.8" fill="#cbd5e0"/><path d="M369.7,247.9l.8,1.6C372.2,249.2,372.6,247.4,369.7,247.9Z" fill="#cbd5e0"/><path d="M337.5,326.8a7,7,0,0,0-.5,5.8C337.1,330.3,337.7,328,337.5,326.8Z" fill="#cbd5e0"/><polygon points="600.7 378.8 604.5 378.4 602.7 378.3 600.7 378.8" fill="#cbd5e0"/><path d="M619.7,252.5a149.5,149.5,0,0,1-5,35.2c-11.8,43.8-44.3,75.7-61.7,90.3a38.4,38.4,0,0,1-9.6-1.4l-1.8.2h-.9l-2.6.2h-.7a219.3,219.3,0,0,1-12.1-45.8h0c-3.1-20.1-3.6-43.6,2.8-67.2a141.5,141.5,0,0,1,11.3-28.7c22.7-44.2,62-70.5,62-70.5S620.9,205,619.7,252.5Z" fill="#fff"/><path d="M500.1,203.2a4.9,4.9,0,0,0-.1,1.2A1.7,1.7,0,0,1,500.1,203.2Z" fill="#fff"/><path d="M471.8,230.2l1.1-.3C473.6,230,472.6,230,471.8,230.2Z" fill="#fff"/><path d="M473.2,229.1l1.6.2Z" fill="#fff"/><path d="M496.7,226.5h0Z" fill="#fff"/><path d="M497.7,226.9h0Z" fill="#fff"/><path d="M553.5,331.4h0a229.9,229.9,0,0,1-11.9,45.4h-.9l-2.6.2h-.7l-10.9,1.4c-17.3-14.3-50.5-46.5-62.5-90.9a149.4,149.4,0,0,1-4.9-35.2,180,180,0,0,1,.9-23.2c4.4-.9,8.3,1.4,11.6.9-.3.1-.6.2-.5.4,3.2-.3,5.5-.1,6.4-1l-2.7-.3c2.4,0,2.8-1.1,7.4-.4,2.6-.7,4.1-2.1,1.2-2.2,1.2-.1,3.8.6,2.9,1.5,5,0,4.6-1.5,6.4-2h2.5l1.4.3c-.5.1-1,.2-.7.4h1.5c-.3.3-.2.7-.1,1.1s.2.5.1.6h-2.5a1.5,1.5,0,0,0,1.2.7h1.6a6.5,6.5,0,0,1,2.4.1c.6-.5,0-1-.5-1.6a4.9,4.9,0,0,1-1.2-1.3h.1c.4.3.4,0,.6-.2a2,2,0,0,1-.8-.4h.7v-1.5a.9.9,0,0,1,.1-.5,22.2,22.2,0,0,0-.1-7.7c.5,1.5,1.4,4.4,2,.7-.7-6.1.5-1.4,1.4-4.9-.2-6-2.1-1-1.3-10,0-.9-.7,0-1,.9.5-5.7-.2-9,.4-14.2-.3,1.9-.6,3-1.1,0,.7,1.1.9-2,1.1-4.6l.7.6,1,1.1c12.2,11.9,26.5,28.7,37.2,49.4h0a154.3,154.3,0,0,1,11.3,28.7C557,287.8,556.5,311.3,553.5,331.4Z" fill="#fff"/><path d="M417.7,244.2a1.6,1.6,0,0,1-.6.8C417.4,244.4,417.5,244.2,417.7,244.2Z" fill="#3f3d56"/><path d="M392.1,250.1h0Z" fill="#3f3d56"/><path d="M538.1,377.1h-.7l-10.9,1.4a135.6,135.6,0,0,1-14.3.7l.2-.3c-4-.4-12.1-1.1-12-3.2a65,65,0,0,0-8.7,1.2c-21.1-6.9-45.8-18.6-65.9-38.2-28.5-27.6-41.3-64.6-46.9-88.4,4.2-.1,8.3.1,11.4,1.4-2.1-1,1.2-1.2,1.7-1.6s0,.2.1.3h0a4.4,4.4,0,0,0,3.6-1.2h8v-.6h.8c.1-.7,2.1-.5,4.5-.5-4.7.8-1.5,1.4-3.6,2.5a17.7,17.7,0,0,0,7.5-1.3l1.5-.5h.7l.4-.2a2.3,2.3,0,0,1,1.8-.2l1.8.7.5-.3a5,5,0,0,1-1.4-2.7c-.1-.4-.1-.7-.2-1s-.1-1-.3-.9.9-3.1,1.9-2.8v-6a195.8,195.8,0,0,1,39.6,17.1,152.8,152.8,0,0,1,29.3,22c17.6,17.2,29.2,37.9,36.9,56.9h0A221.9,221.9,0,0,1,538.1,377.1Z" fill="#050505"/><path d="M585.5,377.5h0Z" fill="#3f3d56"/><path d="M704,226.5s-5.5,68.1-51,112.3c-20.3,19.8-45.2,31.5-66.5,38.4-.2-1.4-4.3.2-6.8-.2s-3.9,1.5-2.2,1.9c-7.3-.8-16.9-.5-24.5-.9a38.4,38.4,0,0,1-9.6-1.4l-1.8.2h-.9a222.8,222.8,0,0,1,12.8-45.5c7.6-19,19.3-39.7,36.9-56.9a149.7,149.7,0,0,1,29.3-22C660.4,228.9,704,226.5,704,226.5Z" fill="#050505"/><path d="M64.4,187.3s-13.6,27.2-34.7,33.4,50.8,0,50.8,0-3.7-19.8,1.3-22.3S64.4,187.3,64.4,187.3Z" fill="#a0616a"/><path d="M42.4,140.4c-.7-6.4,2.8-12.1,7.9-12.7H48.5c-5.1.6-8.6,6.3-7.8,12.8S46,151.5,51.1,151C46.7,150.4,43,146.1,42.4,140.4Z" fill="#050505"/><path d="M47,149.2c-6.2-2.1-9.8-7.7-8.2-12.6h.1a5.6,5.6,0,0,0-.9,1.7c-1.6,4.8,2,10.5,8.2,12.6s12.3-.2,14-4.9C57.8,149.5,52.3,151,47,149.2Z" fill="#050505"/><path d="M4.4,268.6l1.8,52.5L34.7,388s-7.4,34.6,7.4,33.4,1.3-34.7,1.3-34.7L29.7,316.1l-2.4-58.2Z" fill="#a0616a"/><circle cx="84.2" cy="178.6" r="27.3" fill="#a0616a"/><path d="M106.5,225.7,79.7,214.9s-5.4.9-20.2,2.1-21.5.1-21.5.1-31.8,11-30.6,17.2,14.9,104.1,21.1,99.1,9.9-6.1,9.9-6.1l68.1-6.2Z" fill="#cbd5e0"/><path d="M12.4,231.9h-4s-4.7,2.4-4.7,9.9S0,271.5,0,271.5H19.8Z" fill="#cbd5e0"/><path d="M48.9,243.6,34,219.5a3.2,3.2,0,0,0-3.3-1.6l-3.9.5a3.4,3.4,0,0,0-3,3.7,1.1,1.1,0,0,1,.1.5l7.7,28.5s12.1,50.2.5,77.1l-.5,12.1s-11.2,37.1-8.7,65.6,3.7,53.3,3.7,53.3-6.2,18.6-3.7,24.8c.8,1.8.6,4.6,0,7.5-3.5,18-4.4,36.3-3.9,54.6l.2,6s-8.7,7.4-1.2,8.7,30.9,3.7,30.9,3.7,5-8.7,2.5-9.9l7.4-40.9S71.2,496.4,70,485.2c0,0,3.7-18.6,0-27.2l1.2-54.6,5,65.7-7.4,81.8s-10,7.4-3.8,9.9,44.6,14.8,44.6,8.6-2.4-8.6-2.4-8.6l16.1-167.3-8.7-69.3s-58.2-5-53.3-70.7c0,0,14.3-29.5,28.3-35.1a.9.9,0,0,0,.5-1.1,1.2,1.2,0,0,0-.5-.5l-5.7-1.6h-.5C80.9,216.1,59.4,223.8,48.9,243.6Z" fill="#050505"/><path d="M77.4,559.5l-.2,1.8a81.9,81.9,0,0,1-10.8,32.2c-2.8,4.7-4.9,10.1-3.8,14.4,2.4,9.9,1.2,13.6,1.2,13.6H83.6v-3.7l11.1,3a12.8,12.8,0,0,0,7.5-.2c2.5-1,5-2.8,5-6.6s-2.4-5.9-5.2-8.2a36.9,36.9,0,0,1-12-18.5l-.2-.5,7.4-27.3Z" fill="#050505"/><path d="M26,560.2l-.2,1.7A81.9,81.9,0,0,1,15,594.1c-2.8,4.7-4.9,10.1-3.9,14.4,2.5,9.9,1.3,13.6,1.3,13.6H32.2v-3.7l11.1,3a12.8,12.8,0,0,0,7.5-.2c2.5-1,4.9-2.8,4.9-6.5s-2.3-6-5.1-8.3a37.3,37.3,0,0,1-12.1-18.5v-.5l7.4-27.2Z" fill="#050505"/><path d="M89.7,183.2s19.6-11.3,27.1-12a12.6,12.6,0,0,0-.1-9.7s-1.2-15.3-20.3-14.7c0,0-22.5-12.2-30.1-7.2S41.8,168.5,49,182.8c0,0-8.3,4.1-8.7,1.9s-6.5,3.8,1.6,8.9c0,0-11.3,11.5-.3,18.6,0,0-.5-10.1,5.9-13.2s.8.2.8.2-11,13.6,5.3,19c0,0-6-7,.1-12.9,0,0-1.9,13.9,9.4,15.4,0,0-5.9-8.3-2.8-11.3,0,0,1.3,10.3,7.7,11.6l4.7.9,1.6-8.3s-4.5,10.6,6.1,11.2c0,0-5.1-16.1,1.7-25.5S89.7,183.2,89.7,183.2Z" fill="#050505"/><ellipse cx="52" cy="142.7" rx="11.8" ry="9.3" transform="translate(-93.1 98) rotate(-52.9)" fill="#050505"/><path d="M62.1,142.1a13.3,13.3,0,0,0-6.1,4.6,13.7,13.7,0,0,0-2.7,6.2,14.2,14.2,0,0,0,8.8-10.8Z" fill="#cbd5e0"/><path d="M156.7,378.1l-1.5-2.1,11.4-8.6a9.9,9.9,0,0,0,3.8-8.9l-5.7-45.7a19,19,0,0,1,7.5-17.5l12.4-9.3a11.2,11.2,0,0,1,15.6,2.2l2.9,3.8-2.1,1.6-2.9-3.8a8.5,8.5,0,0,0-11.9-1.7l-12.5,9.3a16.4,16.4,0,0,0-6.4,15.1l5.7,45.7a12.3,12.3,0,0,1-4.8,11.3Z" fill="#cbd5e0"/><polygon points="160.8 381.9 170.1 369.7 167 365.5 153 371.5 92.1 413.6 102.8 428 160.8 381.9" fill="#cbd5e0"/><rect x="215.8" y="279.3" width="29.2" height="105.52" rx="7.3" transform="translate(-153.1 204.5) rotate(-36.8)" fill="#e6e6e6"/><path d="M269.4,359.7l-1.6-2.3-.4-.4a7.3,7.3,0,0,1-1.4,10.2h0L254.2,376a7.3,7.3,0,0,1-10.2-1.5l.4.5,1.7,2.2a7.2,7.2,0,0,0,10.1,1.5l11.8-8.8A7.2,7.2,0,0,0,269.4,359.7Z" opacity="0.2" style="isolation:isolate"/><path d="M234.6,311.6c-.1-.1-.2-.2-.2-.1Z" fill="#7f77ff"/><path d="M232.7,308.7v0Z" fill="#7f77ff"/><path d="M246,327.2c-.1,0,.1.2.3.5Z" fill="#7f77ff"/><path d="M251.8,334.6h0Z" fill="#7f77ff"/><path d="M255.4,340h.5C255.8,339.8,255.5,340,255.4,340Z" fill="#7f77ff"/><path d="M266.7,355.7h0Z" fill="#7f77ff"/><path d="M229.1,303.3h0Z" fill="#7f77ff"/><path d="M196.1,314.1c-.2-.7.9.6.5-.3S195.7,313.3,196.1,314.1Z" fill="#7f77ff"/><path d="M220.3,291.8v.2C220.4,292,220.4,292,220.3,291.8Z" fill="#7f77ff"/><path d="M215.7,288.5l-.4.4h.1Z" fill="#7f77ff"/><path d="M211.2,292.8h0Z" fill="#7f77ff"/><path d="M267,355.9c-.2.2-.5.4-.6.3l.2-.4h0l-3.9-5.2h0l-.5-.6h.2c-.2-.6-.4-.3-.5-.9h0l-.4-.4c.1,0,.2-.3.3,0s-1.3-1.1-1.2-1.7h0c-.7-.8-.5-.4-.8-.4l-.4-.5v-.8h-.3c-.1-.1-.3-.4-.1-.4s-.1.2-.4,0-1.4-1.5-1.1-2,.3.7-.3.2-.6-.7-.8-1.4.6.6.4-.1-.7-1.1-1.1-1.5-.9-.9-1.6-1.5-.8-1.6-1.3-2.4h.1c-.4.1-.9-.7-1.4-1.2s.3,0,.6.2l-.3-.5a1.8,1.8,0,0,1-.7-.5h.4a9.1,9.1,0,0,1-1.8-2.1c-.2.1-.1.5-.4.6l-.3-.5h.3c-.1-.1-.3-.2-.4-.4l.5.2c-.2-.4-.3-.1-.5-.4s-.1-.3.1-.4.1.4.2.4a3.6,3.6,0,0,1-.4-1.1c-.1.1-.2.2-.4,0s0-.4-.2-.9-.4-.5-.7-.4-.1-.3,0-.4-1.3-1.6-1.2-1h0c-1.1-.9-1.7-2.4-2.6-3.5h.1a9.8,9.8,0,0,0-1.7-1.8c-.2-.2-.2-.6-.1-.6a4.5,4.5,0,0,1-1-1.3c.6.4,0-.2.5.5s-.4-1-1.1-1.5-.1-.7-.4-1l.2.6a3.9,3.9,0,0,1-.8-1h.4c-.7-1.6-2.4-2.1-2.6-3.5s.4.8,0,.7a13.4,13.4,0,0,1-.7-1.8c-.5-1-1-.5-1.6-1.5s-.2.5-.7-.1-.2-1.1.2-.7a.3.3,0,0,1,.1.2c.1.2.4.4.3.1h-.2c-.1-.4-.7-1.2-.4-1.1s-.3-.1-.1.3-1-1.3-1.5-2.2,0,.4-.1.3-.5-.4-1.2-1.2.5-.1-.3-.9.2-.3.4-.1a6.7,6.7,0,0,1-1.2-2l.4.4-.5-.6v.3a.9.9,0,0,1-.3-.5c-.3-.1-.1.5-.7.1s-.8-.9-.6-1.2.2-.2.8.5l-.4-.5c0-.1.1,0,.1,0s-.6-.2-1.3-1.2.1-.4,0-.5-.1.3-.5,0-.6-.6-.8-.9l.2.4c-.2,0-.4-.3-.8-.7s.4.3.3.1-.6-1.3-1.2-1.8.2-.2.1-.6-.4-.9-1.2-1.6.1.4-.5,0l1.1,1.2-.9-.7.8,1c-.4-.2-.3-.2-.3.1s-1-1-1.3-1.7l.5-.4c-.5-1.1-1.5-1.4-2.3-2.7l.3.4c-.4,0-.6-.7-1-1s.1-.4,0-.7-.6-.9-1-.7l-.2-.7c-.6-1-1.4-1-2.2-2.1s.2-.1.2-.2.1-.1.5.3-.7-1-.7-.8v-.2h-.1a.1.1,0,0,0-.1.1l-.4.5-.8.8a2.1,2.1,0,0,1-.5.9.1.1,0,0,1-.1-.1c.1.1-.4.6,0,.5-1.3.4-2.4,2.3-3.5,2.6l-1.9,1.9c0-.1-.1-.1,0-.2s-.1.9-1.1,1.5.3-.5,0-.4-1.1,1-2,1.2h.1c-.6.2-1,1.1-1.8,1.7h-.1a7.3,7.3,0,0,1-2.1,2.2c.1-.4.3-.4,0-.5s.4.3-.3.9-.9.3-1.1.1l.6-.5c-.5,0-.8.6-1.2.8h-.1c-1,.7-.8,1-1.9,1.8h.1c-.4.7-.6.1-1.1.8l-.4-.3-2,1.7,1.6-1.6a4.4,4.4,0,0,0-1.5,1.2.7.7,0,0,1,.5-.4,4,4,0,0,1-1.9,1.5c0-.4-.9,0-1.9.5l-.4.2h-.2s-.2.1-.1.1l.5.7a3.7,3.7,0,0,1,.5,1.1l.6.7.4.5.8,1.1a13.8,13.8,0,0,0,1.6,2.3c0-.9.3.5.7,0s.4.5.4.6h0l.6,1.3c.1.4-.4-.2-.5-.1s.1.5.4,1.1.4.1.7.6l-.3-.8c1.2,1,.4,1.3,1.5,2.3l-.4-.3c.5.5,1.6,2.2,2.4,2.5s0,.4-.2.1c1,1.5,2.8,2.9,3.3,4.1h-.2c.3.3.6.3.7.7s-.2,0-.1.2a2.8,2.8,0,0,1,1,.9l-.4-.2c.9,1.5,1.9,1.9,2.9,3s.3,1.4.7,2h-.1a33.3,33.3,0,0,0,3.6,3.9c.3,1.2,2.2,3.2,3.1,4.9-.1-.3.3-.2.5.1s1,.7.6.9h-.1c-.1.5.5,1.1.9,1.7l.5-.2c.5,1.9,3.1,3.7,3.2,4.9l1,.9-.2.2a23.4,23.4,0,0,0,2,2.7h-.4c.5.7,1.3.3,1.8,1l-.2.4c.9,1.2,1.5,2.6,2.7,3.6l-.4-.2c.4.6,1.4,2.4,1.7,1.8s.9,1.3,1.5,1.8h-.3a3.1,3.1,0,0,1,1.5,1c.1.2-.1.2-.2,0s.6.3,1,1.1l-.4-.2a1.8,1.8,0,0,0,.9.8c.4.3.9,1.2.7,1.4a1,1,0,0,1,.8.6c0,.1-.2,0-.2,0s1.4,1.3,1.7,2.2-.1.1-.1.2l-1-1.4c-.2.1.3.8-.4.5a8.6,8.6,0,0,1,2,1.8.1.1,0,0,1-.1.1h0l.3.4.3.5c-.1.2.5.9.8,1.2s.5.3.3-.3l-.2-.2c-.1-.1-.1-.1-.1-.2h0l-.6-.8a1.6,1.6,0,0,1,.7.9l.7.2a9.3,9.3,0,0,1,.4,1.9l1.4,1.5a4.6,4.6,0,0,0,.7.7,1.6,1.6,0,0,0,.8.6.5.5,0,0,1,.3.5c0,.1.1.1.2.1h-.4l-.3-.3c.2.2.4.7.8.4l1-.4.6-.4.3-.3c.9-.2-.4.5.7,0v.2c2.6-.4,3.3-2.4,6-3.1h-.3c2.9-1.3,5.2-3.7,7.9-5.3.7-.5.6-.7.9-1.2h.3l.5-.9c.7-1.1,2.1-1,2.9-2.6h-.3c.4-.4,1.1-1.4,1.2-1.2l.2-.4h.2l.7-1.3c.8-.8.4.6,1.4-.7S267.2,355.8,267,355.9Zm-5.4-7.1h0l-.2-.3ZM237.3,369h-.1c-.2-.2-.2-.3-.2-.4l.3.4Z" fill="#050505"/><path d="M237.8,369.2h-.1Z" fill="#7f77ff"/><path d="M246.3,327.8h0Z" fill="#7f77ff"/><path d="M259.1,344.4c-.6-1.3-.1.4-.9-.8l.6.9C258.8,344.3,258.8,344,259.1,344.4Z" fill="#7f77ff"/><path d="M256.6,340.8c-.3-.3-.4-.3-.2.1S256.5,340.8,256.6,340.8Z" fill="#7f77ff"/><path d="M242.1,321.8h.2C242,321.3,242.2,321.7,242.1,321.8Z" fill="#7f77ff"/><polygon points="238.3 315.8 237.7 315.3 238.1 315.7 238.3 315.8" fill="#7f77ff"/><path d="M211.7,292h.4C212.2,291.9,212,291.6,211.7,292Z" fill="#7f77ff"/><path d="M197.5,303.1l.9-.4A1.5,1.5,0,0,0,197.5,303.1Z" fill="#7f77ff"/><polygon points="217.6 343.1 218.1 343.6 217.9 343.3 217.6 343.1" fill="#7f77ff"/><path d="M89.9,264.9l1.8,52.4,28.5,66.9s-7.5,34.7,7.4,33.5,1.2-34.7,1.2-34.7l-13.6-70.6-2.5-58.2Z" fill="#a0616a"/><polygon points="100.3 228.1 101 223.5 106.5 225.7 123.9 252.9 88 271.5 100.3 228.1" fill="#cbd5e0"/></svg>